<svg width="16" height="20" viewBox="0 0 16 20" fill="none" xmlns="http://www.w3.org/2000/svg"><path fill-rule="evenodd" clip-rule="evenodd" d="M2.484.898h3.038a3.375 3.375 0 013.375 3.375v1.688c0 .932.755 1.687 1.687 1.687h1.688a3.375 3.375 0 013.375 3.375v7.088c0 .932-.756 1.687-1.688 1.687H2.484a1.687 1.687 0 01-1.687-1.687V2.586c0-.932.755-1.688 1.687-1.688zm3.713 14.175a.675.675 0 10-1.35 0v.675a.675.675 0 101.35 0v-.675zm2.025-2.7c.373 0 .675.303.675.675v2.7a.675.675 0 11-1.35 0v-2.7c0-.372.302-.675.675-.675zm3.375-1.35a.675.675 0 10-1.35 0v4.725a.675.675 0 101.35 0v-4.725z" fill="#fff"/><path d="M10.247 4.273a4.707 4.707 0 00-1.151-3.09 8.79 8.79 0 016.267 6.266 4.707 4.707 0 00-3.091-1.15h-1.688a.338.338 0 01-.337-.338V4.273z" fill="#fff"/></svg>