<svg width="25" height="31" viewBox="0 0 25 31" fill="none" xmlns="http://www.w3.org/2000/svg"><path d="M23.508 19v-3.938A5.062 5.062 0 0018.445 10h-2.25a1.687 1.687 0 01-1.687-1.688v-2.25A5.062 5.062 0 009.445 1H6.633m10.125 18l-4.5-4.5m0 0l-4.5 4.5m4.5-4.5v9M10.008 1H2.695c-.932 0-1.687.756-1.687 1.688v25.875c0 .931.755 1.687 1.687 1.687H21.82c.932 0 1.688-.756 1.688-1.688V14.5c0-7.456-6.044-13.5-13.5-13.5z" stroke="#936FFF" stroke-width="1.5" stroke-linecap="round" stroke-linejoin="round"/></svg>