<svg width="241" height="40" viewBox="0 0 241 40" fill="none" xmlns="http://www.w3.org/2000/svg"><path d="M144.758 0h-5.842v9.09h-5.533v5.587h5.533V31.65c0 2.429.666 4.291 1.998 5.587 1.332 1.296 3.249 1.944 5.75 1.943h11.928v-5.648h-10.76c-2.05 0-3.075-.991-3.074-2.975v-15.88h13.834V9.09h-13.834V0zm51.476 9.094h-5.841v30.09h5.841V9.094zm0-9.094h-5.841v6.584h5.841V0zM22.846 9.094h-7.854v5.587h7.854V9.094zm-14.992 0H0v5.587h7.854V9.094zM14.414 0H8.572v7.757h5.842V0z" fill="#262626"/><path d="M31.322 25.672c0 2.55-.78 4.656-2.337 6.316-1.558 1.66-3.607 2.49-6.148 2.49-2.501 0-4.53-.83-6.087-2.49-1.558-1.66-2.337-3.765-2.337-6.316v-9.659h-5.84v9.72c0 4.292 1.31 7.743 3.934 10.354 2.623 2.611 6.066 3.917 10.33 3.917 4.304 0 7.767-1.306 10.39-3.917 2.624-2.61 3.935-6.062 3.936-10.354V9.093h-5.841v16.58zM218.078 8.234c-4.304 0-7.767 1.306-10.391 3.917-2.623 2.611-3.934 6.062-3.935 10.354v16.67h5.841V22.566c0-2.55.779-4.656 2.337-6.316 1.558-1.66 3.607-2.49 6.148-2.49 2.501 0 4.53.83 6.087 2.49 1.558 1.66 2.337 3.765 2.337 6.316v.6h5.841v-.66c0-4.293-1.312-7.744-3.935-10.355-2.623-2.611-6.066-3.917-10.33-3.917zm-50.002 4.776c-2.623 2.611-3.935 6.063-3.935 10.354v15.82h5.841V23.426c0-2.551.779-4.656 2.336-6.316 1.558-1.661 3.608-2.49 6.149-2.49h7.486V9.094h-7.486c-4.304 0-7.768 1.305-10.391 3.916zm64.263 18.412h-5.841v7.757h5.841v-7.757zM79.62 8.277c-4.303 0-7.767 1.306-10.39 3.917-.36.36-.699.739-1.014 1.137a13.08 13.08 0 00-1.013-1.137c-2.623-2.611-6.066-3.917-10.33-3.917-4.304 0-7.768 1.306-10.39 3.917-2.624 2.611-3.935 6.062-3.936 10.354v16.64h5.841v-16.58c0-2.55.779-4.656 2.337-6.316 1.558-1.66 3.607-2.49 6.148-2.49 2.5 0 4.53.83 6.087 2.49 1.541 1.642 2.32 3.719 2.335 6.233v16.662h5.843V22.533c.015-2.517.793-4.597 2.334-6.24 1.558-1.662 3.608-2.491 6.149-2.49 2.5 0 4.53.83 6.087 2.49 1.558 1.659 2.337 3.764 2.336 6.315v16.578h5.841V22.549c0-4.292-1.311-7.743-3.935-10.354-2.623-2.611-6.066-3.917-10.33-3.917zm161.292 16.227h-7.853v5.587h7.853v-5.587z" fill="#262626"/><path d="M225.899 24.504h-7.854v5.587h7.854v-5.587zM114.557 8.234c-4.592 0-8.363 1.529-11.314 4.586-2.951 3.057-4.427 6.832-4.427 11.325 0 4.454 1.456 8.21 4.366 11.265 2.91 3.058 6.742 4.586 11.498 4.585 3.565 0 6.681-.91 9.345-2.732a13.96 13.96 0 005.367-6.989h-6.18a7.956 7.956 0 01-3.06 2.92c-1.518.85-3.26 1.275-5.227 1.275-2.705 0-4.98-.79-6.824-2.368a8.566 8.566 0 01-2.15-2.667 8.477 8.477 0 01-.925-3.285h25.148c.409-5.06-.851-9.31-3.781-12.752-2.931-3.44-6.877-5.162-11.836-5.163zm-9.408 12.814a8.899 8.899 0 013.198-5.253c1.68-1.356 3.709-2.034 6.087-2.034 2.418 0 4.478.668 6.179 2.004 1.7 1.336 2.776 3.097 3.228 5.283h-18.692z" fill="#262626"/></svg>