<svg width="85" height="60" viewBox="0 0 85 60" fill="none" xmlns="http://www.w3.org/2000/svg">
<g clip-path="url(#clip0_3836_345)">
<path d="M41.8143 7.0637C51.6155 6.8476 61.3566 7.46035 71.0047 9.24389C73.6062 9.72534 76.1557 10.401 78.6532 11.2982C83.6564 13.1009 84.6384 17.1139 84.4168 20.5524C84.3238 22.0159 84.0202 23.4411 83.4977 24.8143C83.3965 25.0824 83.3938 25.3368 83.402 25.6131C83.4403 26.9589 83.4786 28.2884 83.9819 29.585C84.2281 30.2251 84.2527 30.9747 84.2637 31.6749C84.2855 33.2561 84.5728 34.7961 84.808 36.3499C85.0652 38.0486 85.0843 39.7556 84.7533 41.4543C84.2773 43.8999 82.9971 45.7573 80.7978 46.9828C77.8024 48.6514 74.5663 49.669 71.2728 50.5061C62.1335 52.8285 52.8657 53.9884 43.4091 53.9856C34.0783 53.9829 24.9062 52.927 15.8326 50.859C12.7442 50.1559 9.6941 49.3025 6.76165 48.0742C5.79329 47.6694 4.86049 47.1879 3.96051 46.6518C1.8788 45.4099 0.825632 43.4759 0.325037 41.1835C-0.0442551 39.4957 -0.093494 37.7833 0.149965 36.0818C0.453605 33.9427 0.801012 31.8145 0.896755 29.6507C0.926845 28.9531 1.12927 28.261 1.26878 27.569C1.35632 27.1368 1.47121 26.7128 2.00737 26.617C2.06755 26.6061 2.1332 26.5596 2.16876 26.5076C2.25903 26.3736 1.98275 24.5709 1.85691 24.4177C-0.673419 21.3703 -0.419018 15.768 2.37119 13.1474C3.40794 12.1763 4.67174 11.6019 5.98204 11.1232C9.78985 9.72807 13.7508 8.97855 17.7501 8.41777C25.6201 7.3099 33.5257 6.81751 41.4723 7.06097C41.5872 7.0637 41.6994 7.06097 41.8143 7.06097V7.0637Z" fill="#6943DC"/>
<path d="M3.9447 31.4383C3.43043 31.9991 3.00096 32.4969 2.53866 32.962C2.23502 33.2683 1.88761 33.6157 1.42258 33.5255C0.990371 33.4407 0.976693 33.6923 0.924719 33.9549C0.528072 36.0257 0.336588 38.1047 0.618343 40.211C1.0314 43.3049 2.5031 45.641 5.4164 46.9513C6.22611 47.3151 7.0276 47.709 7.8592 48.0154C14.0305 50.294 20.4507 51.5059 26.9338 52.4414C32.8808 53.3004 38.8578 53.5712 44.865 53.5329C53.8292 53.4754 62.632 52.2745 71.2953 50.0232C74.5861 49.167 77.8167 48.1385 80.8011 46.4479C82.53 45.4686 83.605 44.0216 84.1138 42.1259C84.7512 39.7569 84.5679 37.3825 84.1357 35.0081C84.1111 34.8795 84.1056 34.6853 83.9524 34.6689C83.0114 34.5622 82.3221 33.9221 81.4823 33.4735C81.4467 33.7853 81.4221 34.0315 81.3865 34.2723C81.258 35.1312 80.8066 35.4157 79.9996 35.1257C79.7015 35.019 79.4142 34.8659 79.1516 34.6908C78.7659 34.4337 78.4076 34.1382 77.9808 33.8182C77.9398 34.6826 77.9945 35.4622 77.762 36.2145C77.4803 37.1281 77.0234 37.3415 76.1645 36.9421C75.6666 36.7096 75.2071 36.4087 74.7858 36.0613C74.2469 35.6154 73.7244 35.1476 73.1855 34.6798C72.9886 34.9534 73.0269 35.2379 72.9831 35.4978C72.8819 36.0832 72.7697 36.6603 72.4606 37.1856C71.8561 38.2114 71.019 38.515 69.9057 38.0937C69.2792 37.8558 68.7403 37.4783 68.2343 37.046C67.1127 36.0941 66.1854 34.9753 65.3593 33.7662C65.2553 33.613 65.2334 33.3668 64.9189 33.3285C64.9189 33.9796 64.9243 34.6087 64.9189 35.2406C64.9079 36.0613 64.9024 36.8874 64.6398 37.6752C64.4073 38.3728 63.9614 38.5424 63.3104 38.1977C63.1298 38.1019 62.9466 37.9925 62.8071 37.8503C60.7062 35.7029 58.7831 33.4379 57.9434 30.4562C57.9023 30.3085 57.9434 30.0897 57.6807 30.0404C57.4783 31.4985 57.254 32.9373 56.8492 34.3434C56.5264 35.4649 56.1516 36.5673 55.3939 37.4837C54.4501 38.6244 53.1945 38.6928 52.1277 37.6643C51.4684 37.0324 51.1046 36.2199 50.7982 35.3801C50.2265 33.8072 49.9366 32.1714 49.715 30.5192C49.6904 30.3304 49.7396 30.0377 49.4688 30.024C49.1269 30.0076 49.2117 30.3331 49.1788 30.5383C49.0393 31.4164 48.9326 32.3 48.774 33.1726C48.5278 34.5185 48.2406 35.837 47.357 36.9695C45.9537 38.7694 44.285 38.846 42.8051 37.0871C41.8204 35.9163 41.3225 34.5403 41.1502 33.0331C41.0818 32.4422 40.997 31.8541 40.9204 31.2659C40.5921 32.3437 40.3787 33.4078 40.1791 34.4719C39.9712 35.5826 39.4295 36.5181 38.7046 37.3579C37.635 38.5971 36.2782 38.701 35.0363 37.6479C34.6151 37.2922 34.2759 36.8682 33.975 36.4032C33.1844 35.1804 32.8944 33.8127 32.7467 32.3902C32.6865 31.7966 32.6838 31.1866 32.4185 30.4426C32.2926 31.1811 32.2106 31.7419 32.1039 32.2972C31.8194 33.8018 31.472 35.2899 30.7252 36.6439C30.2109 37.5767 29.5489 38.37 28.3727 38.3673C27.1991 38.3673 26.6219 37.5083 26.1296 36.6084C25.4347 35.3336 25.0983 33.9358 24.8193 32.5243C24.6743 31.783 24.5539 31.0362 24.4226 30.2921C23.7469 32.9401 21.9497 34.8194 20.2729 36.7725C19.8434 37.2731 19.3592 37.7299 18.8039 38.0992C17.789 38.7749 17.1708 38.4959 17.045 37.284C16.9875 36.7424 17.0176 36.1926 16.9985 35.6455C16.993 35.4786 17.1106 35.2844 16.8809 35.1312C16.3146 35.8123 15.8167 36.5509 15.1493 37.1391C14.408 37.7901 13.6393 38.5478 12.5588 38.1731C11.4919 37.8038 11.3087 36.7588 11.1172 35.7823C10.9831 35.0956 11.046 34.3926 10.9804 33.5802C10.7041 33.8154 10.5181 33.9686 10.3376 34.13C9.85611 34.554 9.36098 34.9589 8.76191 35.2023C8.04794 35.495 7.66771 35.3008 7.54188 34.5431C7.45161 34.0014 7.43793 33.4489 7.38322 32.8307C7.09326 33.1343 6.89083 33.3805 6.65284 33.5856C6.39571 33.8072 6.12216 34.0261 5.82672 34.1847C4.98146 34.6388 4.407 34.3871 4.21005 33.4543C4.08148 32.8389 4.03771 32.2042 3.93923 31.4438L3.9447 31.4383Z" fill="#936FFF"/>
<path d="M28.0951 23.7428C28.303 22.3915 28.4918 21.0648 28.9431 19.7928C29.9662 16.9014 31.5938 15.7114 34.6548 15.6184C37.6064 15.5281 39.3736 16.8685 40.0602 19.7545C40.2599 20.597 40.3912 21.4532 40.5608 22.3012C40.5881 22.4353 40.5143 22.6213 40.7714 22.7143C40.9246 21.7705 41.0887 20.8542 41.3869 19.9679C42.399 16.9506 43.9336 15.7825 47.1068 15.6212C50.5481 15.4461 52.4656 16.9369 53.1386 20.3071C53.3848 21.5408 53.5215 22.7827 53.5544 24.0383C53.5598 24.238 53.5298 24.4705 53.8307 24.4951C54.0768 24.517 54.1234 24.3228 54.1863 24.1532C54.2465 23.9808 54.2984 23.8058 54.3531 23.6334C54.9932 21.6775 55.699 19.7463 56.9792 18.105C58.2184 16.5157 59.7612 16.461 61.1837 17.9053C61.9551 18.6904 62.4064 19.6615 62.6991 20.701C62.9316 21.5298 63.0985 22.3751 63.3201 23.327C63.6155 22.6049 63.8508 21.973 64.1298 21.3602C64.7918 19.9049 65.4975 18.4633 66.7258 17.3828C68.3835 15.9221 69.9236 16.3707 70.5363 18.4797C70.6512 18.8709 70.7251 19.2785 70.7825 19.6834C70.9658 20.9773 70.9357 22.2739 70.8482 23.5732C70.8345 23.7866 70.736 24.0109 70.87 24.2325C71.1162 24.1696 71.1436 23.9343 71.2475 23.7729C72.1639 22.3587 73.053 20.9171 74.2894 19.7463C75.3371 18.7533 76.0511 18.9803 76.3739 20.3946C76.6036 21.4013 76.6392 22.4243 76.6529 23.4529C76.6529 23.6279 76.5353 23.8577 76.8061 23.9945C77.2629 23.3599 77.665 22.6924 78.2231 22.1508C79.2078 21.1934 79.8452 21.363 80.1625 22.6842C80.2884 23.2039 80.3485 23.7401 80.4525 24.3556C80.9394 23.8222 81.2047 23.152 81.8339 22.9003C82.8023 22.5119 82.8761 23.4556 83.2263 23.9918C83.7788 22.8018 84.088 20.5779 83.9512 18.7916C83.7159 15.7169 82.2771 13.4574 79.4486 12.1279C78.4145 11.641 77.3395 11.2717 76.2426 10.9599C69.6062 9.06418 62.7894 8.33653 55.9425 7.83867C51.1909 7.494 46.4311 7.47759 41.6632 7.4858C36.9198 7.494 32.1847 7.49674 27.4523 7.83867C21.8774 8.23806 16.3352 8.87543 10.8834 10.1474C8.57465 10.6863 6.27957 11.2936 4.17324 12.4316C2.2283 13.482 0.989122 15.0795 0.663599 17.2843C0.329868 19.5548 0.923471 21.6693 1.9356 23.6854C1.95475 23.7237 2.03682 23.7292 2.11067 23.7592C2.20095 23.2614 2.29122 22.7936 2.37055 22.3231C2.46902 21.7432 2.78908 21.6064 3.29788 21.8471C3.88601 22.1289 4.47141 22.4189 5.09236 22.7225C5.15801 22.1015 5.19358 21.5353 5.28385 20.98C5.42062 20.1457 5.86651 19.9159 6.65707 20.2387C6.90873 20.3399 7.15219 20.4712 7.39291 20.597C7.63637 20.7228 7.77588 20.7475 7.86342 20.3973C8.03575 19.6998 8.29563 19.563 8.99591 19.76C9.74817 19.9706 10.432 20.3426 11.0612 20.7994C11.5837 21.1797 12.0898 21.5845 12.6888 22.0468C12.6669 20.7092 12.6259 19.4782 12.8037 18.2636C12.9159 17.5086 12.9049 16.5895 13.7119 16.2394C14.5681 15.8673 15.2958 16.4637 15.9331 16.9752C17.5416 18.2664 18.7644 19.8666 19.6069 21.7514C19.6698 21.8936 19.6452 22.1125 19.9269 22.159C20.0035 21.5134 20.05 20.876 20.1567 20.2523C20.3838 18.9311 21.0102 17.8451 22.2166 17.1886C23.1904 16.6579 23.9126 16.8029 24.684 17.5962C25.1791 18.1077 25.5511 18.7095 25.9122 19.3168C26.7493 20.7283 27.3839 22.2383 28.0869 23.7401L28.0951 23.7428Z" fill="#936FFF"/>
<path d="M41.0528 27.5511C41.1075 29.5371 41.4056 31.5012 41.6847 33.4625C41.9062 35.0136 42.5491 36.3923 43.8047 37.4044C44.7265 38.1457 45.673 38.0937 46.4909 37.2403C47.172 36.529 47.7219 35.7303 47.9653 34.74C48.3948 32.9866 48.6656 31.2112 48.8161 29.414C48.9255 28.1174 48.9857 26.8235 48.7833 25.5269C48.6875 24.9141 48.4413 24.4518 47.7684 24.3178C45.859 23.9403 43.9633 23.9786 42.0758 24.4518C41.526 24.5886 41.2388 24.9552 41.143 25.505C41.0254 26.1834 41.0281 26.8673 41.0528 27.5484V27.5511Z" fill="white"/>
<path d="M40.586 27.9843C40.5943 27.1035 40.5806 26.3321 40.4684 25.5607C40.359 24.803 39.9733 24.3872 39.2101 24.2559C37.7794 24.0069 36.3488 24.0069 34.9208 24.2066C32.9786 24.4774 32.716 24.7811 32.7188 26.7616C32.7242 29.1606 33.047 31.535 33.4464 33.893C33.6844 35.2936 34.3546 36.5191 35.5008 37.4191C36.4007 38.1248 37.339 38.0783 38.1378 37.2631C38.8271 36.5574 39.377 35.7586 39.6232 34.7711C40.1839 32.5061 40.5095 30.211 40.586 27.9843Z" fill="white"/>
<path d="M49.2084 25.6719C49.7227 24.8567 50.3983 24.6926 51.1068 24.6105C51.5801 24.5558 52.0588 24.5066 52.5348 24.5148C52.9943 24.523 53.1284 24.3452 53.101 23.9075C53.0189 22.5644 52.8876 21.2294 52.5758 19.9164C51.9931 17.4463 50.7075 16.2618 48.1717 16.1086C46.4401 16.0046 44.6374 16.0156 43.3326 17.438C41.5627 19.3666 41.322 21.8203 41.0703 24.3534C43.0809 23.5573 45.045 23.5245 47.031 23.7324C48.1334 23.8473 49.1318 24.1209 49.2084 25.6719Z" fill="white"/>
<path d="M24.7419 27.2554C24.6626 28.8584 24.9033 30.4313 25.1796 31.9988C25.4723 33.662 25.8334 35.3115 26.7525 36.764C27.7318 38.3123 29.064 38.315 30.098 36.7914C30.5877 36.0692 30.8913 35.2568 31.1293 34.4224C31.8487 31.8894 32.1168 29.2879 32.2344 26.67C32.2891 25.4664 32.1524 25.2695 30.9569 25.0151C29.2308 24.6485 27.513 24.8154 25.817 25.2284C24.7446 25.4883 24.7501 25.5102 24.7446 26.64C24.7446 26.8451 24.7446 27.0503 24.7446 27.2527L24.7419 27.2554Z" fill="white"/>
<path d="M57.4394 27.3434C57.4394 27.1164 57.4038 26.8373 57.4449 26.5693C57.5652 25.7814 57.1658 25.4778 56.4573 25.3274C54.909 25.0046 53.3498 24.8678 51.7714 24.9717C51.2736 25.0046 50.773 25.0647 50.297 25.2453C49.9906 25.3602 49.8074 25.5462 49.821 25.9045C49.9496 29.0996 50.1958 32.2755 51.2626 35.3228C51.528 36.0778 51.8754 36.8 52.4663 37.3663C53.2951 38.1568 54.206 38.1213 54.9692 37.265C55.5382 36.6222 55.8774 35.8481 56.1482 35.0466C56.9853 32.5627 57.2753 29.9859 57.4366 27.3434H57.4394Z" fill="white"/>
<path d="M34.0167 16.0638C32.6025 16.0392 30.6657 16.786 29.6727 19.1878C29.0463 20.7032 28.7509 22.2789 28.6141 23.901C28.584 24.2566 28.6934 24.3934 29.0573 24.3961C30.1323 24.4044 31.2046 24.4509 32.173 25.0062C32.4082 25.1402 32.5095 24.9952 32.5888 24.8174C32.8076 24.3305 33.2371 24.1199 33.7103 24.0077C35.7346 23.5345 37.7698 23.4305 39.7941 23.9776C40.2044 24.087 40.322 24.0515 40.2673 23.6138C40.0922 22.1886 39.8898 20.7689 39.4959 19.3847C38.8695 17.1881 37.2884 16.0173 34.0167 16.0638Z" fill="white"/>
<path d="M72.6223 34.215C72.5102 31.4987 71.881 28.9054 70.6993 26.4517C70.2233 25.4642 69.4218 25.0101 68.3358 25.0237C67.0447 25.0402 65.8985 25.538 64.766 26.0824C64.5472 26.1891 64.5143 26.3477 64.5253 26.583C64.5964 27.9699 64.8234 29.3458 64.9137 30.7272C65.0204 32.3631 65.707 33.6843 66.7629 34.8743C67.641 35.8645 68.5136 36.863 69.7036 37.4949C70.9509 38.1541 71.8564 37.7684 72.316 36.439C72.5649 35.714 72.6114 34.97 72.6196 34.215H72.6223Z" fill="white"/>
<path d="M64.4695 31.6265C64.4422 31.6265 64.4148 31.6265 64.3902 31.6265C64.3355 30.6936 64.2917 29.7608 64.2206 28.8308C63.9826 25.7397 64.5899 26.4947 61.7751 24.6619C60.8861 24.082 60.1365 24.123 59.3214 24.6619C59.0369 24.8506 58.7688 25.0613 58.4843 25.2528C58.0302 25.5591 57.8852 25.9667 57.8715 26.522C57.7539 31.0602 60.0353 34.4522 63.0744 37.4722C63.8103 38.2026 64.1796 38.0384 64.3218 37.0126C64.4094 36.3835 64.4504 35.7434 64.4641 35.1087C64.486 33.9489 64.4695 32.7863 64.4695 31.6265Z" fill="white"/>
<path d="M17.4931 35.6784C17.4931 36.2009 17.4494 36.7289 17.5041 37.2459C17.5889 38.0611 17.8843 38.1787 18.5737 37.7C18.8718 37.4948 19.1481 37.2513 19.408 36.9997C20.245 36.1927 20.9426 35.2599 21.6949 34.3763C23.6453 32.0813 24.3073 29.3786 24.3073 26.4489C24.3073 25.4887 23.0243 24.0334 22.0833 23.9103C21.952 23.8939 21.7906 23.8857 21.6839 23.9459C20.3052 24.7447 18.932 25.6146 18.5764 27.2914C17.991 30.0515 17.5889 32.8472 17.4904 35.673L17.4931 35.6784Z" fill="white"/>
<path d="M11.4609 34.0141C11.4691 35.0481 11.4883 36.0766 11.9697 37.0204C12.3801 37.8219 12.9573 38.0462 13.7095 37.6194C15.2441 36.7496 16.218 35.3435 17.1152 33.88C17.1809 33.7733 17.1699 33.6147 17.1836 33.4806C17.3696 31.5302 17.7252 29.6072 18.0152 27.6705C18.0918 27.1534 18.6744 26.6118 18.193 26.1167C17.8073 25.72 17.2219 25.5395 16.6857 25.3453C16.4724 25.2687 16.2535 25.1976 16.0347 25.1429C14.5685 24.7708 13.6493 25.203 13.0831 26.5927C12.112 28.9726 11.5813 31.4564 11.4637 34.0195L11.4609 34.0141Z" fill="white"/>
<path d="M62.883 24.1672C62.8255 23.7076 62.7818 23.2097 62.6942 22.7174C62.4262 21.2074 62.0897 19.7165 61.0803 18.4965C59.7618 16.9017 58.3612 16.94 57.1658 18.6086C55.9595 20.2937 55.2783 22.2304 54.6382 24.1781C54.5206 24.5392 54.6984 24.6131 54.9966 24.6431C55.675 24.7143 56.3725 24.7772 56.9935 25.0589C57.5132 25.2969 57.8442 25.245 58.2983 24.8647C59.9122 23.5024 60.5523 23.4806 62.366 24.5283C62.4973 24.6048 62.6313 24.7772 62.7845 24.7006C62.9897 24.5966 62.8392 24.3751 62.883 24.1672Z" fill="white"/>
<path d="M70.4606 22.3326C70.4196 20.7433 70.4633 19.2935 69.8451 17.9476C69.4047 16.9929 68.7153 16.7604 67.7743 17.22C66.9455 17.6221 66.3847 18.3142 65.8896 19.061C64.8118 20.6913 64.0951 22.4858 63.5097 24.3405C63.3921 24.7098 63.258 25.0517 63.6656 25.3827C64.0705 25.7109 64.4069 25.9106 64.9075 25.5495C65.1975 25.3417 65.5613 25.2268 65.9033 25.1037C67.2081 24.6304 68.5266 24.2775 69.8779 24.9341C70.2445 25.1119 70.2582 24.8711 70.2773 24.6332C70.3457 23.8152 70.4086 22.9973 70.4606 22.3353V22.3326Z" fill="white"/>
<path d="M19.6853 24.2539C19.3707 21.0233 17.5707 18.7118 15.0185 16.9146C14.0994 16.2663 13.618 16.4769 13.4128 17.5328C12.9642 19.8361 13.0326 22.1449 13.4894 24.4454C13.566 24.8339 13.7 24.9925 14.124 24.7819C14.6027 24.5412 15.1334 24.5384 15.6614 24.615C16.6024 24.7491 17.4449 25.143 18.2628 25.5971C18.4105 25.6791 18.5418 25.8433 18.7552 25.7503C19.0917 25.6053 19.6935 24.6342 19.6825 24.2539H19.6853Z" fill="white"/>
<path d="M77.512 34.3315C77.4245 31.9953 76.8582 29.7468 76.2318 27.5119C76.188 27.3559 76.1224 27.2219 75.9801 27.1207C75.0227 26.4259 73.1379 26.4861 72.1723 27.2192C71.814 27.4927 71.7182 27.7499 71.8823 28.1957C72.4759 29.8015 72.8452 31.4647 73.0012 33.1716C73.0285 33.4725 73.0969 33.757 73.2884 33.9977C74.1555 35.0755 75.2087 35.9263 76.4369 36.5636C76.9157 36.8126 77.1646 36.5937 77.3041 36.156C77.4928 35.5624 77.5093 34.9497 77.5093 34.3315H77.512Z" fill="white"/>
<path d="M20.2162 24.2061C20.5144 24.2389 20.6594 24.0337 20.8399 23.9134C21.759 23.3033 22.3007 23.3143 23.2006 23.9681C23.5891 24.2526 23.9173 24.5972 24.2347 24.9583C24.366 25.1088 24.4726 25.3003 24.738 25.1662C25.5668 24.7504 26.4696 24.6246 27.3723 24.5015C27.6103 24.4687 27.7771 24.3948 27.6622 24.1103C26.7759 21.911 25.8924 19.7089 24.3195 17.8871C23.7368 17.2114 23.1076 17.1594 22.3007 17.671C21.3405 18.2755 20.8071 19.1864 20.6265 20.2943C20.5007 21.0575 20.4214 21.8289 20.3503 22.6003C20.301 23.1337 20.1342 23.6617 20.219 24.2088L20.2162 24.2061Z" fill="white"/>
<path d="M7.90912 31.6445C7.90912 32.5199 7.88177 33.2256 7.91459 33.9314C7.96657 34.9846 8.19361 35.0858 9.09906 34.5004C9.75285 34.0764 10.3191 33.5512 10.8662 32.9986C11.0139 32.8481 11.1179 32.6785 11.1425 32.4652C11.3422 30.668 11.7607 28.9227 12.368 27.2212C12.4801 26.9094 12.409 26.7589 12.0671 26.7179C11.1397 26.6003 10.2179 26.4909 9.27687 26.51C8.66138 26.5209 8.39057 26.8 8.30577 27.3963C8.0924 28.8625 7.98845 30.3397 7.91186 31.6473L7.90912 31.6445Z" fill="white"/>
<path d="M76.1806 24.076C76.1806 22.8423 76.1806 21.8849 76.0028 20.9439C75.9125 20.4652 75.9535 19.8114 75.4174 19.6555C74.9305 19.516 74.5913 20.0521 74.2767 20.3913C73.0676 21.6989 72.1184 23.2007 71.2075 24.7216C70.7616 25.4684 70.8628 26.3356 71.4372 26.9702C71.5795 27.1261 71.667 27.0659 71.7682 26.9757C72.8925 25.9663 74.1727 26.0319 75.4858 26.4696C75.9426 26.6228 76.0465 26.4395 76.0657 26.0429C76.1012 25.2933 76.1532 24.5466 76.1806 24.0733V24.076Z" fill="white"/>
<path d="M80.9703 33.2048C80.8828 31.4924 80.6694 30.0097 80.2755 28.5572C79.9965 27.5314 79.5096 27.1785 78.4455 27.2414C78.0406 27.266 77.6412 27.3727 77.2391 27.452C76.8479 27.5286 76.7385 27.7338 76.8589 28.1386C77.2337 29.4024 77.5181 30.6936 77.7042 31.9984C77.9203 33.4975 79.0199 34.1431 80.2017 34.7175C80.5956 34.909 80.8746 34.7394 80.9156 34.2908C80.9539 33.8613 80.9594 33.4291 80.9703 33.2048Z" fill="white"/>
<path d="M12.4045 26.324C12.7081 26.3158 13.3045 25.6019 13.2115 25.2244C12.9735 24.2615 12.916 23.2056 12.2513 22.4123C11.4033 21.4002 10.2927 20.7218 9.05626 20.2512C8.56114 20.0625 8.26297 20.1199 8.28212 20.7464C8.33136 22.4424 8.6815 24.0919 9.05079 25.7386C9.0973 25.9411 9.18757 26.0669 9.41188 26.0642C10.4185 26.0505 11.4115 26.1873 12.4045 26.324Z" fill="white"/>
<path d="M4.40625 30.3669C4.44728 31.1411 4.48011 31.866 4.52935 32.5909C4.54576 32.8398 4.58679 33.0888 4.64424 33.3295C4.73451 33.7015 4.84666 34.0462 5.37188 33.8903C6.22809 33.6359 7.41256 32.2599 7.44812 31.3627C7.50009 30.0004 7.52745 28.6354 7.74902 27.2868C7.80373 26.9558 7.68884 26.8163 7.35785 26.8382C6.72321 26.8765 6.08858 26.9202 5.45394 26.9394C4.86855 26.9585 4.60321 27.2348 4.58132 27.8257C4.5485 28.6873 4.46917 29.549 4.41172 30.3642L4.40625 30.3669Z" fill="white"/>
<path d="M5.5625 23.1314C5.61721 23.8646 5.64183 24.5676 5.72389 25.2651C5.86888 26.466 5.88255 26.4633 7.11079 26.4058C7.3816 26.3922 7.65789 26.414 7.9287 26.3867C8.41836 26.3402 8.71652 26.1843 8.56881 25.566C8.33356 24.5731 8.07915 23.5664 8.03265 22.5543C7.98068 21.4737 7.38981 21.0114 6.51172 20.6613C6.00291 20.4589 5.76766 20.6312 5.71842 21.1209C5.6473 21.7965 5.61174 22.4777 5.5625 23.1287V23.1314Z" fill="white"/>
<path d="M83.9405 32.8349C83.8393 31.8884 83.7654 30.8899 83.6204 29.9024C83.377 28.2611 83.0706 28.0259 81.391 28.0313C81.3007 28.0313 81.2077 28.0423 81.1175 28.0368C80.6962 28.0149 80.6223 28.2009 80.7345 28.5839C81.0135 29.5468 81.2515 30.5371 81.2597 31.53C81.2679 32.5641 81.7439 33.1768 82.5892 33.6172C82.9667 33.8142 83.3688 34.2655 83.7381 34.0823C84.1621 33.8744 83.8283 33.2972 83.9405 32.8376V32.8349Z" fill="white"/>
<path d="M1.18797 31.4571C1.18797 31.6841 1.16609 31.9139 1.19345 32.1382C1.23174 32.4446 1.14968 32.8713 1.45058 33.0081C1.80893 33.1695 2.03051 32.7592 2.29311 32.5622C3.58153 31.6021 3.82226 30.1741 4.03015 28.7161C4.27361 27.0201 4.25446 26.9873 2.52837 27.0119C2.03871 27.0174 1.78705 27.187 1.67763 27.6794C1.39861 28.9267 1.23174 30.1823 1.18797 31.4571Z" fill="white"/>
<path d="M79.9941 25.2779C79.9667 24.5967 79.9667 23.9101 79.8135 23.2426C79.715 22.8159 79.7725 22.2004 79.2746 22.0855C78.7986 21.9734 78.5169 22.5068 78.2242 22.8405C77.7427 23.3876 77.3926 24.0332 76.9795 24.6295C76.5665 25.2286 76.4926 25.8933 76.4625 26.5772C76.4434 26.9957 76.5938 27.2228 77.0862 27.0477C77.647 26.848 78.2324 26.7906 78.8315 26.7906C79.2035 26.7906 79.6521 27.2173 79.8874 26.8836C80.0871 26.5991 79.9749 26.0958 79.9968 25.6882C80.005 25.5514 79.9968 25.4146 79.9968 25.2779H79.9941Z" fill="white"/>
<path d="M2.52087 24.8291C2.48804 26.5224 2.5619 26.6072 4.17037 26.7221C4.26064 26.7275 4.35365 26.7412 4.44118 26.733C5.39314 26.6209 5.4752 26.5114 5.31654 25.5786C5.27825 25.3543 5.20986 25.1191 5.23995 24.903C5.45058 23.4668 4.5889 22.8459 3.42632 22.3918C2.99958 22.2249 2.80809 22.2441 2.73697 22.7282C2.63302 23.4285 2.5236 24.1233 2.51813 24.8318L2.52087 24.8291Z" fill="white"/>
<path d="M83.0254 26.5365C82.9762 25.5244 82.9187 24.7064 82.6561 23.9241C82.388 23.1335 82.1008 23.0816 81.54 23.7162C80.9054 24.4302 80.5033 25.2262 80.4841 26.2219C80.4595 27.5377 80.4212 27.5349 81.685 27.5897C81.7753 27.5924 81.8655 27.6006 81.9558 27.6088C82.6835 27.6726 83.04 27.3398 83.0254 26.6103C83.0254 26.5201 83.0254 26.4298 83.0254 26.5338V26.5365Z" fill="white"/>
</g>
<defs>
<clipPath id="clip0_3836_345">
<rect width="85" height="60" fill="white"/>
</clipPath>
</defs>
</svg>
