<svg width="85" height="61" viewBox="0 0 85 61" fill="none" xmlns="http://www.w3.org/2000/svg">
<g clip-path="url(#clip0_3836_177)">
<path d="M80.3602 29.4226C79.9125 30.0231 79.3602 29.8971 78.7972 29.6424C78.0412 29.2966 77.4058 28.7631 76.7275 28.2537C75.69 28.7604 75.0734 28.0044 74.3522 27.436C73.3308 28.4199 72.1511 28.1947 70.9956 27.7845C69.5399 27.2671 68.4728 26.2188 67.5452 25.0204C67.3978 24.8301 67.3066 24.5915 67.0198 24.4494C66.4862 25.1625 65.6793 25.3341 64.8509 25.4199C62.934 25.621 61.0198 25.6022 59.1163 25.2778C58.3227 25.1411 57.5452 24.9427 56.9313 24.4145C54.4809 25.7443 51.8106 26.1491 49.1431 26.5513C47.6873 26.7711 46.2181 26.8757 44.7409 26.8435C44.2047 26.8301 43.6712 26.7926 43.1431 26.688C42.186 26.5003 41.9313 26.2993 41.5801 25.4548C41.387 25.4548 41.4005 25.6317 41.3736 25.7363C41.2235 26.2939 40.8375 26.5164 40.2959 26.57C39.0224 26.696 37.7543 26.5942 36.4889 26.4869C33.6659 26.243 30.8643 25.8247 28.0171 25.3985C27.8589 25.9186 27.4353 26.1304 26.9527 26.2644C24.5988 26.9186 22.2074 27.3207 19.7597 27.318C19.001 27.318 18.253 27.2081 17.505 26.8569C17.1994 27.806 16.4192 28.2001 15.6015 28.5057C14.3066 28.991 12.9956 29.4306 11.6846 29.8649C11.0895 30.0633 10.7114 29.8864 10.4005 29.3368C10.3039 29.1652 10.2289 28.9802 10.1002 28.7121C9.46211 29.192 8.85353 29.6478 8.14844 30.1759C8.79187 30.4306 9.35487 30.6532 9.92592 30.881C10.1082 30.7684 10.2771 30.6666 10.4809 30.5432C11.5881 30.9025 12.3442 31.7952 13.253 32.4253C16.1189 31.3636 17.0546 31.8247 18.6739 34.1652C19.1055 33.7738 19.5372 33.369 19.9822 32.9802C20.8482 32.2215 21.3039 32.2001 22.2316 32.8837C22.8267 33.3234 23.3066 33.8837 23.7946 34.436C23.95 34.6103 24.0492 34.8703 24.3656 34.8596C24.6364 34.688 24.5694 34.3877 24.5801 34.1438C24.6096 33.5298 24.9366 33.2162 25.5077 33.0902C26.5023 32.8703 27.505 32.9266 28.505 33.0178C29.7248 33.1277 30.934 33.2993 32.1324 33.7095C32.4996 32.8328 33.2637 32.5271 34.0787 32.3261C35.808 31.8944 37.5613 31.8006 39.3227 32.0928C40.4005 32.2698 40.757 32.5325 41.186 33.4601C41.4353 32.2188 42.3656 32.0741 43.2959 31.9829C44.7919 31.8355 46.2852 31.8891 47.7463 32.2725C48.8991 32.5754 49.0895 32.8033 49.1431 33.9695C49.1726 34.5915 49.1458 35.2162 49.1431 35.8408C49.1431 36.1438 49.1806 36.3904 49.6551 36.2215C49.6123 35.5245 49.5988 34.8167 49.5157 34.117C49.4407 33.495 49.7329 33.1518 50.2476 32.9159C50.9313 32.6022 51.6632 32.5164 52.3978 32.4762C53.942 32.3877 55.4755 32.495 56.9956 32.7604C58.2557 32.9802 58.2557 32.9883 58.6525 34.2081C59.2798 33.1813 60.3013 32.9641 61.3495 32.8274C62.3978 32.6907 63.4407 32.7014 64.446 33.1116C64.8267 33.2671 65.0278 33.5834 65.1994 33.9266C65.3334 34.2001 65.4541 34.4816 65.6042 34.8113C65.9179 34.3904 66.1806 34.0044 66.4755 33.6478C68.245 31.5191 69.5372 31.377 71.6873 33.0741C72.1913 32.0901 72.9045 31.2778 73.7892 30.629C74.6766 29.9802 75.1056 30.0955 75.682 31.0285C75.9018 31.3851 76.0064 31.806 76.32 32.1438C76.7249 31.6639 77.0519 31.1572 77.4997 30.7497C78.312 30.0097 78.6176 29.999 79.438 30.7175C80.0305 30.436 80.6391 30.1572 81.312 30.0794C81.8428 30.0178 82.2637 30.1786 82.4273 30.7041C83.5935 34.4574 85.1458 38.1277 84.9849 42.1786C84.9045 44.1706 84.43 46.0151 83.0305 47.5191C82.2101 48.4011 81.1485 48.9373 80.0787 49.444C77.3844 50.7202 74.5291 51.5352 71.6417 52.2188C62.3817 54.4145 53.0037 55.5218 43.4675 55.4816C36.9366 55.4548 30.4541 55.0365 24.001 54.0875C18.5667 53.2885 13.1887 52.2269 7.96613 50.4869C6.75702 50.0848 5.59884 49.5647 4.45407 49.0097C1.81868 47.7282 0.523774 45.5486 0.236911 42.7095C-0.0311857 40.058 0.574712 37.5406 1.379 35.0339C1.9715 33.1813 2.86158 31.4708 3.67391 29.6746C3.19402 29.5915 2.76774 29.5218 2.37632 29.2725C1.45943 28.6934 1.05997 27.8703 1.03048 26.8113C0.998305 25.6639 1.16721 24.5432 1.45407 23.4387C1.55863 23.0392 1.50233 22.7229 1.32806 22.3609C0.488922 20.6103 -0.0499525 18.7792 0.00366686 16.8194C0.0814149 14.0821 1.27444 11.9829 3.68731 10.6451C6.07605 9.32339 8.70072 8.66924 11.3415 8.10087C17.8803 6.70141 24.5104 5.98827 31.1833 5.72286C38.5399 5.43063 45.9045 5.41455 53.2584 5.74162C60.5988 6.0687 67.8911 6.83814 75.0653 8.5057C76.8696 8.92661 78.6444 9.4494 80.3361 10.2269C84.0144 11.9159 85.6176 15.1652 84.7195 19.1036C84.5265 19.9534 84.2611 20.7845 83.8509 21.554C83.6283 21.9722 83.5854 22.377 83.6471 22.8355C83.8401 24.2966 83.9554 25.7631 83.8375 27.2349C83.7168 28.7121 82.4621 29.6987 80.9742 29.5271C80.7972 29.5057 80.623 29.4655 80.3602 29.4199V29.4226Z" fill="#6943DC"/>
<path d="M1.88468 35.1724C1.81497 35.2931 1.75599 35.3628 1.72918 35.4432C0.989234 37.6121 0.509341 39.8239 0.638028 42.1322C0.804248 45.0947 2.03749 47.3923 4.81765 48.7032C5.30023 48.9311 5.7828 49.1671 6.2761 49.3681C8.90344 50.4512 11.6327 51.2019 14.3994 51.8212C23.9222 53.9499 33.5469 55.0384 43.3244 55.0411C52.6139 55.0437 61.7506 54.0437 70.7855 51.9606C74.201 51.1724 77.563 50.2073 80.7211 48.6362C82.697 47.6523 83.9115 46.1161 84.3244 43.9499C84.9276 40.7998 84.2091 37.8051 83.2976 34.7917C82.1689 35.5129 81.638 34.4807 80.9035 34.0625C80.8069 34.2394 80.9303 34.3735 80.9705 34.5129C81.1501 35.1563 81.3378 35.7998 81.3592 36.4754C81.3914 37.4861 80.8391 37.8614 79.8981 37.4646C79.3807 37.2448 78.9383 36.9016 78.4825 36.5799C78.2225 36.3949 77.9919 36.151 77.571 36.0545C77.6595 36.4512 77.7345 36.7703 77.8016 37.092C77.9598 37.8561 78.1287 38.6201 78.0992 39.4057C78.067 40.2663 77.7238 40.5209 76.8847 40.3145C76.2922 40.1697 75.7667 39.8668 75.2788 39.5102C74.8579 39.2019 74.4531 38.8668 73.9839 38.4995C74.1528 39.4539 74.3217 40.3252 74.4557 41.1992C74.5442 41.773 74.5844 42.3547 74.4209 42.9231C74.2413 43.5451 73.882 43.7461 73.2573 43.5853C72.7774 43.462 72.3431 43.2287 71.9276 42.9687C69.8177 41.6416 68.1045 39.9124 66.7533 37.8239C66.6568 37.6738 66.6219 37.4539 66.3914 37.403C66.3217 37.6335 66.4316 37.8159 66.4745 38.0089C66.9758 40.344 67.3967 42.6872 67.4075 45.0866C67.4075 45.5772 67.3807 46.0679 67.2707 46.5478C67.0187 47.647 66.3136 47.9526 65.3351 47.3762C65.0884 47.2314 64.8606 47.0437 64.6434 46.8561C63.1876 45.6121 62.1421 44.025 60.9892 42.5209C59.9115 41.1134 59.319 39.5451 59.0884 37.8105C59.0375 37.4325 58.9624 37.0545 58.8793 36.5665C58.6541 36.915 58.7238 37.1617 58.7185 37.3949C58.6782 38.9579 58.5227 40.5102 58.1849 42.0384C57.9356 43.1751 57.5925 44.2823 56.9329 45.2582C55.8042 46.9338 53.9651 47.0893 52.5656 45.6309C52.0321 45.0759 51.6648 44.4164 51.3565 43.7193C50.7614 42.3628 50.4075 40.9365 50.1367 39.4915C49.9678 38.5987 49.8418 37.6979 49.6943 36.7944C49.4852 36.7381 49.319 36.6845 49.1394 36.8748C49.1233 37.0625 49.1018 37.2823 49.0831 37.5022C48.9088 39.5692 48.6461 41.6228 48.016 43.6121C47.7185 44.5531 47.3458 45.4593 46.6568 46.1939C45.6836 47.226 44.3619 47.2582 43.3351 46.2823C42.7587 45.7327 42.3914 45.0464 42.0992 44.3172C41.571 43.0062 41.2707 41.6389 41.0723 40.2448C41.0509 40.0866 41.075 39.9043 40.874 39.7301C40.7533 40.7301 40.6675 41.6577 40.5281 42.5746C40.319 43.9633 39.7292 45.1697 38.6541 46.1C37.1313 47.4218 35.4906 47.1805 34.3967 45.4968C34.0053 44.8936 33.7453 44.2314 33.5281 43.5504C32.9973 41.8936 32.5791 40.2073 32.2681 38.4941C32.2412 38.3413 32.2681 38.151 32.0509 38.0169C31.6595 39.3976 31.2412 40.7113 30.6568 41.966C30.0321 43.3092 29.319 44.5906 28.1528 45.5531C26.6273 46.8105 25.2681 46.4137 24.6782 44.5424C24.6112 44.3306 24.5549 44.1134 24.5067 43.8963C24.2171 42.5585 24.1742 41.2019 24.1742 39.84C24.1742 39.6201 24.2412 39.3815 24.0777 39.1188C23.9651 39.2877 23.8954 39.3976 23.8203 39.5075C22.2868 41.7327 20.6514 43.8722 18.7694 45.8159C18.3807 46.2153 17.9732 46.6041 17.4745 46.8641C16.9919 47.1161 16.6595 46.9874 16.4664 46.4807C16.3136 46.0813 16.2841 45.6577 16.2761 45.2314C16.2412 43.7113 16.4289 42.2073 16.6219 40.7033C16.7051 40.0437 16.7989 39.3869 16.8874 38.7301C15.9544 39.7274 15.1233 40.7435 14.2198 41.6952C13.7131 42.2314 13.1957 42.7542 12.5496 43.1268C11.6729 43.6309 11.1394 43.3574 11.0482 42.3467C10.949 41.2287 11.1045 40.1215 11.2815 39.0223C11.3753 38.4352 11.4799 37.8507 11.579 37.2663C11.3592 37.4298 11.2573 37.6255 11.1447 37.8132C10.7426 38.4915 10.2815 39.1108 9.58709 39.5263C8.28146 40.3118 7.59781 39.974 7.45304 38.4486C7.38334 37.722 7.44232 36.9955 7.49058 36.1965C7.19299 36.3949 6.96511 36.5665 6.72114 36.7086C6.10184 37.0759 5.45036 37.2287 4.73722 36.9821C4.25733 36.8185 4.05894 36.5236 4.15009 36.0169C4.19567 35.7703 4.3324 35.5209 4.20103 35.2019C3.41819 35.5317 2.64339 35.6577 1.882 35.1724H1.88468Z" fill="#936FFF"/>
<path d="M3.80675 22.5988C4.03464 22.1645 4.21158 21.7543 4.45018 21.3844C4.80943 20.8267 5.18477 20.749 5.75045 21.1055C6.08557 21.3173 6.38048 21.5854 6.73973 21.8643C6.95957 21.32 7.14724 20.8026 7.3778 20.3039C7.84965 19.2905 8.25984 19.2101 9.08289 19.9634C9.45019 20.2986 9.79871 20.6578 10.2169 21.0626C10.284 20.631 10.3376 20.261 10.3992 19.8937C10.6593 18.3093 10.9354 16.7302 11.4475 15.2047C12.0507 13.4031 12.847 13.2155 14.1928 14.5586C15.1285 15.4943 15.8631 16.5854 16.5681 17.698C16.8604 18.1618 17.1472 18.6283 17.4421 19.1002C17.5199 19.0332 17.5708 19.0117 17.5816 18.9769C17.6405 18.7624 17.6888 18.5452 17.7451 18.3307C18.1124 16.9313 18.7183 15.6471 19.7076 14.5774C20.9059 13.2771 22.2357 13.1994 23.603 14.3147C24.5816 15.1136 25.3054 16.1323 26.0159 17.1618C26.1312 17.3281 26.1687 17.5854 26.4824 17.6256C26.9006 16.6927 27.3644 15.7811 27.9354 14.9313C28.9569 13.4112 30.1714 12.0948 31.8362 11.261C35.0159 9.67122 38.0695 10.5291 39.9462 13.5318C40.3724 14.2155 40.7076 14.942 40.9971 15.6927C41.0561 15.8455 41.032 16.0626 41.292 16.1216C41.3966 15.6659 41.485 15.2101 41.6084 14.7624C42.0668 13.076 42.7746 11.5291 44.2169 10.4353C46.1955 8.93664 48.4261 8.81331 50.7183 9.41653C53.3617 10.1109 54.8738 12.0358 55.8952 14.4407C55.9944 14.6739 55.9998 14.9634 56.2786 15.1431C56.418 14.9313 56.5547 14.7302 56.6834 14.5264C57.469 13.2825 58.284 12.0573 59.2786 10.9634C60.6405 9.46479 61.292 9.46747 62.611 11.001C63.8362 12.4273 64.8014 14.0332 65.721 15.6659C65.8925 15.9715 65.9971 16.32 66.2732 16.5667C66.485 16.4326 66.5494 16.2074 66.6754 16.0251C67.6995 14.5399 68.8711 13.2074 70.5253 12.4004C71.4153 11.9661 71.7853 12.0975 72.2974 12.9366C72.906 13.9366 73.2598 15.0412 73.595 16.1511C73.8068 16.8482 73.9971 17.5533 74.1955 18.2449C75.2607 18.0555 76.1866 18.7481 76.973 20.3227C77.2277 20.2128 77.3537 19.9634 77.5467 19.7892C78.343 19.0653 78.7612 19.1055 79.3724 20.001C79.5467 20.2584 79.6995 20.5318 79.847 20.8053C80.0186 21.127 80.1741 21.4567 80.3564 21.8214C80.8765 21.3817 81.2947 20.9447 81.7987 20.6176C82.6915 20.0385 82.9596 20.1163 83.3912 21.0868C83.4019 21.1109 83.4582 21.1163 83.5387 21.1458C83.9408 20.3736 84.1794 19.5479 84.3537 18.698C85.0802 15.1592 83.5333 12.1511 80.2411 10.6685C77.7424 9.54254 75.1017 8.89374 72.4287 8.37363C64.7665 6.88302 57.0159 6.25835 49.225 6.00902C46.6164 5.92591 44.0051 6.08409 41.3992 6.03047C31.3537 5.82404 21.3858 6.51573 11.5253 8.51305C8.96493 9.03047 6.44482 9.71948 4.10166 10.9206C2.50112 11.7382 1.36707 12.9876 0.801391 14.698C-0.0538369 17.2878 0.664662 19.6927 1.68611 22.0734C1.96761 21.9661 1.95957 21.6525 2.32418 21.5881C2.91399 21.6015 3.24911 22.2101 3.81212 22.5988H3.80675Z" fill="#936FFF"/>
<path d="M41.7594 20.9926C41.6897 22.4215 41.7674 23.8371 42.0328 25.2473C42.1374 25.7996 42.4189 26.065 42.9202 26.1856C43.553 26.3411 44.1937 26.4028 44.8425 26.4081C47.4189 26.4296 49.9524 26.073 52.4618 25.5181C53.746 25.2339 55.0194 24.9095 56.1991 24.2955C56.6736 24.0489 56.9095 23.7298 56.8774 23.1347C56.8023 21.7567 56.7513 20.376 56.5744 19.006C56.317 17.0033 55.8264 15.0703 54.8264 13.2955C53.6441 11.2017 51.8988 9.92556 49.4859 9.60921C45.9792 9.15076 43.4296 10.7245 42.2875 14.0623C42.006 14.8853 41.8532 15.7406 41.7004 16.5958C41.435 18.0677 41.8425 19.5261 41.7621 20.9926H41.7594Z" fill="white"/>
<path d="M41.293 21.1927C41.293 20.635 41.3091 20.0801 41.2903 19.5251C41.2152 17.3133 40.5664 15.2758 39.3386 13.4366C37.9123 11.3053 35.915 10.5492 33.427 11.1551C32.301 11.4286 31.3037 11.9621 30.4458 12.7342C27.8319 15.0881 26.4351 18.0747 25.9284 21.5144C25.8265 22.198 25.7541 22.8844 25.8774 23.5734C26.0329 24.4447 26.2528 24.6753 27.1107 24.8039C29.1804 25.1149 31.2501 25.45 33.3252 25.7128C35.4914 25.9889 37.6603 26.2677 39.8506 26.182C40.7809 26.1444 40.8989 26.0372 41.0812 25.1176C41.3386 23.82 41.3305 22.5064 41.2903 21.1927H41.293Z" fill="white"/>
<path d="M57.2926 24.0906C57.6143 24.4364 58.0192 24.5785 58.4294 24.6777C60.7806 25.2353 63.1505 25.2407 65.5312 24.8707C66.2229 24.7635 66.6546 24.3452 66.8717 23.7125C67.3677 22.2595 67.5125 20.7313 66.9602 19.3184C65.8047 16.3613 64.2149 13.6241 62.1613 11.1871C61.1666 10.0074 60.7618 10.0235 59.7135 11.1576C58.4669 12.5061 57.491 14.0503 56.5339 15.608C56.3757 15.8654 56.4106 16.112 56.483 16.3774C57.1666 18.8922 57.2685 21.4686 57.2953 24.0959L57.2926 24.0906Z" fill="white"/>
<path d="M40.6239 36.7985C40.6239 35.8414 40.6239 34.8843 40.6239 33.9272C40.6239 32.9567 40.5006 32.7878 39.5354 32.5706C38.1226 32.2489 36.699 32.3052 35.2781 32.517C32.7178 32.8977 32.2513 33.4634 32.4336 36.0237C32.632 38.82 33.2915 41.5197 34.2271 44.1551C34.3585 44.5304 34.5515 44.8923 34.7633 45.2275C35.699 46.702 37.0502 46.9031 38.3692 45.761C39.4336 44.8387 39.951 43.6296 40.1333 42.2623C40.3773 40.45 40.4765 38.6269 40.6239 36.8012V36.7985Z" fill="white"/>
<path d="M27.4681 25.4521C27.3019 25.2054 27.0606 25.2242 26.8461 25.2001C26.1035 25.1116 25.6986 24.6799 25.5217 23.9802C25.4332 23.6317 25.4011 23.2805 25.3984 22.9212C25.3903 21.5271 25.6906 20.1813 26.074 18.8515C26.149 18.5942 26.2375 18.3556 26.0659 18.0875C25.267 16.822 24.4252 15.5888 23.2563 14.6263C22.1035 13.6773 21.1222 13.7443 20.0874 14.822C19.3314 15.6049 18.7764 16.5325 18.4627 17.5593C17.8032 19.7094 17.2509 21.8944 17.1303 24.1545C17.0204 26.2269 17.5807 26.822 19.6397 26.8676C22.0874 26.9212 24.4788 26.5084 26.8273 25.8408C27.0525 25.7765 27.3153 25.7443 27.4654 25.4494L27.4681 25.4521Z" fill="white"/>
<path d="M57.9575 33.4592C57.8315 33.4082 57.7323 33.3519 57.6277 33.3278C55.5875 32.8827 53.5312 32.7004 51.4508 32.9953C51.0513 33.0516 50.6652 33.1616 50.3087 33.36C50.0781 33.4886 49.936 33.6522 49.9548 33.9444C50.1693 37.1508 50.4829 40.3412 51.6974 43.3626C52.0057 44.1321 52.4079 44.8506 53.0164 45.435C54.1505 46.5181 55.5312 46.4002 56.4722 45.1374C57.0004 44.427 57.306 43.6146 57.5339 42.7728C58.2148 40.2742 58.373 37.7272 58.2336 35.1535C58.2041 34.6012 58.1853 34.0409 57.9575 33.4565V33.4592Z" fill="white"/>
<path d="M41.2972 36.9218C41.3187 38.8226 41.5117 40.702 41.9889 42.5465C42.257 43.584 42.5975 44.6001 43.2356 45.4822C44.257 46.8977 45.6913 46.8843 46.6806 45.4553C47.1954 44.7127 47.5064 43.8763 47.7369 43.013C48.5359 40.0183 48.7798 36.9647 48.7342 33.8763C48.7235 33.2194 48.4367 32.8977 47.8468 32.7368C46.1632 32.2811 44.4608 32.2194 42.7423 32.4875C42.0854 32.5894 41.7208 32.954 41.5814 33.6001C41.3428 34.6966 41.2919 35.8065 41.2972 36.9218Z" fill="white"/>
<path d="M67.3016 23.9194C67.9745 24.9865 68.7949 25.9114 69.8137 26.6594C70.3928 27.0857 71.0255 27.41 71.7333 27.5682C73.4303 27.9516 74.1542 27.4664 74.425 25.7398C74.6662 24.2036 74.4973 22.6755 74.2614 21.1554C73.862 18.5763 73.2775 16.0428 72.1676 13.6621C71.9906 13.284 71.8244 12.8873 71.4464 12.6487C71.0335 12.6004 70.693 12.7773 70.3713 12.9731C68.8566 13.9007 67.7065 15.1795 66.7976 16.6916C66.5644 17.0776 66.5885 17.4315 66.8083 17.8176C67.4598 18.9704 67.7199 20.2143 67.6743 21.5387C67.6475 22.3457 67.5215 23.1285 67.3016 23.9221V23.9194Z" fill="white"/>
<path d="M10.2984 25.1757C10.2984 25.7334 10.2742 26.1382 10.3037 26.535C10.3573 27.3125 10.3734 28.098 10.6496 28.8406C10.8935 29.4894 11.1161 29.5966 11.7648 29.3822C12.6951 29.0739 13.6281 28.7655 14.5557 28.4465C15.1455 28.2454 15.7354 28.0336 16.2715 27.7066C16.9257 27.3071 17.0651 27.0068 16.923 26.2696C16.7032 25.1221 16.6254 23.972 16.8292 22.8165C16.9766 21.9827 17.1214 21.1489 17.2957 20.3205C17.3493 20.0631 17.3413 19.854 17.2072 19.6234C16.3278 18.0953 15.3922 16.6047 14.2394 15.2642C13.9632 14.9425 13.6683 14.6369 13.3171 14.3956C12.7112 13.9773 12.411 14.0417 12.1214 14.7092C11.9096 15.1972 11.738 15.7092 11.604 16.224C10.8265 19.2106 10.4378 22.2562 10.2957 25.1757H10.2984Z" fill="white"/>
<path d="M66.9662 44.4082C66.8536 42.2447 66.5024 40.116 66.0198 38.0061C65.733 36.746 65.4247 35.494 64.9153 34.2983C64.7544 33.923 64.5694 33.5611 64.1378 33.4377C62.6499 33.0141 61.1834 33.0678 59.7625 33.7005C59.2531 33.9257 59.0654 34.3359 59.1539 34.9015C59.304 35.8694 59.3844 36.8479 59.5507 37.8131C59.7249 38.8426 59.8483 39.9042 60.422 40.8077C61.4971 42.4994 62.6525 44.1401 64.0064 45.6281C64.4113 46.0731 64.8402 46.4967 65.3389 46.8399C66.2799 47.4887 66.7276 47.2849 66.8992 46.1401C66.985 45.5637 66.9877 44.9873 66.9662 44.4082Z" fill="white"/>
<path d="M24.7266 39.5861C24.7266 40.5218 24.6837 41.4574 24.74 42.3877C24.7963 43.2966 24.933 44.2081 25.3593 45.0365C25.7561 45.8033 26.2708 45.9963 27.0751 45.68C27.9196 45.3475 28.5067 44.7121 29.0134 43.9936C30.2815 42.2027 30.9786 40.1625 31.5657 38.0741C31.8713 36.9963 32.0295 35.8998 31.9947 34.7765C31.9839 34.4226 31.9679 34.0714 31.5604 33.9722C29.6488 33.5003 27.7185 33.184 25.74 33.4655C25.2413 33.5352 25.0376 33.814 24.9893 34.318C24.8231 36.0687 24.6676 37.822 24.7266 39.5808V39.5861Z" fill="white"/>
<path d="M17.0283 46.4951C17.5484 46.3262 17.602 46.302 18.1034 45.8275C19.6101 44.3959 20.8192 42.7069 22.1436 41.117C23.3286 39.6961 24.0605 38.1412 24.1168 36.2833C24.1168 36.1948 24.1382 36.1063 24.1543 36.0179C24.2025 35.7605 24.1382 35.5433 23.9747 35.3342C23.3688 34.5621 22.7361 33.8141 21.9613 33.2028C21.2723 32.6586 20.9747 32.6479 20.3312 33.2538C18.8647 34.6345 17.6824 36.1546 17.4197 38.2752C17.1436 40.5272 16.7334 42.7632 16.72 45.042C16.7173 45.5406 16.6958 46.0634 17.0256 46.4951H17.0283Z" fill="white"/>
<path d="M73.8155 43.1347C74.0863 42.6146 74.1426 42.392 74.0756 41.762C73.8396 39.4885 73.2793 37.2902 72.4268 35.1722C72.0836 34.317 71.5903 33.5448 70.8638 32.9524C69.8343 32.1105 68.7887 32.1105 67.7646 32.947C67.3142 33.3143 66.9603 33.7754 66.5689 34.2044C66.0622 34.7593 66.0353 35.3143 66.3303 35.9738C67.7083 39.0301 69.9174 41.3089 72.8209 42.9389C73.1051 43.0998 73.4187 43.2526 73.8128 43.1373L73.8155 43.1347Z" fill="white"/>
<path d="M18.3284 34.5526C18.1836 34.2443 17.8914 33.9065 17.634 33.5446C16.7976 32.3569 15.6662 32.1183 14.3311 32.4883C13.5885 32.6921 13.0818 33.113 12.8727 33.8878C12.4839 35.3274 12.1407 36.7778 11.8727 38.2443C11.6475 39.4695 11.4276 40.6974 11.4651 41.9521C11.4759 42.2792 11.441 42.625 11.7332 42.869C12.0389 42.9521 12.2775 42.8127 12.4786 42.6438C15.0845 40.4803 17.1354 37.9038 18.3257 34.5526H18.3284Z" fill="white"/>
<path d="M74.7696 30.6406C73.9466 30.8551 73.4801 31.5012 72.9144 32.024C72.0994 32.7747 72.1262 33.5977 72.5873 34.4959C72.9359 35.1715 73.145 35.9007 73.4024 36.6111C74.0511 38.3859 75.4721 39.3189 77.1691 39.9221C77.2656 39.957 77.3836 39.9275 77.4774 39.9275C78.0565 38.4476 76.1852 31.9918 74.7696 30.6406Z" fill="white"/>
<path d="M10.0031 28.1853C9.77791 26.1639 9.88246 24.1907 10.0969 22.2202C10.1103 22.0915 10.1157 21.9306 10.0514 21.8341C9.54466 21.0834 9.00847 20.3569 8.2015 19.8984C6.33019 22.07 6.16665 28.5231 7.96557 29.7322C8.65994 29.2899 9.30338 28.7483 10.0031 28.1853Z" fill="white"/>
<path d="M76.948 27.8307C77.5164 28.3534 78.1249 28.7958 78.7898 29.1577C79.6719 29.635 79.9828 29.4902 80.1705 28.5197C80.4279 27.2033 80.3984 25.8682 80.4091 24.5331C80.4225 22.8789 79.7576 21.4687 78.8997 20.1229C78.7952 19.9567 78.6799 19.7824 78.4601 19.7422C77.4306 20.2543 77.1008 20.7663 77.2 21.8575C77.385 23.8575 77.4467 25.8467 76.9453 27.8307H76.948Z" fill="white"/>
<path d="M8.4527 39.5221C9.2275 39.3505 9.87093 38.8921 10.3401 38.2165C11.509 36.5328 12.1846 34.6293 12.7878 32.6535C12.0774 32.0261 11.375 31.4283 10.5975 31.0234C10.3294 31.1441 10.2516 31.3103 10.1658 31.4631C9.29184 32.9698 8.57066 34.5489 8.03179 36.2031C7.74493 37.0824 7.80927 38.0074 7.99426 38.9135C8.04251 39.1548 8.13903 39.3854 8.45538 39.5194L8.4527 39.5221Z" fill="white"/>
<path d="M6.83562 28.9791C6.59165 27.8585 6.18415 26.8344 6.16806 25.7298C6.1493 24.6145 6.42543 23.5314 6.57825 22.4617C6.12517 21.9845 5.75787 21.5019 5.12517 21.3438C4.79005 21.5529 4.63723 21.8773 4.50854 22.207C4.28066 22.7861 4.03133 23.3652 3.87852 23.9657C3.4442 25.6601 3.52195 27.3598 3.92409 29.0515C4.01793 29.451 4.25385 29.6601 4.69085 29.6172C5.42812 29.5448 6.13053 29.3679 6.84098 28.9765L6.83562 28.9791Z" fill="white"/>
<path d="M80.573 28.9127C81.7982 29.4703 83.2915 28.65 83.388 27.3738C83.5355 25.3872 83.3826 23.414 82.9859 21.4623C82.9296 21.1888 82.9162 20.8805 82.5864 20.6875C81.7848 21.0736 81.1521 21.6821 80.5703 22.3095C80.9966 24.5347 80.8867 26.7036 80.5757 28.9154L80.573 28.9127Z" fill="white"/>
<path d="M74.5891 27.0426C74.7848 27.2142 74.9483 27.3643 75.1172 27.5064C76.0636 28.2946 76.4711 28.1579 76.6937 26.9461C77.01 25.2222 76.9752 23.4877 76.7312 21.7584C76.5998 20.8308 76.4041 19.9113 75.8947 19.1016C75.4416 18.3831 75.0234 18.3322 74.2969 18.9113C74.5516 20.2276 74.8009 21.5627 74.8974 22.9166C74.9939 24.2759 74.9832 25.6298 74.5864 27.0399L74.5891 27.0426Z" fill="white"/>
<path d="M4.5625 36.3059C4.90566 36.6303 5.21934 36.6866 5.52765 36.6517C6.43649 36.5525 7.16036 36.0512 7.56518 35.2898C8.26491 33.9788 8.8306 32.6008 9.48207 31.1853C8.63757 30.8233 7.86009 30.4694 6.92175 30.4453C5.97001 32.3568 4.99682 34.2228 4.5625 36.3059Z" fill="white"/>
<path d="M80.6813 37.1319C81.2738 36.1882 79.7939 31.585 78.6036 30.6172C77.3998 30.955 76.6599 32.1721 76.9816 33.325C77.1425 33.9014 77.3516 34.4644 77.5553 35.0274C77.6465 35.2794 77.7778 35.5153 78.0057 35.6735C78.5875 36.081 79.1693 36.4885 79.7618 36.8799C80.0191 37.0488 80.298 37.2016 80.6813 37.1319Z" fill="white"/>
<path d="M5.9141 30.3628C5.38863 30.1617 4.89534 30.0625 4.38327 30.0625C4.11786 30.0625 3.91678 30.1644 3.8015 30.4244C3.27603 31.6014 2.6326 32.722 2.20365 33.9419C2.11518 34.1885 1.99453 34.4378 2.10981 34.7059C3.04279 35.3467 4.41276 34.9499 4.83367 33.9285C5.05351 33.3949 5.27335 32.8614 5.51196 32.336C5.79078 31.7167 5.83636 31.0598 5.9141 30.3654V30.3628Z" fill="white"/>
<path d="M3.46236 29.1081C3.05753 27.0625 3.08166 25.0759 3.583 23.1242C3.1889 22.6979 2.88595 22.2609 2.31222 22.0625C1.92616 23.0813 1.69828 24.0947 1.55619 25.1295C1.44895 25.9043 1.39265 26.6818 1.55351 27.4566C1.7385 28.3547 2.52938 29.0679 3.46504 29.1054L3.46236 29.1081Z" fill="white"/>
<path d="M82.7434 34.6996C82.8667 33.6674 82.6496 32.8336 82.4351 32.0025C81.9981 30.3108 81.5155 30.1097 79.9499 30.9542C79.8533 31.0052 79.7729 31.0803 79.6094 31.1982C80.5665 32.3966 81.0142 33.9918 82.7407 34.6996H82.7434Z" fill="white"/>
</g>
<defs>
<clipPath id="clip0_3836_177">
<rect width="85" height="60" fill="white" transform="translate(0 0.5)"/>
</clipPath>
</defs>
</svg>
