<svg width="85" height="60" viewBox="0 0 85 60" fill="none" xmlns="http://www.w3.org/2000/svg">
<g clip-path="url(#clip0_3836_314)">
<path d="M41.9168 53.8508C31.5636 53.9627 21.2691 53.3578 11.0811 51.4044C8.85861 50.978 6.67072 50.4131 4.55211 49.6003C4.28296 49.4963 4.01647 49.3897 3.75264 49.2698C0.797253 47.9294 -0.401957 45.7148 0.117701 42.5143C0.58406 39.6308 1.90053 37.1098 3.5048 34.7194C3.67269 34.4716 3.79528 34.2371 3.84058 33.9493C3.88322 33.6881 3.93652 33.4269 3.98982 33.1658C4.28029 31.7134 4.68269 30.3356 4.11773 28.7767C3.6034 27.3589 3.86723 25.7493 3.73665 24.2277C3.71267 23.9372 3.6114 23.7107 3.46749 23.4495C2.08974 20.9445 1.36221 18.3196 2.30293 15.4841C2.88388 13.7332 4.1204 12.5314 5.74866 11.7052C7.74201 10.6952 9.87394 10.0983 12.0405 9.60796C18.1352 8.2302 24.3231 7.56131 30.5483 7.20954C34.4684 6.98569 38.3912 7.03632 42.3139 7.00967C47.0841 6.97503 51.8463 7.02033 56.6005 7.3641C63.0842 7.83313 69.5333 8.56598 75.8358 10.2582C77.035 10.5807 78.2103 10.9831 79.3375 11.508C82.7912 13.1203 84.3742 16.2489 83.7479 19.9958C83.3642 22.2849 83.0897 24.5901 82.8232 26.8952C82.714 27.8413 82.3089 28.5182 81.4774 28.9579C80.9604 29.2324 80.4861 30.5248 80.7019 31.0658C80.7659 31.2284 80.8592 31.3936 80.8778 31.5615C81.0617 33.2964 81.8399 34.7834 82.6846 36.2757C83.8572 38.3464 84.726 40.5476 84.9605 42.9567C85.2376 45.8001 84.1663 47.8254 81.616 49.0833C78.8045 50.469 75.7665 51.1406 72.7125 51.6922C63.3241 53.3924 53.845 53.9921 44.3126 53.8535C43.5158 53.8428 42.7163 53.8535 41.9195 53.8535L41.9168 53.8508Z" fill="#6943DC"/>
<path d="M3.50404 35.4916C2.12895 37.7355 1.00968 39.9074 0.593957 42.3644C0.0263313 45.7329 1.15625 47.7129 4.31684 49.04C5.89713 49.7036 7.54138 50.1566 9.20428 50.5377C16.8206 52.2832 24.5702 52.9201 32.349 53.3012C36.0479 53.4824 39.7522 53.3519 43.4511 53.4105C52.9408 53.5624 62.3746 53.0214 71.7338 51.4278C74.9263 50.8842 78.0976 50.2073 81.0743 48.8801C83.6912 47.7156 84.7305 45.9834 84.512 43.1346C84.2962 40.3284 83.1103 37.8554 81.7192 35.465C81.7059 35.4437 81.6446 35.449 81.6046 35.4437C81.442 36.1792 81.9031 37.1652 80.9677 37.5862C80.0456 37.9993 79.5073 37.1412 78.7958 36.5869C78.8171 37.0666 78.8464 37.4317 78.8491 37.7968C78.8624 39.1745 77.7831 39.9074 76.48 39.4117C75.907 39.1932 75.4646 38.7881 75.0009 38.4097C74.7691 38.2232 74.5932 37.9327 74.2095 37.9513C74.1668 38.0526 74.1109 38.1485 74.0895 38.2525C73.6365 40.2778 70.9103 41.2585 69.1221 39.7422C68.1441 38.9107 67.0915 38.1805 66.6491 36.7521C66.3746 37.5409 66.1987 38.1805 65.9322 38.7828C65.4046 39.9793 64.7384 40.2352 63.5312 39.7395C62.4012 39.2731 61.4978 38.4817 60.669 37.6156C59.9682 36.8827 59.238 36.1499 59.0701 35.0706C59.0381 34.8627 58.9262 34.7001 58.6517 34.7641C58.4812 35.8567 58.3159 36.9493 58.1374 38.0366C58.0601 38.511 57.8629 38.9107 57.4365 39.1905C55.651 40.3524 52.645 39.2785 52.072 37.2478C51.8695 36.5309 51.7576 35.7874 51.6004 35.0386C51.3898 35.2118 51.4005 35.4516 51.3365 35.6568C50.9555 36.8614 50.5637 38.0606 49.9668 39.1799C49.6443 39.7848 49.2126 40.2698 48.557 40.5256C47.3871 40.984 46.1959 41.0773 44.9727 40.7602C44.0853 40.531 43.491 40.0113 43.2032 39.1319C42.9954 38.4976 42.8248 37.8581 42.7182 37.2025C42.593 36.427 42.4757 35.6515 42.3478 34.8387C42.0227 35.0333 42.1 35.3024 42.076 35.5236C41.9427 36.6695 41.7775 37.8074 41.3484 38.8894C41.1246 39.457 40.8155 39.966 40.2318 40.2352C38.5956 40.992 36.9087 41.1226 35.1818 40.5949C34.5476 40.4004 34.1212 40.0007 33.948 39.3291C33.7668 38.6309 33.5269 37.946 33.3057 37.2371C32.9273 37.3944 32.7621 37.7008 32.5249 37.9194C31.0166 39.3131 29.3297 39.9527 27.2857 39.2278C26.2837 38.8734 25.6068 38.2711 25.5082 37.1465C25.4922 36.9706 25.5135 36.7468 25.311 36.5869C24.7141 36.8934 24.3783 37.4503 24.0052 37.9593C23.2217 39.0333 22.2064 39.7075 20.8686 39.8727C19.4775 40.046 19.0911 39.8008 18.7553 38.4364C18.6141 37.8634 18.5102 37.2824 18.3822 36.6589C17.708 36.9094 17.239 37.3437 16.778 37.7808C16.1011 38.4204 15.4615 39.0972 14.7766 39.7262C13.8519 40.5763 12.7886 41.1226 11.4881 41.0959C10.177 41.0693 9.95845 40.8907 9.76125 39.6062C9.7426 39.4783 9.76125 39.3371 9.59603 39.2172C9.05771 39.2731 8.63932 39.6809 8.13832 39.8861C6.9098 40.3897 5.9451 39.7022 6.04637 38.3964C6.07834 37.9886 6.24357 37.5862 6.11832 37.1039C5.47075 37.3517 4.90845 37.8421 4.16227 37.4423C3.38145 37.0266 3.57066 36.3044 3.50138 35.4863L3.50404 35.4916Z" fill="#936FFF"/>
<path d="M83.1271 20.4402C84.1425 17.4262 82.7247 13.8179 80.0092 12.3495C78.6154 11.5954 77.1364 11.0597 75.6121 10.66C68.3928 8.7599 61.0057 8.07502 53.5839 7.61665C49.464 7.36349 45.3414 7.50206 41.2187 7.4461C31.7023 7.31552 22.2552 7.94977 12.9174 9.8685C10.3511 10.3962 7.80875 11.0437 5.51159 12.3602C3.73943 13.3755 2.64681 14.8919 2.38299 16.9598C2.14048 18.8732 2.62816 20.6481 3.39032 22.3723C3.45428 22.5162 3.45961 22.7374 3.71811 22.7454C3.84869 22.2097 3.89133 21.6527 4.11518 21.1411C4.4323 20.4189 4.7894 20.2323 5.53558 20.4935C6.07122 20.68 6.58022 20.9492 7.1212 21.189C7.27843 20.9465 7.41434 20.72 7.56357 20.5042C7.77943 20.187 8.03793 19.9152 8.41102 19.7873C9.10656 19.5501 9.60756 19.8406 10.0313 20.3709C10.5243 20.9918 10.8068 21.7354 11.2385 22.4975C11.5796 21.7433 11.9234 21.1038 12.451 20.5868C13.4557 19.5981 14.5989 19.5022 15.7555 20.315C16.3978 20.7653 16.9147 21.3436 17.3598 21.9859C17.7222 22.5082 18.0687 23.0438 18.4231 23.5795C18.6469 23.4356 18.6203 23.2144 18.6736 23.0332C18.9987 21.9805 19.5077 21.0318 20.2912 20.2457C21.8129 18.724 23.7716 18.6281 25.4318 19.9898C26.2819 20.688 26.9481 21.5408 27.5211 22.4709C27.8862 23.0651 28.2193 23.6807 28.619 24.3736C29.7943 20.9039 32.0541 18.9905 35.7503 19.0305C39.5025 19.0731 41.7411 21.0371 42.7591 24.5815C42.879 24.1258 42.9269 23.6941 43.0229 23.2757C43.5559 20.9146 44.6538 19.0065 47.1615 18.2923C50.1435 17.4448 53.6772 18.6227 55.5799 21.0745C56.3927 22.1244 56.9071 23.3183 57.2615 24.5868C57.3708 24.9785 57.4747 25.3756 57.5813 25.7807C57.6799 25.7327 57.7332 25.7247 57.7518 25.6954C57.8051 25.5995 57.8478 25.4982 57.8904 25.3943C58.9031 22.8999 60.7659 21.3596 63.3162 20.5974C64.4248 20.267 65.1043 20.5655 65.5814 21.6128C65.9624 22.4495 66.085 23.3503 66.1916 24.2564C66.2209 24.5015 66.1676 24.784 66.4101 24.9812C66.6953 24.8746 66.7539 24.6188 66.8685 24.4136C67.604 23.1238 68.3342 21.8286 69.3948 20.7653C70.8819 19.2783 72.8006 19.5341 73.8932 21.3436C74.0105 21.5381 74.0344 21.81 74.3143 21.9352C74.7193 21.317 75.1457 20.7253 75.772 20.3203C77.219 19.3849 77.9119 19.5714 78.4076 21.0505C78.4182 21.0798 78.4742 21.0958 78.5461 21.1411C78.9832 20.7467 79.4762 20.4189 80.1024 20.3736C80.8113 20.3229 81.1311 20.8559 81.4775 21.3543C81.9732 20.8826 82.4103 20.4242 83.1218 20.4402H83.1271Z" fill="#936FFF"/>
<path d="M35.8823 34.957C37.3667 34.957 38.851 34.9916 40.3354 34.949C42.0862 34.8957 42.8617 34.0189 42.7898 32.2761C42.7578 31.5032 42.7258 30.7277 42.6778 29.9549C42.5739 28.3 42.6992 26.6291 42.3314 24.9955C41.7691 22.5092 40.5353 20.5771 37.9583 19.775C36.7298 19.3939 35.4719 19.3646 34.2088 19.5778C31.352 20.0574 28.6764 23.1407 28.8443 25.7763C28.9136 26.845 28.8496 27.9029 28.6844 28.9529C28.5112 30.0748 28.3913 31.1914 28.5805 32.3187C28.8976 34.1975 29.6438 34.885 31.5598 34.949C32.9989 34.9943 34.4406 34.957 35.8797 34.9596L35.8823 34.957Z" fill="white"/>
<path d="M49.415 34.3551C50.0359 34.3151 51.2325 34.2512 52.4237 34.1659C53.4044 34.0966 54.3504 33.8887 55.2325 33.4304C56.485 32.7801 57.2392 31.7968 57.3511 30.3604C57.5323 28.0126 57.3138 25.7154 56.4397 23.5142C55.2991 20.6388 53.2338 18.9359 50.1079 18.5442C46.7234 18.1205 44.357 19.6981 43.5442 23.0026C43.4802 23.2611 43.4216 23.5196 43.387 23.7834C43.0858 25.9233 43.2644 28.0686 43.347 30.2112C43.387 31.2745 43.5176 32.3244 43.7627 33.3637C43.904 33.966 44.2344 34.2538 44.8607 34.3045C46.1878 34.4084 47.5149 34.4164 49.4177 34.3604L49.415 34.3551Z" fill="white"/>
<path d="M18.0625 31.3183C18.0812 31.6648 18.0812 32.243 18.1531 32.8107C18.2677 33.7354 18.5022 33.9859 19.4136 34.1778C21.359 34.5908 23.3177 34.6361 25.2977 34.4603C26.5476 34.351 27.2884 33.7567 27.5789 32.5415C27.944 31.0119 28.1625 29.4582 28.389 27.9046C28.8447 24.7813 27.3684 22.4682 25.2658 20.4535C23.7921 19.0437 22.0412 19.1397 20.5968 20.5707C19.7521 21.4049 19.2057 22.4255 19.0139 23.5821C18.6008 26.0711 18.1851 28.5601 18.0625 31.3183Z" fill="white"/>
<path d="M66.2501 29.4157C66.1675 27.4889 65.861 25.4103 65.6078 23.3263C65.5332 22.7134 65.3733 22.1085 65.0589 21.5648C64.795 21.1118 64.4353 20.824 63.8677 20.9039C60.7497 21.341 57.8316 24.6295 57.813 27.8247C57.8023 29.5489 57.9702 31.2731 58.338 32.9627C58.6125 34.2232 58.9669 34.535 60.2514 34.6948C61.6051 34.8627 62.9429 34.6735 64.286 34.527C65.296 34.4177 65.7651 33.8607 65.9783 32.9547C66.2394 31.8461 66.2687 30.7215 66.2474 29.4157H66.2501Z" fill="white"/>
<path d="M66.7894 28.1666C66.1605 30.1599 67.1145 31.559 68.6975 32.6889C68.9666 32.8808 69.2305 33.0887 69.473 33.3125C69.9153 33.7229 70.4083 33.7549 70.9547 33.571C71.7195 33.3152 72.391 32.8941 73.0813 32.4891C73.7608 32.0893 74.1339 31.5057 74.3018 30.7569C74.5203 29.7735 74.5629 28.7822 74.475 27.7855C74.3311 26.1546 74.1685 24.5263 73.9847 22.9007C73.9021 22.1812 73.5982 21.5416 73.0892 21.0113C72.1059 19.988 70.9067 19.9533 69.8727 20.9207C69.1718 21.5763 68.6388 22.3651 68.1139 23.1592C67.1198 24.6622 66.2617 26.1972 66.7921 28.1639L66.7894 28.1666Z" fill="white"/>
<path d="M10.6756 28.8253C10.537 29.8886 10.9127 31.2744 12.1866 32.4496C13.8601 33.9872 14.9101 34.1365 16.7676 32.8253C16.8582 32.7614 16.9434 32.6894 17.0314 32.6255C17.4498 32.3163 17.6203 31.9273 17.6496 31.3836C17.7642 29.1771 17.7749 26.9545 18.3052 24.788C18.3345 24.6681 18.3505 24.5082 18.2972 24.4069C17.5644 23.0105 16.8102 21.6221 15.4937 20.6707C14.521 19.9672 13.5936 20.0631 12.7462 20.9212C12.1253 21.5501 11.7549 22.3309 11.4804 23.1544C10.9261 24.8093 10.8301 26.5362 10.6702 28.828L10.6756 28.8253Z" fill="white"/>
<path d="M11.1282 32.0261C10.6805 34.4432 10.1902 36.7616 10.1875 39.1387C10.1875 40.5245 10.5366 40.8043 11.9197 40.6524C12.0503 40.6391 12.1809 40.6098 12.3114 40.5831C13.4067 40.3673 14.2142 39.6797 14.9817 38.9362C15.9011 38.0461 16.7352 37.0575 17.8491 36.3832C17.9877 36.3006 18.081 36.1887 18.1103 36.0208C18.3181 34.8722 18.2089 33.7796 17.5853 32.759C15.4187 34.2486 14.009 35.24 11.1282 32.0234V32.0261Z" fill="white"/>
<path d="M67.0848 31.8516C67.0048 32.8962 66.9409 33.8662 66.8556 34.8309C66.8263 35.1667 66.8556 35.4892 66.8982 35.8196C67.1381 37.6557 68.3719 38.735 69.8163 39.6384C71.2367 40.5285 73.0302 39.9609 73.5845 38.3833C74.2587 36.4672 74.2054 34.4765 74.0242 32.4032C73.7684 32.5631 73.5845 32.675 73.4033 32.7896C72.7104 33.2293 72.0069 33.645 71.2314 33.9302C70.4585 34.2153 69.779 34.1727 69.1394 33.5811C68.5105 32.9975 67.8256 32.4698 67.0874 31.8516H67.0848Z" fill="white"/>
<path d="M51.1132 34.774C50.7535 34.6514 50.4443 34.7233 50.1379 34.742C48.6988 34.8193 47.2624 34.8539 45.8234 34.7846C44.7308 34.7313 43.5049 34.8699 43.2437 33.2656C43.0892 33.7533 42.7694 34.0997 42.8174 34.5688C42.9426 35.8 43.0812 37.0311 43.4036 38.2304C43.87 39.9679 44.4563 40.4449 46.2551 40.4929C46.6708 40.5035 47.0945 40.4502 47.5076 40.3809C48.5362 40.2104 49.2824 39.6774 49.7275 38.6967C50.2951 37.4442 50.7481 36.1597 51.1106 34.774H51.1132Z" fill="white"/>
<path d="M6.72576 26.631C6.70977 27.3799 6.70178 28.2886 6.92829 29.176C7.19478 30.2073 8.08486 31.0068 9.06022 31.1081C9.73444 31.1774 10.3634 30.5857 10.3234 29.9169C10.2008 27.7823 10.4433 25.6796 10.8937 23.5983C10.9363 23.4011 10.9896 23.2093 10.9123 23.0121C10.5766 22.1673 10.2328 21.3252 9.65983 20.6083C9.16149 19.9874 8.5379 19.9821 8.04756 20.6083C7.6185 21.152 7.33602 21.7756 7.19478 22.4604C6.91763 23.7849 6.79505 25.128 6.72576 26.6337V26.631Z" fill="white"/>
<path d="M33.3672 35.4396C33.6737 36.8946 34.0494 38.2297 34.5078 39.5409C34.609 39.834 34.8729 39.9992 35.142 40.0925C36.8849 40.6948 38.5824 40.5722 40.216 39.7168C40.3652 39.6395 40.5065 39.4982 40.5944 39.3543C41.3593 38.0885 41.4925 36.6708 41.6577 35.2344C38.8702 35.5115 36.168 35.373 33.3672 35.4422V35.4396Z" fill="white"/>
<path d="M78.2376 25.1428C78.2376 24.37 78.2669 23.5945 78.2296 22.8243C78.195 22.1181 78.091 21.4119 77.7979 20.7563C77.6593 20.4499 77.4888 20.1647 77.065 20.2074C75.8338 20.33 74.3761 22.1741 74.4907 23.4159C74.6426 25.0655 74.9864 26.7124 74.9038 28.3673C74.8398 29.6385 75.4634 30.2887 76.4761 30.7711C77.4355 31.2294 77.6753 31.1255 77.8698 30.0915C78.1763 28.4579 78.2856 26.803 78.2376 25.1428Z" fill="white"/>
<path d="M52.0495 34.6545C52.1668 35.3633 52.2414 35.9763 52.372 36.5785C52.8197 38.6598 54.7491 39.7178 56.7798 39.0089C57.1688 38.873 57.5313 38.6865 57.6325 38.2468C58.1389 36.0562 58.4906 33.8656 57.5526 31.6484C56.452 33.887 54.3813 34.4199 52.0469 34.6545H52.0495Z" fill="white"/>
<path d="M25.6875 34.8074C25.7435 35.8548 25.8634 36.7715 26.1032 37.6722C26.1725 37.9361 26.2898 38.1626 26.5296 38.3198C27.4117 38.8981 28.3657 39.1966 29.429 39.0447C30.8787 38.8395 31.9047 37.9627 32.8534 36.9261C33.2425 36.4997 33.0666 36.1133 32.96 35.6975C32.8481 35.2552 32.4644 35.431 32.1846 35.3937C31.9873 35.3671 31.7875 35.3804 31.5876 35.3724C29.5116 35.2951 28.6775 34.6182 28.1925 32.6169C28.1872 32.5902 28.1286 32.5796 28.0193 32.5156C27.7342 33.7521 27.1452 34.7142 25.6875 34.8074Z" fill="white"/>
<path d="M74.8421 30.1667C74.8048 30.9475 74.3731 31.4912 74.4371 32.1574C74.5943 33.767 74.6076 35.3766 74.3651 36.9809C74.3385 37.1515 74.2665 37.3433 74.4451 37.4712C75.122 37.9643 75.7669 38.5186 76.4971 38.9183C77.5417 39.4886 78.4504 38.8863 78.4025 37.7058C78.3225 35.7071 77.8402 33.775 77.4005 31.835C77.3605 31.6537 77.2885 31.5098 77.0833 31.4565C76.2785 31.2434 75.5963 30.8036 74.8421 30.1641V30.1667Z" fill="white"/>
<path d="M8.05084 31.3232C7.4539 33.679 6.79834 35.9735 6.51052 38.3506C6.46789 38.7103 6.35063 39.1047 6.7477 39.3792C7.18208 39.6777 7.61913 39.659 8.06417 39.4245C8.60781 39.1394 9.14079 38.8276 9.74573 38.625C9.86831 36.2906 10.2894 34.0307 10.7424 31.7762C10.8117 31.4324 10.6465 31.2059 10.4546 30.9688C9.81324 31.4289 9.01199 31.547 8.05084 31.3232Z" fill="white"/>
<path d="M18.6902 34.4609C18.7754 36.0226 18.8847 37.467 19.3617 38.8607C19.519 39.3191 19.8014 39.5136 20.3104 39.4843C21.6456 39.4017 22.7488 38.914 23.5536 37.8134C23.9187 37.3151 24.2278 36.7341 24.7635 36.4196C25.4111 36.0412 25.4137 35.5722 25.1712 34.922C23.0366 35.0499 20.9047 34.9753 18.6875 34.4609H18.6902Z" fill="white"/>
<path d="M59.5939 35.0287C59.5619 35.3431 59.6285 35.5536 59.7538 35.7402C60.7505 37.2405 61.987 38.493 63.6259 39.2819C64.6546 39.7775 65.1662 39.5537 65.6006 38.4877C66.1496 37.1419 66.3441 35.7162 66.4854 34.2798C66.5227 33.8827 66.5333 33.4857 66.5546 33.0859C66.3841 33.1925 66.3308 33.3098 66.2908 33.4324C66.0057 34.3198 65.4327 34.8128 64.4707 34.9247C62.8637 35.1113 61.2648 35.3271 59.5939 35.0287Z" fill="white"/>
<path d="M78.6433 26.0146C78.6433 27.0752 78.6433 28.1385 78.6433 29.1992C78.6433 29.5962 78.6113 30.0013 78.7925 30.3744C78.9684 30.7368 79.1603 31.1126 79.6373 31.1152C80.165 31.1206 80.1809 30.6542 80.2715 30.3131C80.8338 28.1865 81.1217 26.0119 81.3135 23.8294C81.3881 22.9873 81.2522 22.1478 80.9111 21.359C80.7006 20.8713 80.3115 20.6928 79.8265 20.874C79.3415 21.0525 78.7286 21.2178 78.7899 21.8973C78.9124 23.2724 78.7659 24.6422 78.6406 26.0119L78.6433 26.0146Z" fill="white"/>
<path d="M4.20679 25.1661C4.27607 26.1787 4.32937 27.1941 4.41731 28.2067C4.47328 28.8223 4.57188 29.4379 4.87834 29.9896C5.04357 30.2854 5.2994 30.5199 5.62985 30.304C5.99228 30.0642 6.66383 30.0482 6.52259 29.35C6.07755 27.1408 6.33072 24.9502 6.69848 22.765C6.90634 21.5311 6.92766 21.5338 5.77908 21.0381C4.87301 20.6464 4.63584 20.761 4.38267 21.739C4.09219 22.8689 4.10552 24.0148 4.20412 25.1634L4.20679 25.1661Z" fill="white"/>
<path d="M4.95429 30.7917C4.54923 32.5319 4.15216 34.2241 3.9896 35.9643C3.93896 36.5186 4.01092 36.9956 4.65849 37.1369C5.06089 37.2221 6.33738 36.5639 6.41733 36.2361C6.79841 34.6718 7.15551 33.1022 7.56324 31.5432C7.69382 31.0475 7.43533 30.813 7.1182 30.5492C6.80108 30.2854 6.51593 30.2587 6.17216 30.5119C5.83105 30.7624 5.43131 30.8876 4.95429 30.7944V30.7917Z" fill="white"/>
<path d="M78.3495 30.4714C77.8965 31.055 77.7073 31.5774 77.9284 32.2756C78.1816 33.0724 78.3841 33.9065 78.4428 34.7353C78.5201 35.8599 79.3062 36.4248 80.0444 37.0244C80.588 37.4641 81.0544 37.2563 81.1024 36.5767C81.2223 34.8152 80.7826 33.131 80.3935 31.3535C79.3435 31.8305 78.7572 31.3482 78.3495 30.4688V30.4714Z" fill="white"/>
<path d="M82.9821 20.9219C82.084 21.1804 81.615 21.6707 81.6869 22.4329C81.8655 24.3143 81.4444 26.1344 81.2126 27.9759C81.1886 28.1571 81.066 28.357 81.2819 28.5542C81.9454 28.2584 82.2866 27.7414 82.3798 27.0325C82.545 25.7587 82.7263 24.4875 82.8808 23.2137C82.9714 22.4729 83.1313 21.732 82.9821 20.9219Z" fill="white"/>
</g>
<defs>
<clipPath id="clip0_3836_314">
<rect width="85" height="60" fill="white"/>
</clipPath>
</defs>
</svg>
