<svg width="85" height="60" viewBox="0 0 85 60" fill="none" xmlns="http://www.w3.org/2000/svg">
<path d="M80.1464 30.0389C80.0856 30.7319 80.1834 31.3746 80.0194 32.0041C79.8184 32.7685 79.4481 32.9272 78.771 32.496C78.5118 32.3321 78.2817 32.1258 78.041 31.9406C77.3639 32.2104 77.1629 32.1654 76.6445 31.6444C76.1102 31.1075 75.769 30.4356 75.3644 29.7956C73.2511 29.6713 71.7435 28.3197 70.0666 27.193C69.2784 27.5976 68.4135 27.3808 67.5671 27.3384C65.7606 27.2459 63.97 27.0131 62.2085 26.582C61.8673 26.4974 61.5314 26.381 61.1955 26.2831C60.2169 25.9975 59.7408 25.3574 59.6218 24.3285C59.4287 22.6569 59.4551 20.9906 59.5424 19.2979C59.0769 19.1021 58.6035 19.1312 58.0639 19.0783C58.1274 19.9379 58.1909 20.742 58.2464 21.5487C58.3628 23.1991 58.3972 24.8496 58.3284 26.5026C58.2834 27.5791 57.8311 28.2589 56.7864 28.6133C55.329 29.1105 53.8294 29.3195 52.3085 29.3856C50.227 29.4755 48.1825 29.2058 46.1538 28.7032C44.379 28.2615 43.5036 27.0819 43.1465 25.4024C42.8238 23.8736 42.8873 22.3342 43.0566 20.7949C43.1095 20.3188 43.1783 19.8427 43.2497 19.2846C42.5831 19.3402 41.9801 19.2952 41.4088 19.1683C41.1787 19.4169 41.2739 19.6708 41.2765 19.9009C41.2871 21.6651 41.3056 23.4266 41.1205 25.1855C41.0702 25.6668 40.975 26.1429 40.8904 26.619C40.7529 27.3887 40.2635 27.8066 39.5626 28.0235C38.6078 28.3197 37.616 28.407 36.6241 28.4255C34.5531 28.4678 32.4795 28.4572 30.4138 28.2985C29.2712 28.2113 28.4196 27.6638 27.8641 26.6613C27.4171 25.852 27.2531 24.9659 27.2082 24.0587C27.1394 22.6463 27.2293 21.2419 27.4251 19.8401C27.4568 19.6047 27.5176 19.364 27.4171 19.081C26.9225 19.0175 26.4464 19.1709 25.9809 19.2317C25.7931 19.4804 25.8725 19.7316 25.8672 19.9644C25.8355 21.4059 25.5789 22.8077 25.1689 24.1883C24.8939 25.1141 24.312 25.6933 23.4497 26.0583C22.0374 26.656 20.5403 26.9232 19.0459 27.1983C18.9587 27.2141 18.8687 27.2115 18.7841 27.2326C18.0329 27.4231 17.3029 27.4998 16.6893 26.7857C16.3561 27.3279 16.0625 27.8145 15.7583 28.2933C15.2743 29.0576 14.7559 29.7956 14.1925 30.5044C13.5683 31.2926 13.317 31.3429 12.4759 30.8218C11.4286 31.1207 10.6007 32.0967 9.32055 31.8851C9.07721 32.1178 8.95555 32.4855 8.72015 32.7711C8.36044 33.2049 7.97692 33.5831 7.3633 33.6122C6.87134 33.636 6.51692 33.4614 6.30004 33.0012C5.9562 32.2739 5.80015 31.4936 5.69964 30.7107C5.64939 30.3193 5.50392 30.0786 5.18653 29.8591C3.69479 28.8222 2.33 27.6426 1.25881 26.1588C0.486491 25.0797 -0.113908 23.9186 0.0183386 22.5458C0.113556 21.5566 0.423012 20.6097 0.793302 19.6867C2.10783 16.4149 4.26609 13.7832 6.97185 11.5747C10.6668 8.55946 14.9278 6.64189 19.44 5.2295C24.2961 3.70867 29.2871 2.8808 34.3468 2.4391C37.7509 2.14287 41.1575 1.90218 44.5774 2.03972C48.7405 2.20635 52.8851 2.55812 57.0033 3.23258C61.3463 3.94407 65.5834 5.01262 69.6593 6.68421C72.8147 7.98022 75.7823 9.61214 78.3902 11.8339C81.2229 14.2487 83.4102 17.1105 84.6243 20.6917C85.3384 22.8024 85.0183 24.6591 83.7382 26.4339C82.8125 27.7167 81.6725 28.7773 80.4638 29.7744C80.3633 29.8591 80.2601 29.941 80.1437 30.0389H80.1464Z" fill="#6943DC"/>
<path d="M80.0753 29.4175C80.234 29.3408 80.3186 29.317 80.3847 29.2641C81.7337 28.1823 82.945 26.9709 83.839 25.4739C84.6246 24.1567 84.8203 22.7761 84.3654 21.2843C83.9528 19.9275 83.4158 18.6341 82.6726 17.4254C80.7894 14.3626 78.2371 11.9715 75.2351 10.0381C71.3973 7.56245 67.1813 5.99665 62.7828 4.86198C58.6778 3.80136 54.5015 3.156 50.2828 2.79365C47.5401 2.55825 44.7893 2.35988 42.0333 2.40484C38.0659 2.47097 34.1118 2.75397 30.1814 3.3147C24.7963 4.08437 19.525 5.27988 14.5314 7.50426C11.7013 8.76589 9.03521 10.3052 6.70239 12.3656C4.08656 14.6747 2.01294 17.3566 0.841233 20.7024C0.180001 22.5962 0.381016 24.2731 1.58975 25.8653C2.27214 26.7673 3.03123 27.5872 3.89877 28.3066C4.38543 28.7086 4.83772 29.1583 5.43547 29.4439C5.53069 29.2614 5.50688 29.1107 5.48837 28.9625C5.34554 27.8226 5.38257 26.6747 5.37993 25.5294C5.37993 25.2226 5.37993 24.9105 5.42225 24.6064C5.50953 23.9636 5.8375 23.7838 6.44319 23.9954C6.64156 24.0641 6.79496 24.2757 7.06474 24.199C7.10971 23.9002 7.15996 23.596 7.20228 23.2918C7.30279 22.5698 7.4509 21.8583 7.70482 21.1759C8.07246 20.1814 8.56442 20.0491 9.3817 20.7077C9.46369 20.7739 9.51924 20.8876 9.69909 20.84C9.69909 20.5305 9.69909 20.2078 9.69909 19.8878C9.6938 18.6315 9.69909 17.3725 10.0033 16.1426C10.2413 15.1851 10.728 14.881 11.7013 15.0264C12.4366 15.1349 13.0846 15.4681 13.7062 15.849C14.3383 16.2378 14.9466 16.6663 15.6052 17.1001C15.8168 16.4256 16.002 15.7749 16.2268 15.1402C16.56 14.1986 17.0017 13.3152 17.7582 12.6275C18.512 11.9398 19.3742 11.7758 20.3343 12.0959C20.9083 12.2889 21.395 12.6248 21.834 13.0348C23.5638 14.6482 24.7725 16.6319 25.9204 18.7426C26.4018 18.769 26.9308 18.6473 27.4386 18.5495C27.5814 18.3405 27.5709 18.1369 27.5761 17.9411C27.5894 17.1662 27.7163 16.4071 27.8724 15.6506C28.6579 11.8366 31.6282 9.52234 35.4686 9.726C37.0847 9.81064 38.3886 10.5036 39.3699 11.7811C40.4807 13.2252 40.9383 14.9153 41.1261 16.6927C41.1975 17.3645 41.2398 18.039 41.2954 18.7082C42.028 18.8087 42.6893 19.0758 43.3558 18.6738C43.4113 18.4305 43.4616 18.1924 43.5145 17.957C43.9853 15.9178 44.5751 13.9156 45.3686 11.9715C45.8499 10.7945 46.6778 10.0513 47.8918 9.75509C50.4124 9.14411 52.8405 9.40067 55.1125 10.6808C56.2154 11.3024 56.9533 12.2281 57.2231 13.503C57.4506 14.5821 57.6225 15.6665 57.7839 16.7562C57.8738 17.3593 57.8632 17.9782 58.0642 18.605C58.6091 18.613 59.1063 18.8325 59.6723 18.7346C60.0691 17.7269 60.4446 16.7192 60.8599 15.7273C61.2857 14.709 61.775 13.7225 62.513 12.884C63.5233 11.7361 64.6157 11.5774 65.8244 12.5164C67.697 13.9685 68.718 15.9627 69.2761 18.2268C69.3104 18.3696 69.2628 18.5415 69.4268 18.6526C69.6384 18.5495 69.7019 18.3299 69.805 18.1474C70.2097 17.4386 70.6117 16.7298 71.0006 16.0156C71.3074 15.447 71.6829 14.9365 72.1775 14.516C73.6032 13.2993 75.1954 13.7066 75.8619 15.4655C76.137 16.1902 76.301 16.944 76.4068 17.7084C76.5179 18.531 76.6157 19.3562 76.7215 20.1946C76.8564 20.1867 76.9463 20.1946 77.0283 20.1735C78.3905 19.827 78.9274 20.3665 78.9935 21.5991C79.0596 22.8343 79.0041 24.0668 78.9565 25.2993C78.9486 25.4977 78.9062 25.6961 79.0094 25.8812C79.6019 26.9577 79.8849 28.1294 80.07 29.4201L80.0753 29.4175Z" fill="#936FFF"/>
<path d="M57.9568 23.3098C57.8061 20.239 57.4887 17.0889 56.8989 13.9626C56.5947 12.3466 55.6743 11.3177 54.2275 10.6935C52.4236 9.91325 50.5458 9.66727 48.6044 10.0111C47.2343 10.2544 46.2477 10.9263 45.6923 12.2857C44.7137 14.6873 44.0498 17.1656 43.624 19.7127C43.3277 21.4795 43.1876 23.2543 43.4864 25.0369C43.7721 26.7482 44.6185 27.9199 46.417 28.359C48.7816 28.9356 51.1594 29.081 53.5663 28.8774C54.6824 28.7822 55.7906 28.5785 56.8407 28.1447C57.4649 27.8882 57.8299 27.4888 57.896 26.7747C58.0018 25.6506 57.9833 24.5318 57.9542 23.3072L57.9568 23.3098Z" fill="white"/>
<path d="M40.9075 20.6888C40.9339 19.8319 40.8652 18.6893 40.799 17.544C40.6932 15.719 40.3097 13.9681 39.302 12.3996C38.4768 11.1142 37.3024 10.3525 35.8028 10.1647C34.5861 10.0139 33.3879 10.1673 32.248 10.6751C29.8755 11.7305 28.6826 13.648 28.2065 16.1105C27.9632 17.3695 27.95 18.6522 27.8072 19.9218C27.6352 21.4532 27.4633 22.9873 27.6537 24.5346C27.9632 27.0605 29.1931 27.9941 31.3328 27.9835C32.6765 27.9783 34.0201 28.0417 35.3637 28.0417C36.5539 28.0417 37.7468 28.0285 38.9158 27.7746C40.1325 27.5101 40.4102 27.2059 40.6112 25.9919C40.6377 25.8412 40.6562 25.6877 40.6747 25.5343C40.8599 24.0214 40.9048 22.5033 40.9075 20.6915V20.6888Z" fill="white"/>
<path d="M59.844 21.5861C59.8598 22.2976 59.8889 23.0011 59.9736 23.702C60.1852 25.4609 60.1164 25.5931 62.1001 26.1195C64.3218 26.7093 66.6017 26.9473 68.8975 26.9923C69.773 27.0082 70.1274 26.6829 70.2147 25.7995C70.2782 25.1594 70.2332 24.522 70.1301 23.8898C69.7889 21.8215 69.2202 19.806 68.723 17.7747C68.2813 15.9735 67.3238 14.4025 65.9458 13.1276C64.7133 11.9876 63.6791 12.0776 62.6476 13.4053C62.6344 13.4238 62.6211 13.4397 62.6079 13.4582C61.0606 15.955 59.8254 18.5576 59.844 21.5834V21.5861Z" fill="white"/>
<path d="M15.8386 19.3219C15.8254 20.4275 16.0052 21.5172 16.1639 22.6043C16.3226 23.6914 16.5263 24.7758 16.7484 25.8523C16.9283 26.7304 17.452 27.0557 18.3301 26.897C18.957 26.7833 19.5891 26.6881 20.2133 26.5611C21.3771 26.3257 22.5382 26.0718 23.6094 25.5243C24.1463 25.2492 24.5192 24.8445 24.7123 24.2706C25.2175 22.7762 25.4741 21.2422 25.4529 19.6658C25.445 19.0945 25.4132 18.5099 25.0905 18.0074C24.3923 16.9151 23.7178 15.8015 22.8979 14.7912C22.2181 13.9527 21.5119 13.1302 20.5254 12.6276C19.5944 12.1568 18.8009 12.2706 18.0365 12.9768C17.5922 13.3841 17.2536 13.8734 16.9997 14.4156C16.2776 15.9708 15.8412 17.5948 15.8359 19.3219H15.8386Z" fill="white"/>
<path d="M75.2191 29.3767C75.547 28.9006 75.6634 28.4509 75.7507 28.0013C76.4833 24.3169 76.5706 20.622 75.8512 16.9244C75.7428 16.3636 75.6079 15.8056 75.3381 15.2924C74.7483 14.1631 73.73 13.9197 72.6958 14.6497C72.1801 15.0121 71.8018 15.4961 71.4924 16.033C70.8999 17.0619 70.318 18.0987 69.7229 19.1276C69.5827 19.3709 69.5378 19.5931 69.6171 19.8761C69.8234 20.6167 70.0244 21.3625 70.1778 22.1137C70.4926 23.6583 70.9502 25.203 70.363 26.8428C71.86 27.9458 73.283 29.1519 75.2164 29.374L75.2191 29.3767Z" fill="white"/>
<path d="M13.2555 30.756C13.4777 30.719 13.602 30.5576 13.7263 30.4069C14.6944 29.2325 15.5222 27.963 16.2707 26.6378C16.403 26.4051 16.3977 26.1803 16.3501 25.9396C15.8105 23.1756 15.2948 20.409 15.3979 17.5446C14.377 16.7617 13.3454 16.0211 12.1367 15.5688C11.9727 15.508 11.8008 15.4604 11.6289 15.4339C10.9544 15.3281 10.6397 15.5159 10.4334 16.1639C10.2588 16.7114 10.198 17.2801 10.1662 17.854C10.0419 20.1234 10.2165 22.3795 10.4519 24.6356C10.6661 26.6907 11.5231 28.4708 12.5837 30.1873C12.7424 30.4439 12.9011 30.7269 13.2555 30.7586V30.756Z" fill="white"/>
<path d="M8.59916 20.7266C8.29764 20.8376 8.19714 21.0413 8.12308 21.2476C7.59145 22.7579 7.33753 24.3237 7.4883 25.9133C7.63377 27.4764 8.19978 28.947 8.77373 30.4017C8.9192 30.772 9.14402 31.1 9.45083 31.3645C9.62804 31.5152 9.81583 31.6104 10.0539 31.5099C10.7389 31.2216 11.3975 30.8831 12.0561 30.5075C11.9662 29.7563 11.5747 29.185 11.2388 28.6058C10.7336 27.7356 10.4321 26.8099 10.2602 25.826C10.0883 24.85 10.0063 23.8634 9.86079 22.8875C9.73119 22.0146 9.54869 21.1445 8.59652 20.7266H8.59916Z" fill="white"/>
<path d="M77.4725 31.7476C77.7846 31.4487 77.774 31.1445 77.8137 30.8721C78.0094 29.5443 78.2025 28.2166 78.3691 26.8862C78.6018 25.0268 78.7526 23.1621 78.5357 21.2895C78.4617 20.6521 78.2157 20.4617 77.5703 20.496C77.3058 20.5093 77.0413 20.5357 76.8271 20.7764C76.6816 23.6964 76.7107 26.6587 75.7109 29.5338C76.187 30.3272 76.5705 31.2212 77.4725 31.7476Z" fill="white"/>
<path d="M6.01168 24.3677C5.78157 24.5978 5.81596 24.8755 5.80802 25.132C5.74454 26.8988 5.84241 28.6577 6.07251 30.406C6.17038 31.1466 6.27882 31.8925 6.57241 32.5881C6.89244 33.3445 7.38704 33.4636 8.01918 32.9372C8.41327 32.6092 8.69099 32.1913 8.86291 31.7285C7.96364 29.4829 7.08023 27.2744 7.00617 24.8702C6.68085 24.6242 6.41371 24.3544 6.01168 24.3677Z" fill="white"/>
<path d="M79.5504 32.3052C79.9418 30.3136 79.6244 28.4859 78.9553 26.6953C78.9024 26.6953 78.8468 26.6953 78.7939 26.6953C78.577 28.2505 78.3602 29.8057 78.1406 31.361C78.5347 31.7365 78.8177 32.2073 79.5504 32.3052Z" fill="white"/>
<path d="M31.6997 42.9015C32.7206 43.1131 33.6834 43.0576 34.7176 43.1713C34.5774 42.2853 34.4372 41.4918 34.3288 40.693C34.1939 39.6879 34.1172 38.6802 34.2494 37.6619C34.3473 36.9055 34.6938 36.4162 35.4687 36.2099C36.8229 35.8502 38.1877 35.6571 39.5869 35.7364C39.6742 35.7417 39.7614 35.7523 39.8487 35.7629C41.2452 35.9454 41.6552 36.3633 41.7901 37.7942C41.9594 39.5769 41.9197 41.3595 41.7213 43.1396C41.7081 43.248 41.6764 43.3565 41.7346 43.4623C42.2318 43.6395 42.7978 43.6448 43.4538 43.4781C43.5754 43.3141 43.5014 43.1396 43.4776 42.9703C43.2633 41.3093 43.0226 39.6483 43.2448 37.9687C43.2739 37.7519 43.3162 37.535 43.3585 37.3181C43.5067 36.5669 43.9166 36.1305 44.7127 36.0009C46.0696 35.7761 47.4211 35.6491 48.7886 35.8475C49.1827 35.9031 49.5688 35.9877 49.9444 36.1147C50.5739 36.3289 50.9177 36.7494 50.9865 37.4186C51.087 38.3866 51.0685 39.3573 50.9865 40.3227C50.9124 41.222 50.7934 42.116 50.685 43.0999C51.3568 43.0999 52.018 43.1078 52.7216 42.9915C52.5391 42.0234 52.3354 41.1241 52.2323 40.2116C52.1582 39.5531 52.1423 38.8918 52.1767 38.2306C52.2164 37.3922 52.5973 36.8208 53.441 36.5881C55.0888 36.1332 56.7445 36.1252 58.4135 36.4532C58.9001 36.5484 59.0958 36.879 59.1858 37.326C59.4741 38.7411 59.4608 40.172 59.4318 41.6055C59.4265 41.8885 59.3656 42.1742 59.4582 42.5048C59.81 42.5947 60.1697 42.5207 60.5453 42.5048C60.6431 42.1715 60.4977 41.907 60.421 41.6478C60.0004 40.1825 60.54 38.9579 61.3943 37.8339C61.8386 37.2467 62.3623 37.1568 63.0394 37.4662C63.5843 37.7148 64.0657 38.0719 64.4862 38.4977C64.8248 38.8389 65.1369 39.2066 65.4886 39.5901C65.8007 39.2621 65.8193 38.9368 65.9568 38.6723C66.4408 37.7386 67.0201 37.5508 67.9564 38.0296C68.5726 38.3443 69.0646 38.8151 69.6121 39.3732C69.8263 39.1352 70.0115 38.8918 70.231 38.6908C70.9583 38.0269 71.3657 38.0613 71.9846 38.8204C72.0666 38.9209 72.1142 39.0532 72.2491 39.1087C73.7911 37.9502 74.1613 37.8947 75.0209 38.6987C75.0633 38.6908 75.1109 38.6935 75.1453 38.6723C76.2561 37.9106 76.3725 37.9158 77.3141 38.8654C78.0176 39.5742 78.6366 40.3386 78.9592 41.3093C79.0333 41.5341 79.1841 41.7351 79.3057 41.9467C80.1415 43.4199 80.7287 44.9672 80.8213 46.6838C80.9376 48.8949 80.0886 50.6221 78.2848 51.8943C76.6423 53.0501 74.8014 53.7722 72.9024 54.3646C69.5063 55.4226 66.0176 56.0283 62.4919 56.4674C55.1285 57.3825 47.7306 57.5729 40.3222 57.401C36.4897 57.3111 32.6625 57.1021 28.8432 56.753C24.7621 56.3827 20.6968 55.9013 16.6792 55.0894C14.1295 54.5736 11.5983 53.9838 9.17815 53.0052C8.25507 52.6322 7.37166 52.1773 6.58083 51.5716C4.53366 50.0058 3.81953 47.8872 4.08402 45.3878C4.14485 44.8165 4.2771 44.261 4.43844 43.7082C4.63945 43.0179 4.85634 42.3355 5.03619 41.6373C5.36945 40.3412 6.24757 39.3071 7.16007 38.339C7.42985 38.0507 7.77105 38.1407 8.06992 38.3311C8.32913 38.4951 8.56982 38.6829 8.80786 38.8521C8.86869 38.831 8.92424 38.8283 8.94539 38.8019C9.51934 38.0428 9.83674 37.9793 10.6461 38.4898C10.9212 38.6644 11.183 38.8627 11.4184 39.0267C11.5718 39.0267 11.6194 38.95 11.6723 38.8812C12.2992 38.0719 12.561 38.0349 13.4047 38.6538C13.7036 38.8733 13.9866 39.1193 14.3543 39.4129C14.6135 39.1299 14.8568 38.8495 15.1134 38.585C15.3593 38.3311 15.6503 38.1301 15.973 37.9767C16.703 37.6275 17.2584 37.7466 17.8033 38.3602C18.1127 38.7093 18.3243 39.1219 18.5756 39.5451C18.8268 39.4578 18.9326 39.2304 19.0755 39.0558C19.5172 38.5295 19.9827 38.0322 20.5593 37.654C21.3871 37.1091 22.0431 37.2097 22.6038 38.0243C23.3893 39.1695 23.8681 40.3968 23.3893 41.8171C23.3338 41.9811 23.3073 42.1583 23.2624 42.354C23.6512 42.5894 24.0638 42.5021 24.4817 42.5127C24.6377 42.2271 24.5478 41.9441 24.524 41.669C24.4394 40.6983 24.4447 39.7329 24.5716 38.7675C24.688 37.9 25.1059 37.3128 25.9761 37.0457C27.325 36.6304 28.6924 36.4717 30.0836 36.7283C31.3691 36.9637 32.4006 38.4475 32.2869 39.8625C32.2181 40.7221 31.9959 41.5526 31.8081 42.3911C31.7764 42.5392 31.742 42.6873 31.6944 42.9068L31.6997 42.9015Z" fill="#6943DC"/>
<path d="M31.579 43.3958C31.3886 43.9089 31.2352 44.3692 31.0474 44.8109C30.849 45.2764 30.6295 45.7339 30.3968 46.1836C29.9789 46.9956 29.3599 47.5986 28.5056 47.9504C27.5111 48.363 26.6463 48.1382 25.9665 47.305C25.4931 46.7231 25.2815 46.0275 25.1043 45.3213C24.9138 44.5569 24.7684 43.7793 24.5991 42.9938C24.0833 42.9092 23.5914 42.8325 23.1179 42.9012C22.9301 43.0679 22.8852 43.2689 22.7952 43.4434C22.134 44.7103 21.2612 45.8053 20.1318 46.6888C19.8541 46.9083 19.5605 47.104 19.2431 47.2548C18.3597 47.6727 17.9444 47.4558 17.8704 46.493C17.8254 45.9006 17.8545 45.3028 17.8466 44.7103C17.8466 44.5464 17.8942 44.3718 17.754 44.1708C17.1668 44.8585 16.5982 45.4932 15.9475 46.0487C15.5958 46.3502 15.236 46.6411 14.7917 46.8051C14.2177 47.0141 13.903 46.8818 13.7284 46.2999C13.501 45.5514 13.5354 44.7765 13.5168 44.0042C13.5115 43.8243 13.6173 43.6127 13.4163 43.4514C12.9059 43.9565 12.4747 44.5226 11.8796 44.914C11.1126 45.4192 10.4249 45.1785 10.134 44.2977C10.0626 44.0782 10.0123 43.8507 9.95148 43.6206C8.46238 44.2951 7.698 44.0941 7.61865 42.605C6.85162 42.97 6.05815 43.0467 5.24351 42.8298C4.88115 43.4963 4.71188 44.1814 4.59021 44.8717C4.11413 47.5272 4.78065 49.7595 7.0447 51.3888C8.24286 52.2484 9.60499 52.7615 10.9883 53.2111C14.8155 54.4516 18.767 55.1208 22.7423 55.6656C28.5559 56.4644 34.4012 56.84 40.265 56.9881C47.4777 57.1706 54.6745 56.9802 61.8449 56.1338C65.5902 55.6921 69.2983 55.0414 72.9087 53.9173C74.7654 53.3381 76.556 52.6081 78.1483 51.4576C79.9468 50.1563 80.6477 48.3921 80.3806 46.2153C80.2325 44.996 79.8119 43.864 79.2697 42.7716C79.1983 42.6261 79.1719 42.4278 78.9682 42.3828C78.1668 43.2927 77.2754 42.9409 76.392 42.5362C76.1778 44.1047 75.3314 44.4644 74.0116 43.5942C73.8344 43.4778 73.7048 43.2768 73.4191 43.2451C73.4191 43.6471 73.4588 44.0438 73.3451 44.4247C73.1255 45.1653 72.5966 45.3927 71.9274 45.0277C71.5968 44.8452 71.3244 44.5887 71.0546 44.3268C70.8245 44.1047 70.6367 43.8296 70.277 43.6312C70.2585 43.8613 70.2505 44.028 70.2346 44.1946C70.1765 44.8505 70.1844 45.5171 69.986 46.1571C69.74 46.948 69.3777 47.1014 68.6556 46.6835C67.9627 46.2814 67.4046 45.7154 66.8862 45.1097C66.6957 44.8902 66.5556 44.6098 66.2223 44.4406C66.1985 44.6257 66.172 44.7527 66.1641 44.8823C66.1218 45.5409 66.1509 46.2074 65.9737 46.8527C65.8203 47.4161 65.5505 47.5695 64.9924 47.4002C64.6327 47.2918 64.3021 47.1146 63.9979 46.8898C62.7336 45.9588 61.7286 44.8109 61.0277 43.4011C60.951 43.2477 60.9219 43.0599 60.6865 42.9409C60.2897 42.9726 59.8322 42.9065 59.4169 43.0784C59.2952 43.3165 59.3137 43.5439 59.282 43.7608C59.1418 44.7659 58.9778 45.7683 58.5414 46.6967C58.0918 47.6489 57.5416 47.9107 56.5128 47.678C55.1612 47.3711 54.1773 46.5935 53.5557 45.3531C53.2595 44.7632 53.1114 44.1152 52.8363 43.4752C52.0852 43.4302 51.3552 43.5572 50.6595 43.6233C50.4876 43.8957 50.4718 44.1417 50.4136 44.3744C50.1649 45.3822 49.8925 46.3819 49.3318 47.2706C48.5172 48.5614 47.1656 48.9026 45.8405 48.1514C45.002 47.6753 44.4096 46.9797 44.1266 46.054C43.9282 45.4033 43.7827 44.7368 43.6002 44.0253C42.9655 43.9936 42.336 43.9962 41.7356 44.0385C41.5425 44.2528 41.561 44.4829 41.5213 44.6945C41.3626 45.5171 41.1854 46.3343 40.7887 47.0855C40.0269 48.527 38.6331 48.9343 37.218 48.117C36.4272 47.6594 35.877 46.9956 35.5597 46.1307C35.2634 45.3266 35.0783 44.4882 34.8244 43.655C33.7399 43.5096 32.6926 43.4487 31.579 43.4011V43.3958Z" fill="#936FFF"/>
<path d="M50.6379 39.049C50.6379 38.6734 50.6511 38.3005 50.6379 37.9249C50.5955 36.8643 50.3522 36.5469 49.3233 36.3512C47.7919 36.0602 46.2605 36.1317 44.7291 36.4067C44.1737 36.5072 43.8774 36.8246 43.7663 37.3483C43.7081 37.6287 43.6579 37.909 43.6235 38.1921C43.5204 38.9829 43.568 39.7737 43.6209 40.5672C43.7372 42.3049 43.9938 44.0241 44.4567 45.7036C44.7555 46.7907 45.4432 47.5577 46.4959 47.9756C47.3 48.293 48.0776 48.1026 48.6594 47.4652C49.0668 47.0182 49.3392 46.4945 49.5323 45.9258C50.2914 43.6961 50.577 41.3871 50.6431 39.0464L50.6379 39.049Z" fill="white"/>
<path d="M41.4971 40.1677C41.513 39.3081 41.4839 38.4512 41.3675 37.5942C41.2379 36.6209 40.9707 36.3405 40.0106 36.2003C38.5665 35.9914 37.1568 36.2003 35.7629 36.56C34.8874 36.7875 34.6996 37.0388 34.6176 37.9354C34.6018 38.11 34.5938 38.2872 34.5938 38.4644C34.5859 41.0961 35.1625 43.622 36.0062 46.0923C36.3051 46.9678 36.969 47.5603 37.8074 47.9332C38.6168 48.2929 39.3573 48.1236 39.9763 47.4836C40.537 46.9043 40.7644 46.1664 40.9443 45.4126C41.3543 43.6881 41.4918 41.9345 41.4971 40.1677Z" fill="white"/>
<path d="M24.8637 40.5035C24.8743 42.0058 25.0779 43.487 25.4271 44.9443C25.5699 45.5421 25.7418 46.1372 26.0539 46.6767C26.6993 47.7903 27.6144 48.023 28.7279 47.3671C29.3548 46.9968 29.7912 46.4546 30.1192 45.8171C31.0925 43.9392 31.5845 41.9106 31.886 39.837C32.0553 38.6705 31.0899 37.3163 29.9525 37.1153C28.5666 36.8694 27.1939 36.9857 25.8714 37.52C25.3768 37.721 25.115 38.0834 25.0039 38.5965C24.869 39.226 24.8531 39.8608 24.8611 40.5008L24.8637 40.5035Z" fill="white"/>
<path d="M59.0651 40.8392C59.0545 39.5855 59.0095 38.554 58.8297 37.5304C58.7609 37.1442 58.6048 36.8744 58.1896 36.803C56.6291 36.5306 55.0791 36.5306 53.5477 36.9855C52.9526 37.1627 52.6405 37.5515 52.5903 38.181C52.5109 39.157 52.6114 40.1171 52.7675 41.0746C52.9923 42.4447 53.2991 43.7962 53.8916 45.0631C54.291 45.9148 54.894 46.5813 55.7483 46.9569C57.4173 47.6896 57.9224 47.433 58.4356 45.7852C58.9593 44.103 59.0095 42.3627 59.0651 40.8418V40.8392Z" fill="white"/>
<path d="M65.4146 46.9952C65.6791 46.6645 65.6738 46.2969 65.6976 45.9557C65.814 44.1519 65.7743 42.348 65.5997 40.5468C65.5865 40.4199 65.5548 40.2744 65.4807 40.1765C64.7507 39.1953 63.8911 38.3515 62.7829 37.8014C62.4232 37.6242 62.074 37.685 61.8281 37.9971C61.0557 38.9678 60.4765 39.994 60.7754 41.3218C61.2911 43.6335 62.5845 45.3923 64.5259 46.7016C64.7798 46.8708 65.0522 47.0243 65.4172 46.9978L65.4146 46.9952Z" fill="white"/>
<path d="M18.4273 46.9977C18.8637 47.0427 19.1441 46.8549 19.4112 46.6724C21.2309 45.4398 22.4185 43.7603 23.0189 41.6444C23.4024 40.2981 22.9422 39.182 22.1672 38.1425C21.7599 37.5976 21.4399 37.558 20.8659 37.9388C20.0275 38.4916 19.3795 39.2375 18.8293 40.068C18.705 40.2558 18.6706 40.47 18.6362 40.6896C18.4511 41.8851 18.3585 43.0912 18.2792 44.2946C18.221 45.1833 18.1284 46.0879 18.4299 46.9977H18.4273Z" fill="white"/>
<path d="M14.2942 46.4172C14.408 46.4172 14.5111 46.449 14.5773 46.4119C16.0849 45.5894 17.2989 44.4573 17.8834 42.8201C18.1902 41.9579 18.1796 40.9978 18.177 40.0773C18.177 39.2627 17.6559 38.7126 17.0317 38.2629C16.8413 38.1254 16.6138 38.1439 16.3996 38.2418C15.3311 38.7311 14.4979 39.4717 14.2519 40.6566C13.9292 42.2118 13.8578 43.7961 13.9742 45.3804C13.998 45.7243 14.0165 46.0866 14.2942 46.4172Z" fill="white"/>
<path d="M69.3512 46.4126C69.5046 46.3121 69.5416 46.2037 69.5734 46.1006C69.6183 45.9524 69.658 45.8043 69.6818 45.6536C69.9251 44.1407 69.8273 42.6225 69.7453 41.1043C69.6659 39.6443 68.7058 38.8878 67.5474 38.3007C67.0448 38.0467 66.8041 38.1446 66.4894 38.6128C66.0794 39.2237 65.9419 39.9167 66.008 40.6308C66.0794 41.3794 66.1085 42.1252 66.127 42.8737C66.135 43.1647 66.1852 43.4398 66.3518 43.6884C66.9549 44.5929 67.6558 45.4102 68.5233 46.0688C68.7614 46.2487 68.9994 46.4761 69.3512 46.4126Z" fill="white"/>
<path d="M12.5315 38.6328C12.2062 38.7598 12.0766 38.9978 11.9522 39.2253C11.2937 40.4525 10.8361 41.7565 10.4896 43.1001C10.397 43.4572 10.3864 43.8407 10.5398 44.203C10.7938 44.7981 11.1508 44.9092 11.6666 44.5389C12.2987 44.0867 12.788 43.4915 13.2959 42.9123C13.4942 42.6875 13.5921 42.4468 13.6265 42.1479C13.7217 41.365 13.7905 40.5768 14.0444 39.8019C13.608 39.2835 13.1134 38.8761 12.5288 38.6328H12.5315Z" fill="white"/>
<path d="M69.8542 39.7434C70.1531 40.6268 70.1531 41.5129 70.2192 42.3884C70.2351 42.6105 70.2351 42.8195 70.3938 43.0046C70.8672 43.5601 71.3565 44.0943 71.9437 44.5308C72.1341 44.6736 72.3352 44.8296 72.6023 44.745C73.6629 43.9542 72.5309 39.2171 71.0788 38.6484C70.5445 38.8415 70.2033 39.27 69.8516 39.7434H69.8542Z" fill="white"/>
<path d="M72.4922 39.621C72.918 40.4806 73.1984 41.4037 73.5396 42.3056C73.7803 42.9431 74.2405 43.3001 74.8356 43.5249C75.5153 43.7789 75.92 43.5038 75.8936 42.7791C75.8433 41.3852 75.3355 40.1262 74.6372 38.9386C74.4071 38.5472 74.0606 38.4996 73.6665 38.6477C73.1772 38.8329 72.8175 39.1793 72.4922 39.621Z" fill="white"/>
<path d="M9.74154 38.5469C9.4506 38.7241 9.3686 38.9357 9.27339 39.1314C8.76821 40.1841 8.37676 41.2764 8.15723 42.427C8.12284 42.5989 8.09375 42.7735 8.09375 42.948C8.09375 43.358 8.3556 43.6304 8.75498 43.5749C9.34216 43.4929 9.9161 43.239 10.1436 42.6915C10.5747 41.6441 10.8894 40.5491 11.2544 39.4673C10.7731 39.0521 10.3287 38.6738 9.74418 38.5495L9.74154 38.5469Z" fill="white"/>
<path d="M7.5815 38.5573C6.96788 39.044 6.00512 40.3427 5.57665 41.2578C5.48407 41.4562 5.40208 41.6625 5.34918 41.8741C5.29099 42.1015 5.34918 42.3025 5.57665 42.4348C6.1744 42.7892 7.63175 42.3449 7.88567 41.6836C8.17396 40.9325 8.39349 40.1522 8.63947 39.3905C8.36175 39.0123 8.03907 38.7293 7.5815 38.5547V38.5573Z" fill="white"/>
<path d="M75.3828 39.0626C75.7187 39.946 76.044 40.8056 76.372 41.6626C76.4858 41.9614 76.7 42.1783 76.9724 42.337C77.4379 42.6042 78.1441 42.6147 78.4007 42.337C78.7763 41.9271 78.6255 41.4801 78.4324 41.0489C78.0859 40.274 77.5226 39.6604 76.938 39.0652C76.29 38.4067 76.1525 38.404 75.3855 39.0652L75.3828 39.0626Z" fill="white"/>
</svg>
