<svg width="85" height="60" viewBox="0 0 85 60" fill="none" xmlns="http://www.w3.org/2000/svg">
<g clip-path="url(#clip0_3836_247)">
<path d="M72.4378 29.9794C71.5511 30.7708 70.6962 30.6279 69.8466 30.0668C69.5713 29.8841 69.2908 29.8577 68.9678 29.8868C67.618 30.0191 66.8848 29.4024 66.7577 28.0525C66.6572 26.9859 66.8663 25.9483 67.0727 24.9108C67.1151 24.699 67.2183 24.4926 67.1654 24.2411C66.6889 23.8917 66.1993 23.5318 65.6434 23.1242C65.6673 23.7594 65.8075 24.302 65.9214 24.8446C66.0696 25.5566 66.231 26.2659 66.2496 26.9938C66.2787 28.0949 65.9081 28.6296 64.8547 28.9313C63.4545 29.3336 62.0279 29.6089 60.5721 29.7095C59.8522 29.7597 59.1243 29.8074 58.3991 29.4924C57.7639 30.7655 56.6575 31.0064 55.387 30.964C51.5412 30.837 47.8436 30.0191 44.236 28.7169C43.3599 28.4019 42.6267 27.989 42.4917 27.0388C42.4017 26.9568 42.3594 26.9621 42.3408 27.0176C41.7824 28.6163 40.6707 29.3892 38.9635 29.4527C35.61 29.5745 32.2697 29.4792 28.9532 28.9445C28.0612 28.8016 27.1825 28.6084 26.3884 28.1611C26.1423 28.304 26.1846 28.5581 26.1052 28.7487C25.8247 29.4183 25.3562 29.7889 24.668 29.6353C23.2123 29.3071 21.7856 29.4765 20.3378 29.6645C18.9826 29.8418 18.2521 29.1721 18.1727 27.8143C18.1277 27.0415 18.3077 26.2898 18.403 25.4481C17.773 25.6386 17.2251 25.8901 16.5952 26.0092C16.7434 26.5439 16.889 27.0203 17.0055 27.5047C17.1404 28.0711 17.1352 28.6375 16.9605 29.1986C16.717 29.9794 16.2273 30.3553 15.4121 30.3923C14.9224 30.4135 14.4486 30.305 13.9749 30.2071C13.0379 30.0138 13.0008 30.0165 12.5456 30.8158C12.1671 31.4828 11.7092 32.0095 10.8516 31.9645C10.4784 31.946 10.3699 32.351 10.0284 32.4489C9.22646 32.6765 8.44564 32.9836 7.62778 33.1715C7.40015 33.2244 7.20693 33.2906 7.09841 33.5129C6.79138 34.1535 6.19585 34.3176 5.5712 34.4023C4.13397 34.5981 3.28699 34.0105 2.97202 32.6051C2.74969 31.6125 2.6941 30.6014 2.72586 29.5877C2.73645 29.2542 2.64117 29.008 2.41089 28.7645C1.66714 27.9784 1.01337 27.1235 0.539591 26.1415C-0.00300759 25.0087 -0.148583 23.8467 0.158448 22.6133C0.817507 19.9718 2.12768 17.6849 3.864 15.6204C7.03754 11.8461 11.1322 9.40834 15.6318 7.57939C20.4357 5.62603 25.4594 4.52496 30.5863 3.85266C34.3236 3.363 38.0768 3.05597 41.8459 3.00568C45.3291 2.95804 48.8017 3.21478 52.2611 3.59592C56.3372 4.04324 60.3736 4.71818 64.32 5.85631C68.4014 7.03679 72.3187 8.59577 75.8655 10.9753C78.9411 13.0371 81.5508 15.5543 83.3454 18.839C84.0362 20.1015 84.5523 21.4276 84.8805 22.8304C85.1134 23.8335 85.0049 24.797 84.6211 25.7366C84.5391 25.9404 84.465 26.1521 84.3432 26.3348C82.6625 28.8545 81.0876 31.4643 78.6261 33.3488C78.4329 33.4971 78.2423 33.6453 78.0464 33.7856C77.4456 34.217 76.8104 34.2408 76.1884 33.8676C75.7014 33.5738 75.2249 33.2747 74.7141 33.018C74.1106 32.7162 73.7401 32.1366 73.3854 31.5781C73.0678 31.0805 72.7846 30.5617 72.4431 29.9794H72.4378Z" fill="#6943DC"/>
<path d="M57.6816 19.4878C58.0204 18.9478 58.3036 18.3735 58.6821 17.86C59.8096 16.3301 60.728 16.2454 62.0912 17.5662C62.4485 17.9129 62.7767 18.2888 63.2134 18.7546C63.2134 18.4158 63.2187 18.2067 63.2134 17.9976C63.1737 16.7007 63.1578 15.4011 63.2425 14.1041C63.3008 13.2254 63.3828 12.3466 63.6713 11.5076C63.9916 10.5839 64.5448 10.2768 65.5109 10.4595C65.7941 10.5124 66.064 10.613 66.3155 10.748C67.721 11.4917 68.8194 12.5346 69.4599 14.0088C70.0052 15.2661 70.3545 16.5842 70.6086 17.9288C70.7516 18.6805 70.8601 19.4401 70.9792 20.1759C71.2306 20.2977 71.4424 20.1945 71.6568 20.1653C72.247 20.078 72.8399 20.0304 73.4354 20.0939C74.2877 20.1839 74.5974 20.5121 74.6053 21.3802C74.6106 21.7746 74.5736 22.1716 74.518 22.5634C74.4174 23.2833 74.2771 23.9953 74.1792 24.7152C74.1157 25.1811 74.3433 25.4219 74.8091 25.414C75.005 25.4113 75.2009 25.3611 75.3994 25.3372C76.3416 25.2234 77.2892 25.1625 78.2288 25.3478C79.1182 25.5225 79.2876 25.7475 79.2637 26.658C80.4151 27.0286 81.6776 27.1212 82.7073 27.9205C83.2896 27.2535 83.766 26.5495 84.1207 25.7607C84.5627 24.7841 84.6712 23.7915 84.4065 22.7381C84.0677 21.3829 83.5595 20.0992 82.8661 18.8896C80.8915 15.4434 78.0647 12.8416 74.7218 10.7691C71.1353 8.54581 67.2286 7.07418 63.1631 5.99957C56.9325 4.3506 50.5669 3.69154 44.1484 3.47715C40.067 3.33951 36.0067 3.66507 31.9545 4.12826C26.7746 4.71851 21.6901 5.75077 16.7988 7.59825C12.3442 9.28162 8.24424 11.5473 4.94895 15.0702C2.84208 17.3253 1.21958 19.8583 0.544644 22.9154C0.150268 24.702 1.19311 27.2535 2.75474 28.3308C2.82885 28.0079 2.78385 27.6559 3.03795 27.4071C3.33969 27.108 3.7023 27.4044 4.04903 27.3329C4.04903 26.4171 4.04903 25.5384 4.22637 24.6729C4.31372 24.2388 4.42224 23.81 4.67368 23.4395C5.02571 22.9207 5.47038 22.8307 5.96798 23.2013C6.24854 23.4104 6.48411 23.6777 6.74614 23.9132C6.84937 24.0059 6.91819 24.1912 7.13523 24.0879C7.14581 23.9635 7.15905 23.8338 7.16434 23.7041C7.27286 21.6608 7.95045 20.917 9.96732 20.6233C10.097 20.6047 10.232 20.6021 10.3617 20.5756C10.7878 20.4856 11.2352 20.5624 11.6798 20.4036C11.7195 19.7763 11.7539 19.1622 11.8016 18.5508C11.8995 17.2777 11.9657 15.9993 12.3468 14.7711C12.6274 13.8686 13.0985 13.5642 14.0381 13.6833C15.163 13.8262 16.1053 14.3371 16.7352 15.2873C17.8496 16.9653 18.7468 18.7493 19.2074 20.7291C19.2418 20.8747 19.2444 21.0388 19.4059 21.1235C19.7341 21.105 19.75 20.8165 19.8294 20.6047C20.0755 19.9668 20.3429 19.3422 20.679 18.744C20.9834 18.2041 21.3434 17.7065 21.8198 17.3015C22.7091 16.5471 23.5217 16.518 24.4587 17.2115C25.1045 17.6906 25.5783 18.3258 26.0282 18.9822C26.1315 19.1331 26.1685 19.3607 26.4438 19.3978C26.9599 18.2861 27.5343 17.1983 28.3019 16.2242C30.1679 13.8474 32.5606 12.5796 35.6362 12.831C37.0602 12.9475 38.3704 13.4662 39.6435 14.0909C40.9484 14.7314 41.9753 15.5943 42.2135 17.1268C42.2135 17.1427 42.2453 17.1559 42.2665 17.1744C42.3962 17.0765 42.3829 16.9098 42.4173 16.7721C43.0129 14.3318 44.5798 12.8945 47.0096 12.4075C49.0212 12.0026 50.9613 12.3281 52.7902 13.236C54.8071 14.2391 56.2099 15.7584 56.6837 18.0267C56.7816 18.4979 56.906 18.9663 57.0966 19.4216C57.2581 19.5063 57.4248 19.5433 57.6842 19.4931L57.6816 19.4878Z" fill="#936FFF"/>
<path d="M42.6836 21.7755C42.6836 22.8898 42.726 23.8162 42.6704 24.7346C42.628 25.4281 42.718 26.0898 42.853 26.7594C42.9986 27.49 43.393 27.9399 44.1129 28.2152C46.4474 29.1045 48.8454 29.7345 51.307 30.1447C52.8501 30.4015 54.4037 30.5762 55.9707 30.5418C57.1485 30.5153 57.8578 29.9436 58.1675 28.8134C58.2734 28.4296 58.3157 28.0379 58.3263 27.6382C58.3501 26.8203 58.2575 26.013 58.1119 25.2111C57.6143 22.5007 56.7144 19.8962 56.0077 17.2415C55.8542 16.6645 55.5445 16.1457 55.1581 15.6878C53.1465 13.2898 50.5209 12.3925 47.4902 12.771C44.6634 13.123 43.0568 14.9202 42.6942 17.747C42.5142 19.1578 42.6174 20.5579 42.6863 21.7702L42.6836 21.7755Z" fill="white"/>
<path d="M35.4149 29.0824C36.8442 29.0904 38.2761 29.1168 39.7001 28.9369C40.3036 28.8601 40.7774 28.6007 41.185 28.164C41.8864 27.4096 42.1061 26.478 42.1934 25.5013C42.3708 23.5453 42.2834 21.5893 42.1246 19.6386C42.0505 18.7387 41.9129 17.852 41.7117 16.9679C41.5079 16.0786 41.0394 15.4248 40.2533 14.9511C39.1496 14.2867 37.9956 13.7626 36.7436 13.4609C34.073 12.8177 31.7358 13.4636 29.719 15.3057C28.6814 16.2533 27.9191 17.4073 27.2971 18.6566C26.2543 20.7476 25.5952 22.9551 25.5555 25.3001C25.5264 27.0153 26.2754 27.8914 27.9376 28.299C28.3638 28.4049 28.7979 28.4896 29.2319 28.561C31.2779 28.8945 33.3424 29.0295 35.4123 29.0851L35.4149 29.0824Z" fill="white"/>
<path d="M58.7866 29.1263C59.263 29.3963 59.7103 29.346 60.1418 29.3196C61.6849 29.2296 63.2041 28.9755 64.6943 28.5652C65.5757 28.3217 65.9436 27.9009 65.8298 26.9798C65.626 25.3467 65.4778 23.6765 64.7234 22.1837C64.1702 21.0906 63.5879 19.9975 62.8045 19.0367C62.3863 18.5258 61.9654 18.015 61.4519 17.5941C60.5441 16.8504 60.028 16.898 59.2842 17.8191C58.5722 18.7005 58.0852 19.7116 57.6352 20.7412C57.5399 20.9609 57.5611 21.1594 57.6246 21.3791C58.3657 23.8989 58.9216 26.4504 58.7866 29.129V29.1263Z" fill="white"/>
<path d="M70.5542 20.8543C70.406 18.6019 69.9614 16.413 69.1117 14.3141C68.5241 12.8609 67.4548 11.8499 66.0891 11.1273C65.8588 11.0055 65.5994 10.9208 65.3427 10.8705C64.6942 10.7461 64.3422 10.9526 64.1066 11.564C63.9557 11.9557 63.8763 12.366 63.8207 12.7815C63.5772 14.5761 63.5534 16.3786 63.6672 18.1811C63.8393 20.9073 65.3982 22.7336 67.7063 23.9432C69.0376 24.6393 70.2128 23.9273 70.4669 22.4319C70.5569 21.9104 70.5913 21.3837 70.5516 20.8543H70.5542Z" fill="white"/>
<path d="M18.5886 27.3429C18.5568 28.8833 19.0915 29.3783 20.5075 29.2274C20.616 29.2168 20.7272 29.2062 20.8357 29.1877C22.0586 28.968 23.2787 28.8939 24.5016 29.1983C24.9013 29.2989 25.3168 29.2671 25.5524 28.8595C25.7985 28.436 26.0076 27.9517 25.7244 27.4911C25.0415 26.3847 25.0468 25.191 25.2109 23.9814C25.3644 22.8486 25.6344 21.7369 25.9997 20.6517C26.1029 20.3473 26.1505 20.0615 25.9812 19.765C25.5206 18.9578 24.9939 18.2008 24.2607 17.6132C23.4826 16.9859 22.8314 17.0071 22.0665 17.6608C21.5557 18.0975 21.2036 18.6534 20.8966 19.241C20.354 20.2785 19.9702 21.3796 19.65 22.4992C19.1868 24.1244 18.6786 25.7442 18.5859 27.3402L18.5886 27.3429Z" fill="white"/>
<path d="M19.0021 22.5697C18.973 22.2203 18.9651 21.8656 18.9068 21.5189C18.5231 19.2638 17.5411 17.2602 16.268 15.3889C15.8471 14.7695 15.196 14.4148 14.484 14.2084C13.375 13.8855 12.9409 14.1369 12.6656 15.2565C12.4486 16.1353 12.348 17.0299 12.2924 17.9325C12.213 19.2267 12.0913 20.521 12.086 21.818C12.0754 24.5283 13.8805 26.037 16.5035 25.5738C18.4066 25.2377 18.9836 24.5363 18.9995 22.5697H19.0021Z" fill="white"/>
<path d="M16.0924 26.0806C14.671 26.1945 13.4588 25.9298 12.6171 24.7096C11.8469 23.5926 11.5849 22.3566 11.6775 21.0279C11.5452 20.9855 11.4605 20.9326 11.3811 20.9379C10.9205 20.9723 10.4573 20.9935 10.0021 21.0649C8.16516 21.3561 7.60933 21.9595 7.61727 23.8308C7.62786 26.2342 8.31868 28.4654 9.53622 30.5326C9.66856 30.7576 9.8406 30.9667 10.0285 31.1493C10.6241 31.7369 11.4102 31.676 11.9078 31.0117C12.0401 30.837 12.1407 30.6411 12.2545 30.4505C12.7124 29.6777 12.9268 29.5797 13.8214 29.7412C14.2555 29.818 14.6843 29.9265 15.121 29.9688C15.9521 30.0509 16.4127 29.7041 16.5979 28.8969C16.8229 27.9175 16.4682 27.0388 16.0924 26.0806Z" fill="white"/>
<path d="M67.6885 24.4863C67.2809 25.3756 67.0241 27.2998 67.1935 28.2183C67.3682 29.1658 67.8844 29.5708 68.8743 29.4729C69.3586 29.4252 69.7689 29.5046 70.1844 29.7693C71.1108 30.3622 71.7461 30.2219 72.3786 29.3167C72.916 28.5465 73.2256 27.673 73.3871 26.7599C73.6677 25.1612 73.9059 23.5519 74.152 21.948C74.1838 21.7336 74.1785 21.5086 74.1679 21.2916C74.1494 20.8628 73.9482 20.5928 73.4956 20.5399C72.6566 20.4419 71.8387 20.5266 71.0208 20.7701C70.952 21.416 70.9891 22.0327 70.8647 22.6361C70.5603 24.1131 69.4645 24.8409 68.0061 24.5233C67.9002 24.4995 67.8023 24.4413 67.6885 24.4836V24.4863Z" fill="white"/>
<path d="M10.1641 31.9033C9.53416 31.284 9.07891 30.6805 8.74276 29.9844C8.09429 28.6504 7.60727 27.2634 7.37435 25.8024C7.18114 24.5954 6.23093 24.074 5.45012 23.3594C4.83605 23.7379 4.75665 24.3016 4.66666 24.8284C4.30404 26.9617 4.56872 29.0289 5.39453 31.0272C5.58775 31.4957 5.84185 31.9351 6.19123 32.3083C6.54325 32.6841 6.96674 32.8985 7.49081 32.7741C8.36691 32.5677 9.22713 32.3056 10.1615 31.9033H10.1641Z" fill="white"/>
<path d="M78.7763 26.0726C78.6545 25.9403 78.5169 25.8662 78.366 25.8318C77.0003 25.53 75.653 25.6624 74.3164 26.0144C74.0861 26.0753 73.9432 26.2288 73.8956 26.4723C73.6812 27.5575 73.3371 28.5951 72.7812 29.5267C72.8871 29.937 73.0936 30.252 73.2789 30.5749C73.5197 30.9931 73.7685 31.4139 74.057 31.7977C75.0734 33.1555 75.6319 33.137 76.5397 31.6971C77.5323 30.1223 78.2178 28.4098 78.7525 26.6338C78.8028 26.467 78.8531 26.295 78.7736 26.0726H78.7763Z" fill="white"/>
<path d="M75.9297 33.1121C76.6443 33.8294 77.1737 33.8982 77.9466 33.3239C79.3335 32.2942 80.5325 31.0741 81.5727 29.6951C81.8109 29.3774 82.0068 29.036 82.1524 28.6628C82.3032 28.2843 82.2132 28.0382 81.8242 27.8793C80.9481 27.5194 80.0402 27.2944 79.0847 27.125C78.2642 29.2689 77.5575 31.4367 75.9297 33.1121Z" fill="white"/>
<path d="M6.71906 33.1921C5.79002 32.7554 5.33477 31.9613 4.96686 31.1011C4.6016 30.2488 4.36603 29.3595 4.22575 28.4463C4.14899 27.9408 3.87108 27.737 3.41847 27.7423C3.25966 27.8561 3.24378 27.9911 3.23055 28.1208C3.1035 29.5686 3.10615 31.0085 3.36553 32.4457C3.62228 33.875 4.56454 34.1555 5.86943 33.9014C6.23733 33.83 6.59466 33.6923 6.71641 33.1894L6.71906 33.1921Z" fill="white"/>
<path d="M31.5589 34.5887C32.4377 33.4903 33.6631 33.1832 34.976 33.1779C36.6752 33.17 38.356 32.8947 40.0526 32.8841C40.4919 32.8841 40.934 32.8947 41.3707 32.9291C41.8101 32.9635 42.2362 33.0721 42.6888 33.3553C42.8264 32.2066 43.6866 31.8784 44.5601 31.6163C46.3176 31.0896 48.0857 30.8964 49.8829 31.4919C50.5472 31.7116 51.2592 31.7804 51.9474 31.9339C52.2465 32.0001 52.5429 32.0954 52.8314 32.2013C53.4375 32.4209 53.7499 32.8391 53.7154 33.5088C53.6916 33.964 53.7102 34.4219 53.7102 34.8904C55.1262 34.0911 59.4749 35.1366 60.494 36.5526C61.4283 35.3219 62.7332 35.3325 64.0778 35.486C64.3424 35.5151 64.6045 35.4992 64.8665 35.4621C65.2821 35.4013 65.7029 35.3907 66.1185 35.441C66.804 35.523 67.4154 35.7348 67.6986 36.4812C68.138 36.3753 68.5615 36.2721 68.985 36.1715C69.374 36.0789 69.7711 36.0603 70.1681 36.1C71.0362 36.1847 71.6477 36.6082 71.9468 37.4526C72.0262 37.6775 72.05 37.929 72.2564 38.1381C72.9949 38.2148 73.7598 38.2572 74.5221 38.3763C75.6788 38.5589 76.4172 39.1306 76.5787 40.3376C76.6052 40.5255 76.6449 40.7267 76.7904 40.9146C77.1451 40.8802 77.513 40.8193 77.8783 40.8193C78.5638 40.8193 78.8655 41.0628 79.0958 41.7034C79.5484 42.9659 79.9984 44.2311 80.3345 45.5307C80.6469 46.7402 80.7739 47.9551 80.4298 49.1806C79.9401 50.9355 78.847 52.198 77.2483 53.037C75.3611 54.0269 73.3284 54.6013 71.2639 55.0777C66.8993 56.0862 62.4685 56.6499 58.0139 57.0364C53.0749 57.4625 48.128 57.6769 43.1679 57.4969C42.223 57.4625 41.2754 57.5499 40.3278 57.5525C32.3397 57.579 24.4019 56.994 16.5303 55.6018C13.9046 55.136 11.3081 54.5431 8.83066 53.5267C7.5496 53 6.40353 52.2933 5.54331 51.1737C4.28872 49.5406 3.91287 47.701 4.18549 45.6921C4.3496 44.4772 4.81808 43.3603 5.31039 42.2565C5.56184 41.6928 6.06474 41.354 6.5941 41.0628C7.01759 40.8299 7.47549 40.6737 7.92545 40.4964C7.98104 40.3296 8.04985 40.1894 8.07103 40.0385C8.20072 39.1227 8.78567 38.6754 9.63265 38.4769C10.6014 38.2466 11.5834 38.154 12.6315 38.1804C13.0391 36.6294 14.3228 36.3832 15.6462 36.2086C16.5435 36.0921 17.4434 36.0921 18.391 36.198C18.6874 34.9407 19.635 34.9169 20.6249 34.9698C22.0489 35.0492 23.4649 35.2901 24.9736 35.1445C25.3283 34.6337 25.9529 34.4352 26.6173 34.3293C28.0254 34.1043 29.4282 34.2049 30.8231 34.4484C31.0587 34.4908 31.2942 34.5384 31.5563 34.5887H31.5589Z" fill="#6943DC"/>
<path d="M4.59904 47.7721C4.76315 49.1193 5.27928 50.2548 6.15537 51.2368C7.01559 52.2002 8.11402 52.7878 9.2945 53.2484C11.269 54.0213 13.3177 54.54 15.3954 54.9503C21.6763 56.1864 28.034 56.7395 34.4181 57.028C37.3243 57.1577 40.2332 57.0201 43.1367 57.0836C50.2646 57.2371 57.3581 56.8454 64.4172 55.882C67.6251 55.4452 70.8146 54.8894 73.914 53.9154C75.1553 53.5263 76.3861 53.1002 77.4898 52.3961C79.295 51.2474 80.1949 49.5825 80.2584 47.4227C79.5358 47.4757 79.0329 47.1157 78.5486 46.7425C78.0483 46.3587 77.5745 45.9352 77.0875 45.5303C76.4867 46.3931 76.2458 46.454 75.2771 45.9855C74.5386 45.6282 73.8875 45.1412 73.2576 44.6197C72.9717 44.3842 72.6911 44.1407 72.3841 43.8813C72.1671 44.2545 72.1644 44.6409 72.0268 44.985C71.7171 45.7526 71.3386 45.959 70.5287 45.7526C69.8591 45.5832 69.2635 45.2444 68.6892 44.8712C68.2154 44.5615 67.7548 44.228 67.244 43.8786C67.1911 44.0454 67.1487 44.1645 67.1143 44.2836C66.974 44.7918 66.8337 45.3026 66.5664 45.7658C65.7671 47.1448 63.9672 47.2983 62.9508 46.0781C62.6809 45.7552 62.4771 45.39 62.2839 45.0194C61.6857 43.8628 61.2198 42.6532 60.8175 41.4171C60.7328 41.1551 60.6905 40.8295 60.2352 40.9671C60.0235 41.7929 59.7667 42.6108 59.375 43.3757C58.8906 44.3233 58.2342 45.0962 57.2258 45.5223C55.7171 46.1576 54.0681 45.4482 53.4964 43.913C53.3323 43.4737 53.2767 43.0211 53.282 42.5526C53.2926 41.5177 53.2926 40.4854 53.29 39.4505C53.29 39.2679 53.3111 39.0747 53.2053 38.8444C52.9644 39.0773 52.975 39.3314 52.9168 39.5484C52.5383 40.9963 52.1465 42.4414 51.3948 43.7542C50.5664 45.2021 49.2377 45.7473 47.6602 45.6123C46.125 45.4826 45.241 44.4689 44.7778 43.0634C44.3013 41.6209 43.8276 40.1784 43.4411 38.7094C43.4067 38.5797 43.4411 38.3944 43.1791 38.3203C43.1526 39.3711 43.0521 40.3928 42.8747 41.4012C42.7291 42.227 42.5386 43.0396 42.1707 43.7992C41.4031 45.382 39.8626 46.1179 38.166 45.6732C36.8638 45.3317 35.7998 44.6224 35.0481 43.4869C34.2223 42.2376 33.4653 40.9486 32.7533 39.6305C32.6659 39.4717 32.6156 39.2705 32.351 39.1488C32.2398 39.7655 32.126 40.3213 32.0439 40.8798C31.8825 41.9703 31.631 43.0396 31.2658 44.0798C31.0752 44.6224 30.8343 45.1412 30.4479 45.5752C29.8735 46.2184 29.143 46.2925 28.4443 45.787C27.9122 45.4032 27.5682 44.8633 27.2611 44.3021C26.6629 43.2143 26.2871 42.0417 25.9377 40.8586C25.8715 40.6363 25.8821 40.3742 25.6704 40.2154C25.2389 40.1837 25.2416 40.5304 25.1569 40.7845C24.6964 42.1979 24.0611 43.5213 23.1744 44.715C22.7509 45.2841 22.2772 45.8055 21.6234 46.1205C20.7394 46.5466 19.985 46.3296 19.4609 45.5038C19.2016 45.0909 19.0348 44.6383 18.8866 44.1751C18.831 44.0004 18.8575 43.7675 18.5954 43.6563C18.4022 43.8098 18.1984 43.9739 17.992 44.138C17.2138 44.7521 16.4303 45.3609 15.5436 45.8135C14.2943 46.454 13.7756 46.2502 13.2647 44.9585C13.1245 44.6039 13.1059 44.1963 12.8359 43.8548C12.611 44.0322 12.423 44.1804 12.2325 44.3286C11.412 44.9612 10.5835 45.5805 9.628 46.004C8.5878 46.4646 8.34165 46.3719 7.82552 45.3476C7.81228 45.3212 7.7567 45.3159 7.69053 45.2867C6.79061 46.2237 5.98333 47.2983 4.59375 47.7748L4.59904 47.7721Z" fill="#936FFF"/>
<path d="M47.7504 31.5583C46.2391 31.5689 44.7595 31.9024 43.8358 32.3656C43.399 32.5853 43.1635 32.9108 43.1238 33.3899C43.0814 33.8743 43.0814 34.3586 43.1396 34.8403C43.5049 37.7836 44.3572 40.6078 45.3947 43.3684C45.9903 44.9565 47.6101 45.5388 49.2194 45.0015C50.4369 44.5965 51.0563 43.6834 51.4957 42.5982C52.647 39.7528 53.1446 36.7672 53.3008 33.7181C53.3405 32.9505 53.179 32.7573 52.4591 32.5085C52.2103 32.4211 51.9509 32.3709 51.6942 32.31C50.9875 32.1432 50.2517 32.0956 49.5661 31.8494C48.9335 31.6218 48.2851 31.545 47.7531 31.5556L47.7504 31.5583Z" fill="white"/>
<path d="M42.7673 37.8393C42.7673 36.5317 42.7461 35.6106 42.6138 34.6948C42.4523 33.5752 42.2221 33.3608 41.0892 33.3132C40.9357 33.3079 40.7822 33.3053 40.626 33.3053C38.5774 33.2894 36.5473 33.6123 34.4986 33.6361C33.8819 33.644 33.2811 33.8134 32.7358 34.1311C31.8439 34.6525 31.5924 35.2216 31.8227 36.2247C31.9815 36.9129 32.2462 37.5666 32.5479 38.2019C33.3684 39.9329 34.3451 41.5766 35.388 43.1858C35.92 44.009 36.6505 44.586 37.5292 44.983C39.5038 45.875 41.2321 45.1445 41.9812 43.1117C42.0712 42.8656 42.1479 42.6115 42.2168 42.3574C42.6376 40.7508 42.7541 39.1097 42.7699 37.8366L42.7673 37.8393Z" fill="white"/>
<path d="M67.2806 38.9352C67.2806 38.4085 67.2806 37.8817 67.2806 37.355C67.2806 36.2142 67.0159 35.9284 65.8751 35.8437C65.6581 35.8278 65.4305 35.8146 65.2187 35.8543C64.647 35.9575 64.0806 35.9231 63.5115 35.8622C63.2495 35.8331 62.9822 35.8305 62.7228 35.8543C61.2459 35.9813 60.5577 36.7648 60.6212 38.2444C60.6556 39.0622 60.825 39.8563 61.0579 40.6371C61.5661 42.3469 62.1537 44.025 63.1172 45.539C63.4745 46.1001 63.9483 46.5395 64.6761 46.4548C65.449 46.3674 66.0313 45.989 66.3331 45.2293C66.5369 44.7158 66.6877 44.1918 66.7989 43.6518C67.1165 42.0955 67.1933 40.5153 67.2833 38.9352H67.2806Z" fill="white"/>
<path d="M60.1407 38.346C60.1804 36.4032 59.8681 35.985 58.1212 35.5324C57.2451 35.3048 56.3531 35.1804 55.4532 35.1036C54.0186 34.9818 53.9445 35.048 53.8042 36.4773C53.5951 38.6053 53.7857 40.7413 53.7222 42.872C53.7195 43.0017 53.7513 43.1341 53.7778 43.2637C54.1166 45.0371 55.8423 45.8259 57.4145 44.9286C58.1291 44.521 58.6082 43.9016 58.9708 43.179C59.7543 41.6174 60.0587 39.9393 60.1407 38.3433V38.346Z" fill="white"/>
<path d="M25.1584 37.6221C25.169 37.2198 25.1558 36.6692 24.9837 36.1372C24.8646 35.7667 24.6502 35.5338 24.2082 35.5867C23.348 35.6899 22.4957 35.5443 21.6434 35.4517C21.0294 35.3855 20.4153 35.33 19.7986 35.3988C19.1898 35.4676 18.994 35.6529 18.8643 36.2405C18.7213 36.8889 18.6552 37.5453 18.7028 38.207C18.814 39.7422 18.9251 41.2774 19.0601 42.8099C19.1342 43.6489 19.3751 44.4535 19.796 45.1867C20.2062 45.9014 20.807 46.0549 21.5323 45.6552C21.9849 45.409 22.3475 45.0517 22.6545 44.6468C24.1897 42.6087 25.1399 40.3563 25.1584 37.6168V37.6221Z" fill="white"/>
<path d="M31.3248 35.0008C29.959 34.6726 28.6727 34.5774 27.3704 34.662C26.8676 34.6965 26.362 34.76 25.8935 34.9717C25.3509 35.2152 25.2477 35.4349 25.38 36.004C25.4462 36.2819 25.5044 36.5598 25.5441 36.843C25.8935 39.2675 26.4732 41.6285 27.524 43.8518C27.7675 44.3706 28.0771 44.8523 28.4927 45.2546C29.1412 45.8819 29.7367 45.8343 30.2634 45.1143C30.6604 44.5744 30.8907 43.9577 31.0733 43.3225C31.5286 41.7344 31.6954 40.0907 32.0103 38.4735C32.05 38.2723 32.0183 38.0844 31.9389 37.8965C31.5524 36.9833 31.2322 36.0543 31.3221 34.9982L31.3248 35.0008Z" fill="white"/>
<path d="M18.1219 36.6211C17.1823 36.5153 16.2823 36.5153 15.3957 36.6688C13.5773 36.9785 12.8865 37.394 12.9765 39.7179C13.0215 40.8375 13.1406 41.9545 13.2544 43.0715C13.3338 43.8417 13.5667 44.5748 13.9002 45.2763C14.0961 45.6865 14.3978 45.8109 14.816 45.6389C15.0383 45.5462 15.2633 45.4536 15.4777 45.3398C16.4703 44.8025 17.3331 44.0852 18.2172 43.3917C18.556 43.127 18.6486 42.8385 18.6089 42.4256C18.511 41.396 18.4607 40.3638 18.3733 39.3341C18.2992 38.4607 18.3151 37.5767 18.1219 36.6238V36.6211Z" fill="white"/>
<path d="M67.6313 37.0615C67.6313 38.0328 67.679 38.9989 67.6181 39.9597C67.5493 41.0396 67.5731 42.1089 67.6605 43.1836C67.679 43.4032 67.6816 43.6176 67.8907 43.7685C68.7271 44.3799 69.5688 44.9807 70.5693 45.2931C71.1834 45.4836 71.4136 45.3619 71.628 44.7637C71.8742 44.0755 71.9562 43.353 72.0012 42.6277C72.1071 40.9788 72.1151 39.3324 71.5936 37.7364C71.3157 36.8841 70.8208 36.5215 69.9314 36.5083C69.1771 36.4977 68.4545 36.6697 67.6313 37.0588V37.0615Z" fill="white"/>
<path d="M8.12045 43.456C8.13633 44.0039 8.10192 44.5571 8.23691 45.097C8.41425 45.8064 8.66305 45.9414 9.31152 45.6555C10.5317 45.1182 11.5719 44.3083 12.5883 43.4613C12.7762 43.3051 12.8344 43.1146 12.8133 42.879C12.7021 41.6323 12.5909 40.3857 12.493 39.1364C12.4586 38.7155 12.2468 38.562 11.8419 38.5991C11.0981 38.6653 10.357 38.7394 9.62649 38.9246C8.98067 39.0887 8.61276 39.4593 8.48042 40.1237C8.26073 41.2247 8.09134 42.3285 8.12045 43.456Z" fill="white"/>
<path d="M72.2578 38.6101C72.4907 40.14 72.5198 41.5852 72.406 43.033C72.3928 43.205 72.4881 43.3215 72.6019 43.43C73.4833 44.2611 74.3991 45.0525 75.4975 45.5898C76.3101 45.9868 76.543 45.8571 76.6727 44.9704C76.6833 44.9043 76.6912 44.8407 76.6939 44.7746C76.7548 43.0647 76.4742 41.4052 75.9792 39.7774C75.8787 39.4465 75.6749 39.1924 75.3414 39.068C74.3859 38.7134 73.4012 38.5625 72.2578 38.6101Z" fill="white"/>
<path d="M7.71098 41.0261C6.72901 41.4522 5.87144 41.7698 5.58823 42.7068C5.23885 43.8608 4.97946 45.044 4.70155 46.2165C4.63008 46.5209 4.55068 46.8491 4.70949 47.1588C4.89212 47.1799 5.00858 47.127 5.12239 47.0582C6.13083 46.4335 6.86929 45.531 7.60511 44.6284C7.66863 44.5516 7.70304 44.4272 7.70569 44.324C7.71363 43.2732 7.71098 42.2224 7.71098 41.0234V41.0261Z" fill="white"/>
<path d="M79.8664 46.9273C79.9617 46.4985 79.8902 46.1544 79.7976 45.8183C79.4429 44.5293 79.075 43.2429 78.7177 41.9566C78.5562 41.3769 78.3418 41.2049 77.7357 41.2287C77.434 41.2419 77.1296 41.2684 76.8438 41.4748C77.0237 42.4727 77.1375 43.4732 77.127 44.4843C77.127 44.7622 77.2408 44.9898 77.4472 45.1777C77.7225 45.4292 77.9792 45.7045 78.2651 45.94C78.7309 46.3265 79.1809 46.7526 79.8664 46.9246V46.9273Z" fill="white"/>
</g>
<defs>
<clipPath id="clip0_3836_247">
<rect width="85" height="60" fill="white"/>
</clipPath>
</defs>
</svg>
