<svg width="85" height="50" viewBox="0 0 85 50" fill="none" xmlns="http://www.w3.org/2000/svg">
<path d="M42.3577 49.794C31.9073 49.9204 21.5159 49.3163 11.2397 47.2931C9.15184 46.8828 7.0921 46.3405 5.11105 45.5481C1.33439 44.0335 0.0642671 41.5635 1.02248 37.5901C1.52547 35.5023 2.4584 33.5971 3.57678 31.7762C3.85216 31.3294 4.00109 30.8714 4.0882 30.3515C4.313 29.0168 4.59962 27.6932 4.89749 26.3725C4.99865 25.9257 4.86096 25.7122 4.57152 25.3328C3.76224 24.2735 2.47807 23.6749 1.87672 22.447C1.28943 21.2471 1.06744 19.946 1.01686 18.645C0.94099 16.7314 0.654369 14.8796 0.216008 13.0081C-0.596085 9.54058 0.91851 6.6547 4.13878 5.11762C6.88697 3.80535 9.83748 3.16747 12.8049 2.62514C21.8531 0.972856 30.9856 0.396804 40.1715 0.514824C44.4006 0.568214 48.6353 0.433334 52.8615 0.677805C60.3839 1.11055 67.8754 1.799 75.2152 3.60865C76.8506 4.01329 78.4608 4.50785 79.9557 5.31151C83.2012 7.05934 84.6315 10.2234 83.7267 13.809C83.4907 14.7475 83.3839 15.6495 83.4513 16.6162C83.5469 17.9903 83.4148 19.37 83.2996 20.7441C83.2153 21.736 82.7039 22.461 81.8103 22.8769C81.4169 23.0595 81.2792 23.3574 81.0656 23.703C80.498 24.6247 80.7902 25.4509 81.0797 26.3416C81.5293 27.7213 81.8271 29.1404 81.8862 30.596C81.9002 30.95 82.08 31.2142 82.2402 31.4924C83.5019 33.6954 84.5416 35.9772 84.9013 38.523C85.3649 41.8051 84.2353 43.9463 81.223 45.298C78.2359 46.6383 75.0522 47.3155 71.8432 47.8551C62.5477 49.4146 53.1819 50.0244 43.7627 49.7968C43.2963 49.7855 42.827 49.7968 42.3605 49.7968L42.3577 49.794Z" fill="#6943DC"/>
<path d="M11.7449 32.9547C11.2222 33.3509 10.9159 33.5982 10.5928 33.823C10.2668 34.0534 9.90995 34.2305 9.52498 34.34C8.39816 34.6604 7.74343 34.2333 7.62822 33.0783C7.5945 32.7327 7.59169 32.3758 7.63665 32.0302C7.70128 31.5413 7.55797 31.4485 7.11399 31.6424C6.51264 31.9038 5.89163 32.1117 5.24252 32.2269C4.94185 32.2803 4.61589 32.3618 4.35175 32.1904C3.99207 31.9572 3.86843 32.1567 3.71668 32.4236C2.82872 33.9663 2.0644 35.5652 1.58108 37.2849C1.30851 38.2572 1.15677 39.2491 1.21578 40.2607C1.31975 42.0423 2.10093 43.4248 3.66891 44.3324C5.07673 45.1502 6.61381 45.6419 8.17336 46.0606C14.7544 47.8225 21.4984 48.5137 28.2649 48.969C37.5099 49.59 46.7689 49.5366 56.0194 49.1038C62.2099 48.8144 68.3722 48.1681 74.4475 46.8699C76.895 46.3472 79.3228 45.7374 81.5793 44.6078C83.5435 43.6243 84.5719 42.0282 84.5354 39.8308C84.4876 36.9168 83.313 34.3625 81.849 31.738C81.5203 32.7159 80.8627 32.6006 80.2024 32.4489C79.365 32.2578 78.6484 31.8223 77.9544 31.3361C77.7745 31.2097 77.5919 30.9371 77.353 31.0945C77.131 31.2406 77.2828 31.5272 77.2912 31.7492C77.3052 32.1229 77.3642 32.4939 77.3642 32.8676C77.3642 33.778 77.0467 34.0057 76.1784 33.7218C75.372 33.4577 74.661 32.9997 73.9417 32.5669C73.7899 32.477 73.641 32.2663 73.4527 32.3899C73.2785 32.5023 73.3797 32.7327 73.3768 32.9097C73.3684 33.306 73.3993 33.705 73.3768 34.0984C73.3206 35.1662 72.9469 35.4921 71.8651 35.4275C70.8956 35.3685 69.9908 35.0454 69.0972 34.6969C68.3497 34.4047 68.3525 34.3991 68.2823 35.228C68.2289 35.8574 68.1643 36.4869 67.9816 37.091C67.4505 38.8529 65.3486 39.5695 63.879 38.4876C63.4463 38.1701 63.0276 37.8301 62.6173 37.4873C61.7771 36.7876 60.9482 36.0766 60.0686 35.3348C59.3099 37.122 58.0426 38.0661 56.1065 37.8694C54.9347 37.7514 53.7714 37.521 52.9565 36.5487C52.1585 35.5961 52.3439 34.385 52.1866 33.2526C52.0601 33.4605 52.0095 33.66 51.9589 33.8567C51.6779 34.947 51.3351 36.012 50.6748 36.9421C49.4777 38.6365 47.8226 39.2238 45.8247 38.659C44.3298 38.2375 43.3884 37.2512 42.9023 35.7956C42.5988 34.888 42.4695 33.941 42.2166 33.0025C42.3459 34.9835 41.4017 36.5403 40.2581 37.9846C38.6901 39.9657 36.4674 39.9741 34.8094 38.0717C34.1098 37.2681 33.6264 36.3351 33.2471 35.3516C33.0925 34.9526 32.9464 34.902 32.6036 35.1493C31.9741 35.6074 31.2745 35.9277 30.5242 36.1328C29.1613 36.5066 27.8097 36.515 26.4609 36.0204C25.5224 35.6748 24.9969 35.0173 24.8873 33.8736C23.6621 35.4697 22.2768 36.5768 20.8296 37.6081C19.4022 38.6253 18.1995 38.4174 17.1429 37.0208C16.7664 36.5206 16.536 35.9698 16.5022 35.346C16.4769 34.8627 16.3112 34.7503 15.8531 34.9948C14.9876 35.4612 14.08 35.8434 13.119 36.0682C12.1102 36.3014 11.8264 36.1019 11.7561 35.0819C11.7112 34.4384 11.7477 33.7893 11.7477 32.9463L11.7449 32.9547Z" fill="#936FFF"/>
<path d="M65.2863 18.3865C65.5842 17.9959 65.7781 17.7374 65.9748 17.4817C67.2983 15.7592 68.6303 14.0338 70.3303 12.6541C71.6285 11.6004 72.6064 11.7802 73.5478 13.1712C74.0255 13.8765 74.3486 14.6577 74.5088 15.4866C74.6156 16.0289 74.7757 15.9868 75.1748 15.7226C75.911 15.2309 76.6922 14.801 77.4537 14.3486C78.1421 13.9411 78.4428 14.0591 78.6508 14.8431C78.766 15.2843 78.8334 15.7367 78.9346 16.2453C79.5134 15.8379 79.9349 15.3461 80.511 15.0792C80.9325 14.8825 81.3652 14.7139 81.6125 15.3208C81.649 15.4107 81.739 15.5344 81.7895 15.4726C82.1408 15.037 82.8461 15.0735 83.0737 14.4722C84.3635 11.1002 83.0259 7.46403 79.8422 5.76678C78.3051 4.94907 76.65 4.44046 74.9668 4.02458C68.22 2.36386 61.3383 1.68665 54.4285 1.23986C50.0168 0.956045 45.5994 1.04597 41.1821 0.981335C32.0158 0.846455 22.9114 1.36912 13.8716 2.88933C10.7581 3.41199 7.66428 4.04706 4.75592 5.34247C0.965212 7.0341 -0.422933 10.2937 0.962402 14.2137C1.01579 14.3626 1.1029 14.6211 1.18158 14.6239C1.96277 14.6492 2.42361 15.2478 2.99404 15.7283C3.28066 14.1828 3.66001 14.0507 4.79245 14.9949C5.12684 15.273 5.44437 15.5737 5.82091 15.9053C5.97265 15.3096 6.07381 14.7841 6.23679 14.2755C6.52341 13.3932 6.98144 13.1908 7.84974 13.5393C8.48761 13.7922 9.04961 14.1771 9.54979 14.6352C9.95444 15.0061 10.1736 15.0792 10.3759 14.4525C10.612 13.7163 11.0166 13.0531 11.5421 12.4743C12.2137 11.7352 12.652 11.6678 13.5035 12.182C14.4336 12.744 15.1867 13.514 15.906 14.3148C16.6507 15.1466 17.3701 15.998 18.1119 16.8551C19.7024 13.3454 23.3807 12.5726 26.2441 15.1073C26.896 15.6833 27.4552 16.338 27.9807 17.0265C28.0959 17.1754 28.1464 17.4255 28.4471 17.4058C29.425 13.795 30.9593 10.6393 35.2867 10.3246C39.9204 9.98742 41.9914 12.7581 42.795 17.004C43.0788 16.0992 43.2812 15.3321 43.5622 14.593C45.1639 10.3724 48.7185 9.476 52.335 10.7855C55.2125 11.8252 56.4545 14.2081 56.9097 17.0827C56.9462 17.3159 56.9041 17.5773 57.1345 17.8105C57.8314 16.5319 58.5676 15.3405 59.6972 14.461C61.4198 13.115 63.1451 13.4634 64.2017 15.3658C64.5108 15.9193 64.73 16.5095 64.9154 17.1136C65.0306 17.4873 65.1346 17.8639 65.2863 18.395V18.3865Z" fill="#936FFF"/>
<path d="M35.0768 27.9148C37.159 27.9204 38.9153 27.912 40.6434 27.5832C42.1749 27.291 42.8802 26.4367 42.7144 24.9305C42.4868 22.882 42.4896 20.8335 42.4503 18.7794C42.4278 17.4924 42.2311 16.2223 41.7983 15C40.9441 12.589 39.348 11.0491 36.7263 10.7878C34.0596 10.5208 31.9015 11.4172 30.429 13.7242C29.6675 14.9185 29.1954 16.2364 28.9173 17.6189C28.4424 19.9709 28.3075 22.3453 28.5969 24.7254C28.833 26.6615 29.8417 27.5916 31.7638 27.749C32.9749 27.8473 34.1916 27.8726 35.0768 27.9148Z" fill="white"/>
<path d="M56.7839 21.4851C56.7052 20.3864 56.6603 18.9111 56.4776 17.4527C56.1151 14.5725 54.9771 12.1474 52.0013 11.1499C48.9609 10.1299 45.8052 10.6975 44.2457 14.1791C43.4785 15.8988 43.0093 17.7113 42.9502 19.5968C42.894 21.3952 43.0317 23.1908 43.206 24.9808C43.2593 25.5259 43.4392 25.7254 44.0265 25.7086C46.5302 25.6383 49.0255 25.8238 51.5123 26.116C52.1305 26.1891 52.7431 26.6696 53.367 26.0148C53.5412 25.8322 53.9908 25.8828 54.3167 25.88C54.8759 25.8715 55.4435 25.8575 55.9971 25.9333C56.6069 26.0205 56.7924 25.7788 56.7867 25.2168C56.7699 24.0956 56.7811 22.9744 56.7811 21.4851H56.7839Z" fill="white"/>
<path d="M46.3581 26.1356C45.7989 26.1356 45.2369 26.1356 44.6777 26.1356C44.3967 26.1356 44.1157 26.1384 43.8375 26.1497C43.1744 26.175 42.2667 27.0376 42.2976 27.7008C42.4213 30.3366 42.5674 32.9724 43.3036 35.5267C43.7588 37.1031 44.8098 38.0697 46.4537 38.3423C48.179 38.6289 49.4547 37.9349 50.3905 36.5186C50.9665 35.6503 51.2897 34.6809 51.5285 33.6749C51.995 31.7191 52.3912 29.7521 52.3069 27.7261C52.2648 26.7257 52.1748 26.6442 51.2503 26.5346C49.6262 26.3408 47.9935 26.248 46.3609 26.1328L46.3581 26.1356Z" fill="white"/>
<path d="M18.6369 18.5638C18.724 19.8536 18.8477 21.5284 19.1849 23.1778C19.2411 23.4476 19.2411 23.7511 19.5783 23.8607C20.6292 24.2063 21.4497 24.9172 22.2337 25.6394C22.748 26.1143 23.3184 26.1087 23.9225 26.1199C24.1024 26.1227 24.2345 26.0778 24.2626 25.8614C24.3581 25.1083 24.9426 24.8526 25.5495 24.6362C26.1677 24.4142 26.8197 24.3131 27.4688 24.2653C27.8987 24.2344 28.0589 24.108 28.0476 23.6415C28.0111 21.9864 27.9802 20.3285 28.2668 18.6874C28.309 18.4402 28.2472 18.235 28.1095 18.0299C27.4379 17.0436 26.6876 16.1275 25.7884 15.3323C24.3778 14.0846 22.8435 13.7643 21.0591 14.4977C19.2214 15.2508 18.5414 16.2034 18.6425 18.5638H18.6369Z" fill="white"/>
<path d="M10.2776 18.0719C10.331 19.283 10.4377 20.4436 10.6344 21.5929C10.848 22.8377 11.1065 24.0713 11.7528 25.1784C12.2952 26.1113 12.9387 26.3811 13.9896 26.1507C14.4504 26.0495 14.8719 25.8528 15.2766 25.614C16.4736 24.9002 17.4571 23.9448 18.3901 22.9276C18.5615 22.7393 18.6177 22.5483 18.5783 22.2925C18.3564 20.91 18.2383 19.5191 18.1765 18.1197C18.1709 17.9623 18.1512 17.774 18.0613 17.6588C16.6703 15.8436 15.2822 14.0199 13.4023 12.6654C12.6492 12.1231 12.3401 12.1737 11.7725 12.9436C10.6401 14.4779 10.0359 16.1808 10.2804 18.0719H10.2776Z" fill="white"/>
<path d="M65.3103 23.0396C65.257 21.0051 65.0153 18.996 64.3971 17.0458C64.1639 16.3096 63.8744 15.5959 63.3883 14.9833C62.7336 14.1543 61.8793 13.9239 60.893 14.3004C60.2664 14.5393 59.769 14.9608 59.3194 15.4413C58.4792 16.3349 57.8807 17.3858 57.3355 18.4733C57.1276 18.8864 57.0826 19.2966 57.1079 19.7547C57.2147 21.5924 57.3974 23.433 57.2091 25.2735C57.1473 25.8805 57.3046 26.0547 57.9032 26.1559C58.9288 26.3301 60.0725 26.1643 60.9043 27.0438C61.0672 27.2153 61.2386 26.9736 61.3848 26.8865C62.1603 26.4088 62.9499 25.962 63.7564 25.5405C64.2622 25.2763 65.0603 25.414 65.2682 24.8464C65.4649 24.3125 65.3103 23.6494 65.3103 23.0452V23.0396Z" fill="white"/>
<path d="M74.2629 17.0134C74.1589 15.569 73.8245 14.1949 72.8635 13.0597C72.2256 12.3038 71.731 12.2532 70.9189 12.818C70.5565 13.0709 70.2108 13.3547 69.8933 13.661C68.2972 15.2121 66.9315 16.96 65.6193 18.7499C65.4928 18.9214 65.4113 19.0928 65.4141 19.3232C65.4366 22.4507 65.9986 23.5298 68.5894 25.3226C69.0109 25.6148 69.4465 25.893 69.8961 26.1375C71.2505 26.8765 71.4922 26.8034 72.071 25.39C72.9955 23.1336 73.5182 20.7619 74.0549 18.3959C74.1589 17.9407 74.2713 17.4854 74.2629 17.0134Z" fill="white"/>
<path d="M16.6916 31.0673C16.731 31.0673 16.7675 31.0673 16.8068 31.0673C16.8068 31.9075 16.7815 32.7477 16.8153 33.5879C16.8434 34.2848 16.8939 34.9901 17.0232 35.6758C17.3351 37.2887 18.9284 38.2525 20.1058 37.5135C21.6344 36.5525 23.017 35.4004 24.1859 34.0122C24.5681 33.5598 24.7339 33.0568 24.6721 32.4611C24.5849 31.649 24.4388 30.8285 24.4866 30.0192C24.5681 28.6254 23.9864 27.6504 22.9214 26.8158C21.9323 26.0402 21.0752 25.0933 19.9456 24.4975C19.5663 24.2952 19.1785 24.1154 18.7795 24.4582C17.6049 25.467 16.7563 26.6612 16.7029 28.2714C16.672 29.2043 16.6972 30.1372 16.6972 31.073L16.6916 31.0673Z" fill="white"/>
<path d="M41.6936 31.2706C41.6936 31.2706 41.7189 31.2706 41.7301 31.2706C41.7301 30.5456 41.7329 29.8234 41.7301 29.0984C41.7245 27.8508 41.7245 27.8761 40.519 28.0644C38.2682 28.4128 36.0033 28.4465 33.7356 28.2948C33.2158 28.2611 33.0247 28.3875 33.0584 28.9326C33.1427 30.3545 33.1568 31.7792 33.2411 33.2011C33.3479 35.0191 34.1038 36.5871 35.3064 37.9191C36.6862 39.4449 38.4677 39.4168 39.7716 37.832C40.8787 36.486 41.8004 35.0276 41.6992 33.1617C41.6655 32.5323 41.6936 31.9028 41.6936 31.2706Z" fill="white"/>
<path d="M67.8355 31.9673C67.8355 30.9417 67.8664 29.9132 67.827 28.8875C67.7877 27.904 67.4055 27.0245 66.7705 26.2714C66.2028 25.597 65.506 25.361 64.6405 25.6785C63.4687 26.1084 62.4149 26.7547 61.3781 27.432C61.1898 27.5556 61.0746 27.6961 61.0886 27.9434C61.2179 30.138 60.8104 32.2652 60.2878 34.3783C60.2175 34.6565 60.2653 34.8672 60.4901 35.0611C61.7799 36.1739 63.0472 37.3176 64.4325 38.3179C64.8091 38.5905 65.2502 38.7816 65.6802 38.5905C66.585 38.1859 67.4252 37.6941 67.6219 36.5729C67.8888 35.0471 67.9057 33.5072 67.8383 31.9673H67.8355Z" fill="white"/>
<path d="M52.7713 31.0391C52.7544 31.0391 52.7375 31.0391 52.7207 31.0391C52.7207 32.0647 52.6954 33.0904 52.7263 34.116C52.7853 36.1252 53.4878 36.9317 55.4548 37.3054C55.66 37.3447 55.8679 37.3785 56.0758 37.4038C57.6775 37.592 58.928 36.8698 59.504 35.3581C59.7513 34.7061 59.9368 34.0261 60.0801 33.3433C60.4623 31.5168 60.8079 29.6818 60.6028 27.7991C60.5522 27.3383 60.3948 27.0208 59.8834 26.9168C57.9782 26.5318 56.0618 26.2733 54.1144 26.3492C53.1366 26.3885 52.7966 26.7566 52.7769 27.7514C52.7544 28.8473 52.7713 29.9432 52.7713 31.0391Z" fill="white"/>
<path d="M32.6254 31.0629C32.6254 30.3154 32.6114 29.568 32.631 28.8205C32.6423 28.4074 32.4934 28.2416 32.0662 28.2304C29.9475 28.177 28.5762 27.1935 28.18 25.0354C28.1378 24.8022 28.0535 24.6448 27.7697 24.6757C26.9323 24.7685 26.0921 24.8443 25.3166 25.2096C24.985 25.3642 24.7209 25.5806 24.7349 26.0021C24.8333 28.7559 24.9007 31.5097 25.3981 34.2326C25.5273 34.9379 25.9685 35.3285 26.5979 35.5645C28.6212 36.3232 30.4982 35.9607 32.277 34.8311C32.5355 34.6653 32.6282 34.4377 32.6732 34.137C32.8249 33.1086 32.7491 32.0857 32.6282 31.0601L32.6254 31.0629Z" fill="white"/>
<path d="M5.97379 19.8412C5.90915 21.6706 5.97659 22.9997 6.45992 24.267C6.76621 25.0679 7.14275 25.228 7.93236 24.9836C8.69387 24.7475 9.402 24.385 10.1326 24.0703C10.5682 23.882 10.63 23.6432 10.5176 23.202C9.98929 21.131 9.66614 18.9982 9.86846 16.8879C9.99491 15.5616 9.37109 14.9912 8.47188 14.4123C8.31452 14.3111 8.15716 14.21 7.99137 14.1229C7.09779 13.6536 6.79712 13.7772 6.56951 14.7692C6.1452 16.5985 6.05247 18.4643 5.9766 19.8384L5.97379 19.8412Z" fill="white"/>
<path d="M78.7356 19.9453C78.775 18.307 78.4743 16.6997 78.2411 15.0868C78.1989 14.8001 78.1371 14.4995 77.7128 14.7496C76.8305 15.2722 75.92 15.7471 75.0882 16.3541C74.9 16.4918 74.7258 16.6407 74.7117 16.9076C74.6246 18.5515 74.0935 20.1026 73.7282 21.6903C73.6692 21.9432 73.5877 22.1736 73.7591 22.4237C74.4391 23.4016 75.1416 24.3654 76.1195 25.0763C77.1058 25.7929 77.665 25.6215 78.0809 24.4919C78.2158 24.1209 78.3085 23.7332 78.39 23.3454C78.6261 22.2242 78.716 21.0861 78.7384 19.9425L78.7356 19.9453Z" fill="white"/>
<path d="M72.1499 26.3369C71.4755 27.3653 70.787 27.0506 70.107 26.7527C69.4607 26.4717 68.8734 26.0868 68.3058 25.6765C67.8196 25.3281 67.3447 24.9599 66.7968 24.5469C66.7575 25.1145 66.7603 25.5416 67.2099 25.8591C67.5471 26.0952 67.7044 26.4774 67.8309 26.8539C68.1063 27.6744 68.317 28.5118 68.3254 29.3857C68.3395 30.6924 68.3564 31.999 68.3704 33.3057C68.3732 33.5839 68.3367 33.8677 68.6795 34.011C69.7585 34.4606 70.8404 34.9018 72.029 34.9748C72.6023 35.0114 72.9029 34.7669 72.9226 34.1712C72.9985 31.6169 72.5967 29.1103 72.1527 26.334L72.1499 26.3369Z" fill="white"/>
<path d="M12.19 31.0452C12.19 32.6385 12.1619 33.7569 12.1984 34.8753C12.2265 35.7352 12.3586 35.8054 13.1707 35.5862C14.0755 35.3418 14.9157 34.9343 15.7615 34.5409C16.1521 34.3611 16.3095 34.1082 16.3011 33.6754C16.273 32.2311 16.3348 30.7839 16.242 29.3424C16.1465 27.8615 16.4135 26.5211 17.3155 25.3269C17.4082 25.2032 17.5599 25.0655 17.397 24.8998C17.2059 24.7059 17.0654 24.8801 16.9193 24.9897C16.4865 25.3072 16.0706 25.6472 15.6182 25.9338C14.9213 26.375 14.1626 26.7487 13.3224 26.6532C12.7127 26.5858 12.5469 26.8387 12.457 27.3388C12.2125 28.7214 12.2603 30.1236 12.19 31.0424V31.0452Z" fill="white"/>
<path d="M76.8869 32.5477C76.7211 30.724 76.3895 29.0773 76.1788 27.4138C76.027 26.2252 75.8079 25.1349 74.7316 24.4183C74.5995 24.3312 74.5237 24.1654 74.4057 24.0558C74.0572 23.7299 73.8746 22.9824 73.4587 23.0695C73.099 23.1454 73.0934 23.9013 72.9529 24.3593C72.7899 24.8876 72.3937 25.3709 72.492 25.9498C72.7955 27.765 73.1355 29.5747 73.4587 31.3843C73.4868 31.5473 73.5065 31.7187 73.6498 31.8199C74.5152 32.4156 75.4032 32.9748 76.4036 33.3176C76.7183 33.4272 76.9009 33.3176 76.8869 32.9579C76.8785 32.7725 76.8869 32.5842 76.8869 32.5505V32.5477Z" fill="white"/>
<path d="M8.08375 32.2632C8.08375 32.5807 8.07813 32.7212 8.08375 32.8589C8.1259 33.8733 8.58393 34.188 9.55057 33.8424C10.1997 33.6092 10.7111 33.1652 11.2225 32.7212C11.5822 32.4065 11.7339 32.0496 11.7396 31.5635C11.7564 30.4451 11.8154 29.3295 11.8857 28.2139C11.9897 26.5954 12.0009 26.5954 11.2534 25.2381C11.1972 25.137 11.1607 25.019 11.0905 24.929C10.9359 24.7295 10.9977 24.2631 10.6184 24.3558C10.2587 24.4429 9.84 24.5581 9.70512 25.019C8.99419 27.4552 8.2664 29.8887 8.07812 32.2632H8.08375Z" fill="white"/>
<path d="M76.8243 26.8525C76.8693 27.8978 77.021 28.842 77.2234 29.7777C77.2796 30.0334 77.347 30.2638 77.5634 30.4437C78.2518 31.0085 78.9712 31.5283 79.8058 31.8515C81.0956 32.3517 81.4861 32.0931 81.4384 30.7247C81.3794 29.0808 80.9607 27.5044 80.4942 25.9364C80.3425 25.4306 80.1823 25.0372 79.5276 25.1046C79.3281 25.1243 79.0724 24.9726 78.9038 24.8293C78.6228 24.5932 78.4963 24.6354 78.3586 24.9641C78.1844 25.3772 77.9455 25.8493 77.4763 25.8858C76.6867 25.9476 76.7485 26.4113 76.8215 26.8553L76.8243 26.8525Z" fill="white"/>
<path d="M4.44031 31.0807C4.46841 31.3336 4.36163 31.5921 4.61734 31.7467C5.10909 32.0445 7.61843 31.0723 7.7505 30.5103C8.12985 28.8973 8.47829 27.2759 8.85765 25.663C8.97286 25.1712 8.80707 25.146 8.40242 25.2921C7.8348 25.4972 7.25875 25.7501 6.66584 25.3286C6.16566 24.9745 5.69357 25.1038 5.5334 25.6911C5.05008 27.4726 4.64825 29.271 4.4375 31.0779L4.44031 31.0807Z" fill="white"/>
<path d="M5.54208 19.5357C5.5758 19.0243 5.5477 18.4988 5.65167 18.0043C5.90738 16.7875 5.40158 15.9502 4.42931 15.3067C4.2017 15.1577 3.98814 14.8318 3.71557 14.9582C3.45424 15.0791 3.52168 15.45 3.51325 15.7169C3.45424 18.0015 3.60317 20.2832 3.74648 22.5621C3.79987 23.3854 4.15393 24.1329 4.6232 24.8186C4.86205 25.1642 5.1571 25.1529 5.47183 24.9591C5.75845 24.782 6.11532 24.6668 5.94953 24.1751C5.4353 22.6661 5.48588 21.1009 5.53646 19.5357H5.54208Z" fill="white"/>
<path d="M79.1736 20.4112C79.1258 21.2963 79.0921 22.4231 78.8083 23.5106C78.6397 24.1541 78.9937 24.4323 79.4714 24.6206C79.9688 24.8145 80.2779 24.4997 80.469 24.0923C80.6067 23.8 80.7022 23.4797 80.7696 23.165C81.1996 21.2176 81.3485 19.2422 81.3345 17.2527C81.3288 16.6345 81.5396 15.6819 81.0591 15.4937C80.4634 15.2604 79.9576 16.0922 79.4349 16.4996C79.0415 16.8059 78.9319 17.1684 79.0415 17.6658C79.2241 18.4891 79.2129 19.3349 79.1736 20.4112Z" fill="white"/>
<path d="M3.4385 23.553C3.11816 21.5467 3.09006 19.5909 3.10411 17.6464C3.10973 16.6039 2.64046 15.9997 1.94358 15.4237C1.82275 15.3225 1.69911 15.168 1.51927 15.2495C1.33942 15.3309 1.37596 15.5305 1.37034 15.685C1.29727 17.6267 1.42654 19.5488 1.95201 21.4315C2.19086 22.2857 2.69104 22.9629 3.4385 23.5558V23.553Z" fill="white"/>
<path d="M81.3828 22.5583C82.3382 22.1874 82.7794 21.5524 82.8525 20.6785C82.9733 19.2594 83.0716 17.8375 83.0014 16.4129C82.9845 16.0841 83.1082 15.5474 82.7401 15.4968C82.3242 15.4406 82.06 15.9099 81.8718 16.2948C81.7537 16.5337 81.7734 16.795 81.779 17.0507C81.7987 18.3377 81.7341 19.6191 81.5964 20.8976C81.5402 21.4203 81.4643 21.943 81.3856 22.5583H81.3828Z" fill="white"/>
<path d="M65.7656 23.6044C65.7656 24.0905 65.7656 24.4586 65.7656 24.8239C65.7656 25.0543 65.9061 25.1499 66.1028 25.1976C66.2012 25.2229 66.3248 25.1976 66.3108 25.0937C66.2461 24.6104 66.5581 24.0118 65.7684 23.6016L65.7656 23.6044Z" fill="white"/>
<path d="M18.6748 23.2656C18.3854 23.5803 18.1662 23.8164 17.9442 24.0524C17.8964 24.103 17.8487 24.1536 17.7981 24.2014C17.6688 24.3306 17.5677 24.4852 17.8177 24.561C18.124 24.651 18.7928 23.7489 18.672 23.2656H18.6748Z" fill="white"/>
<path d="M24.2341 27.4C24.3605 26.5457 24.2903 26.4783 23.5625 26.6609C23.7704 26.8886 23.9952 27.1358 24.2341 27.4Z" fill="white"/>
</svg>
