<svg width="695" height="389" viewBox="0 0 695 389" fill="none" xmlns="http://www.w3.org/2000/svg"><g filter="url(#filter0_dd_369_159)"><path fill-rule="evenodd" clip-rule="evenodd" d="M582.072 30.072c-3.525 7.1-4.115 15.296-1.64 22.784 2.476 7.488 7.815 13.656 14.842 17.145 7.027 3.49 15.167 4.016 22.629 1.463 7.462-2.553 13.635-7.976 17.161-15.076l19.872 9.868c-6.143 12.37-16.92 21.809-29.959 26.238a51.61 51.61 0 01-39.571-2.62c-12.298-6.107-21.651-16.878-26.003-29.944-4.352-13.065-3.345-27.355 2.798-39.726l19.871 9.868z" fill="#fff"/></g><g filter="url(#filter1_dd_369_159)"><path fill-rule="evenodd" clip-rule="evenodd" d="M61.43 284.056c2.053 7.658 7.031 14.195 13.84 18.174 6.81 3.978 14.894 5.073 22.472 3.042 7.579-2.031 14.032-7.02 17.94-13.871 3.908-6.85 4.951-15 2.899-22.658l21.431-5.742c3.575 13.341 1.735 27.548-5.115 39.494a51.615 51.615 0 01-31.412 24.209 51.623 51.623 0 01-39.308-5.259C52.272 314.524 43.575 303.14 40 289.799l21.43-5.743z" fill="#fff"/></g><defs><filter id="filter0_dd_369_159" x="516.737" y=".204" width="178.199" height="155.044" filterUnits="userSpaceOnUse" color-interpolation-filters="sRGB"><feFlood flood-opacity="0" result="BackgroundImageFix"/><feColorMatrix in="SourceAlpha" values="0 0 0 0 0 0 0 0 0 0 0 0 0 0 0 0 0 0 127 0" result="hardAlpha"/><feOffset dy="20"/><feGaussianBlur stdDeviation="20"/><feColorMatrix values="0 0 0 0 0.0627451 0 0 0 0 0.0941176 0 0 0 0 0.156863 0 0 0 0.1 0"/><feBlend in2="BackgroundImageFix" result="effect1_dropShadow_369_159"/><feColorMatrix in="SourceAlpha" values="0 0 0 0 0 0 0 0 0 0 0 0 0 0 0 0 0 0 127 0" result="hardAlpha"/><feOffset dy="20"/><feGaussianBlur stdDeviation="20"/><feColorMatrix values="0 0 0 0 0.0627451 0 0 0 0 0.0941176 0 0 0 0 0.156863 0 0 0 0.05 0"/><feBlend in2="effect1_dropShadow_369_159" result="effect2_dropShadow_369_159"/><feBlend in="SourceGraphic" in2="effect2_dropShadow_369_159" result="shape"/></filter><filter id="filter1_dd_369_159" x="0" y="243.001" width="181.797" height="145.457" filterUnits="userSpaceOnUse" color-interpolation-filters="sRGB"><feFlood flood-opacity="0" result="BackgroundImageFix"/><feColorMatrix in="SourceAlpha" values="0 0 0 0 0 0 0 0 0 0 0 0 0 0 0 0 0 0 127 0" result="hardAlpha"/><feOffset dy="20"/><feGaussianBlur stdDeviation="20"/><feColorMatrix values="0 0 0 0 0.0627451 0 0 0 0 0.0941176 0 0 0 0 0.156863 0 0 0 0.1 0"/><feBlend in2="BackgroundImageFix" result="effect1_dropShadow_369_159"/><feColorMatrix in="SourceAlpha" values="0 0 0 0 0 0 0 0 0 0 0 0 0 0 0 0 0 0 127 0" result="hardAlpha"/><feOffset dy="20"/><feGaussianBlur stdDeviation="20"/><feColorMatrix values="0 0 0 0 0.0627451 0 0 0 0 0.0941176 0 0 0 0 0.156863 0 0 0 0.05 0"/><feBlend in2="effect1_dropShadow_369_159" result="effect2_dropShadow_369_159"/><feBlend in="SourceGraphic" in2="effect2_dropShadow_369_159" result="shape"/></filter></defs></svg>