<svg width="679" height="373" viewBox="0 0 679 373" fill="none" xmlns="http://www.w3.org/2000/svg"><g filter="url(#filter0_dd_3563_117)"><path fill-rule="evenodd" clip-rule="evenodd" d="M574.075 22.071c-3.526 7.1-4.116 15.296-1.641 22.784 2.476 7.489 7.815 13.656 14.842 17.145 7.027 3.49 15.167 4.016 22.629 1.463 7.462-2.553 13.635-7.976 17.161-15.076l19.873 9.868c-6.144 12.37-16.92 21.809-29.96 26.238a51.61 51.61 0 01-39.571-2.62c-12.298-6.107-21.651-16.878-26.003-29.944-4.352-13.065-3.345-27.355 2.798-39.726l19.872 9.868z" fill="#fff"/></g><g filter="url(#filter1_dd_3563_117)"><path fill-rule="evenodd" clip-rule="evenodd" d="M53.43 276.054c2.053 7.658 7.031 14.195 13.84 18.174 6.81 3.978 14.894 5.073 22.472 3.042a29.43 29.43 0 0017.94-13.871c3.908-6.85 4.951-15 2.899-22.658l21.431-5.742c3.575 13.341 1.735 27.548-5.115 39.494a51.615 51.615 0 01-31.412 24.209 51.618 51.618 0 01-39.307-5.259C44.272 306.522 35.575 295.138 32 281.797l21.43-5.743z" fill="#fff"/></g><defs><filter id="filter0_dd_3563_117" x="516.742" y=".203" width="162.195" height="139.047" filterUnits="userSpaceOnUse" color-interpolation-filters="sRGB"><feFlood flood-opacity="0" result="BackgroundImageFix"/><feColorMatrix in="SourceAlpha" values="0 0 0 0 0 0 0 0 0 0 0 0 0 0 0 0 0 0 127 0" result="hardAlpha"/><feMorphology radius="8" in="SourceAlpha" result="effect1_dropShadow_3563_117"/><feOffset dy="20"/><feGaussianBlur stdDeviation="20"/><feColorMatrix values="0 0 0 0 0.0627451 0 0 0 0 0.0941176 0 0 0 0 0.156863 0 0 0 0.1 0"/><feBlend in2="BackgroundImageFix" result="effect1_dropShadow_3563_117"/><feColorMatrix in="SourceAlpha" values="0 0 0 0 0 0 0 0 0 0 0 0 0 0 0 0 0 0 127 0" result="hardAlpha"/><feMorphology radius="8" in="SourceAlpha" result="effect2_dropShadow_3563_117"/><feOffset dy="20"/><feGaussianBlur stdDeviation="20"/><feColorMatrix values="0 0 0 0 0.0627451 0 0 0 0 0.0941176 0 0 0 0 0.156863 0 0 0 0.05 0"/><feBlend in2="effect1_dropShadow_3563_117" result="effect2_dropShadow_3563_117"/><feBlend in="SourceGraphic" in2="effect2_dropShadow_3563_117" result="shape"/></filter><filter id="filter1_dd_3563_117" x="0" y="243" width="165.797" height="129.453" filterUnits="userSpaceOnUse" color-interpolation-filters="sRGB"><feFlood flood-opacity="0" result="BackgroundImageFix"/><feColorMatrix in="SourceAlpha" values="0 0 0 0 0 0 0 0 0 0 0 0 0 0 0 0 0 0 127 0" result="hardAlpha"/><feMorphology radius="8" in="SourceAlpha" result="effect1_dropShadow_3563_117"/><feOffset dy="20"/><feGaussianBlur stdDeviation="20"/><feColorMatrix values="0 0 0 0 0.0627451 0 0 0 0 0.0941176 0 0 0 0 0.156863 0 0 0 0.1 0"/><feBlend in2="BackgroundImageFix" result="effect1_dropShadow_3563_117"/><feColorMatrix in="SourceAlpha" values="0 0 0 0 0 0 0 0 0 0 0 0 0 0 0 0 0 0 127 0" result="hardAlpha"/><feMorphology radius="8" in="SourceAlpha" result="effect2_dropShadow_3563_117"/><feOffset dy="20"/><feGaussianBlur stdDeviation="20"/><feColorMatrix values="0 0 0 0 0.0627451 0 0 0 0 0.0941176 0 0 0 0 0.156863 0 0 0 0.05 0"/><feBlend in2="effect1_dropShadow_3563_117" result="effect2_dropShadow_3563_117"/><feBlend in="SourceGraphic" in2="effect2_dropShadow_3563_117" result="shape"/></filter></defs></svg>