<svg width="10" height="12" viewBox="0 0 10 12" xmlns="http://www.w3.org/2000/svg"><path d="M5 0a5.163 5.163 0 00-3.534 1.382C.53 2.266.002 3.464 0 4.714c0 4.034 4.545 7.08 4.74 7.208a.474.474 0 00.52 0C5.456 11.795 10 8.748 10 4.714c-.002-1.25-.529-2.448-1.466-3.332A5.163 5.163 0 005 0zm0 3c.36 0 .711.1 1.01.289.3.188.532.456.67.77.137.313.173.657.103.99a1.69 1.69 0 01-.497.878c-.255.24-.579.403-.931.469a1.92 1.92 0 01-1.05-.098 1.8 1.8 0 01-.817-.631 1.645 1.645 0 01-.306-.953c0-.454.191-.89.532-1.212A1.876 1.876 0 015 3z"/></svg>