<?xml version="1.0" encoding="utf-8"?><svg viewBox="0 0 21 21" xmlns="http://www.w3.org/2000/svg" xmlns:xlink="http://www.w3.org/1999/xlink"><style>:root>svg{display:none}:root>svg:target{display:block}</style><svg viewBox="0 0 17 14" id="arrow" xmlns="http://www.w3.org/2000/svg"><path d="M9.891 1.555l5.445 5.444m0 0L9.89 12.444m5.445-5.445h-14"/></svg><svg fill="none" viewBox="0 0 17 14" id="arrow-back" xmlns="http://www.w3.org/2000/svg"><path d="M7.116 12.445L1.672 7.001m0 0l5.444-5.445M1.672 7.001h14"/></svg><svg viewBox="0 0 21 21" id="close" xmlns="http://www.w3.org/2000/svg"><path fill-rule="evenodd" clip-rule="evenodd" d="M11.545 1.277a1.273 1.273 0 10-2.545 0v6.817h2.545V1.277zm.911 7.726v2.546h6.816a1.273 1.273 0 100-2.546h-6.816zm-.911 3.455H9v6.818a1.273 1.273 0 002.545 0v-6.818zm-3.452-.91V9.004h-6.82a1.273 1.273 0 000 2.546h6.82z"/></svg><svg viewBox="0 0 20 20" id="cross" xmlns="http://www.w3.org/2000/svg"><path d="M1.336 19.293L18.962 1.667M18.965 18.336L1.339.71"/></svg><svg viewBox="0 0 12 13" id="gmb" xmlns="http://www.w3.org/2000/svg"><path d="M.29 1.79a1 1 0 011-1h4.185v5.185H.289V1.789zM6.512.79h4.185a1 1 0 011 1v4.185H6.512V.789zM.29 7.012h5.185v5.185H1.289a1 1 0 01-1-1V7.012zM6.512 7.012h5.185v4.185a1 1 0 01-1 1H6.512V7.012z"/></svg><svg viewBox="0 0 10 12" id="loc" xmlns="http://www.w3.org/2000/svg"><path d="M5 0a5.163 5.163 0 00-3.534 1.382C.53 2.266.002 3.464 0 4.714c0 4.034 4.545 7.08 4.74 7.208a.474.474 0 00.52 0C5.456 11.795 10 8.748 10 4.714c-.002-1.25-.529-2.448-1.466-3.332A5.163 5.163 0 005 0zm0 3c.36 0 .711.1 1.01.289.3.188.532.456.67.77.137.313.173.657.103.99-.07.332-.243.638-.497.878-.255.24-.579.403-.931.469a1.92 1.92 0 01-1.05-.098 1.8 1.8 0 01-.817-.631 1.645 1.645 0 01-.306-.953c0-.454.191-.89.532-1.212A1.876 1.876 0 015 3z"/></svg><svg viewBox="0 0 9 9" id="phone" xmlns="http://www.w3.org/2000/svg"><path fill-rule="evenodd" clip-rule="evenodd" d="M.234 1.996c0-.57.504-1.031 1.125-1.031h.515c.322 0 .604.201.682.488l.415 1.52a.617.617 0 01-.26.672l-.486.334c-.05.035-.061.085-.047.12.426 1.066 1.35 1.913 2.511 2.303a.123.123 0 00.132-.043l.364-.445a.738.738 0 01.733-.239l1.659.38c.313.072.532.33.532.626v.471c0 .57-.503 1.032-1.125 1.032h-.843C2.879 8.184.234 5.76.234 2.77v-.774z"/></svg><svg viewBox="0 0 16 13" id="telegram" xmlns="http://www.w3.org/2000/svg"><path d="M1.1 5.596c4.295-1.834 7.159-3.044 8.592-3.628C13.783.3 14.633.01 15.188 0c.121-.002.394.028.57.168.15.119.19.279.21.391.02.113.044.369.025.569-.222 2.284-1.181 7.827-1.67 10.385-.206 1.082-.613 1.445-1.006 1.48-.856.078-1.505-.554-2.334-1.086-1.297-.834-2.03-1.352-3.288-2.166-1.455-.94-.512-1.456.317-2.3.217-.221 3.987-3.583 4.06-3.888.01-.038.018-.18-.069-.255-.086-.075-.213-.05-.305-.029-.13.029-2.201 1.371-6.214 4.027-.588.396-1.12.589-1.598.579-.526-.011-1.538-.292-2.29-.532C.673 7.05-.06 6.893.004 6.394c.033-.26.398-.526 1.096-.798z"/></svg><svg viewBox="0 0 20 20" id="whatsapp" xmlns="http://www.w3.org/2000/svg"><path fill-rule="evenodd" clip-rule="evenodd" d="M10 18a8 8 0 10-6.556-3.414l-.717 2.687 2.735-.684A7.963 7.963 0 0010 18zM6.692 5c.325-.002.639-.005.849.409.182.358.406.973.67 1.708l.003.01c.062.17.158.438.032.615-.13.18-.417.544-.625.78-.053.06-.16.198-.015.423.037.056.068.113.102.176.139.255.33.604 1.103 1.339.782.742 1.762 1.17 2.123 1.312.099.054.335.127.493-.017.073-.067.21-.238.36-.426.175-.22.368-.46.494-.579l.012-.01c.084-.076.218-.196.463-.1.215.085 1.04.474 1.663.768l.338.16c.1.03.243.143.243.37 0 .513-.37 2.03-2.169 2.061-1.799.032-3.966-.89-5.615-2.673C5.507 9.48 5 8.245 5 7.116c0-1.376.982-2.115 1.612-2.115h.08z"/></svg></svg>