<svg width="20" height="20" viewBox="0 0 20 20" xmlns="http://www.w3.org/2000/svg"><path fill-rule="evenodd" clip-rule="evenodd" d="M10 18a8 8 0 10-6.556-3.414l-.717 2.687 2.735-.684A7.963 7.963 0 0010 18zM6.692 5c.325-.002.639-.005.849.409.182.358.406.973.67 1.708l.003.01c.062.17.158.438.032.615-.13.18-.417.544-.625.78-.053.06-.16.198-.015.423.037.056.068.113.102.176.139.255.33.604 1.103 1.339.782.742 1.762 1.17 2.123 1.312.099.054.335.127.493-.017.073-.067.21-.238.36-.426.175-.22.368-.46.494-.579l.012-.01c.084-.076.218-.196.463-.1.215.085 1.04.474 1.663.768l.338.16c.1.03.243.143.243.37 0 .513-.37 2.03-2.169 2.061-1.799.032-3.966-.89-5.615-2.673C5.507 9.48 5 8.245 5 7.116c0-1.376.982-2.115 1.612-2.115h.08z"/></svg>